<svg width="163" height="789" viewBox="0 0 163 789" fill="none" xmlns="http://www.w3.org/2000/svg">
<path d="M128.721 93.8849L34.521 117.811V0.958984L128.721 38.16V93.8849Z" fill="#15546E"/>
<path d="M48.5193 37.1831H40.4272V45.2701H48.5193V37.1831Z" fill="white"/>
<path d="M63.3711 37.1831H55.2832V45.2701H63.3711V37.1831Z" fill="white"/>
<path d="M78.2365 37.1831H70.1494V45.2701H78.2365V37.1831Z" fill="white"/>
<path d="M93.097 37.1831H85.001V45.2701H93.097V37.1831Z" fill="white"/>
<path d="M107.942 37.1831H99.8535V45.2701H107.942V37.1831Z" fill="white"/>
<path d="M122.811 37.1831H114.723V45.2701H122.811V37.1831Z" fill="white"/>
<path d="M48.5193 52.8418H40.4272V60.9338H48.5193V52.8418Z" fill="white"/>
<path d="M63.3711 52.8418H55.2832V60.9338H63.3711V52.8418Z" fill="white"/>
<path d="M78.2365 52.8418H70.1494V60.9338H78.2365V52.8418Z" fill="white"/>
<path d="M93.097 52.8418H85.001V60.9338H93.097V52.8418Z" fill="white"/>
<path d="M107.942 52.8418H99.8535V60.9338H107.942V52.8418Z" fill="white"/>
<path d="M122.811 52.8418H114.723V60.9338H122.811V52.8418Z" fill="white"/>
<path d="M48.5193 68.5039H40.4272V76.6049H48.5193V68.5039Z" fill="white"/>
<path d="M63.3711 68.5039H55.2832V76.6049H63.3711V68.5039Z" fill="white"/>
<path d="M78.2365 68.5039H70.1494V76.6049H78.2365V68.5039Z" fill="white"/>
<path d="M93.097 68.5039H85.001V76.6049H93.097V68.5039Z" fill="white"/>
<path d="M107.942 68.5039H99.8535V76.6049H107.942V68.5039Z" fill="white"/>
<path d="M122.811 68.5039H114.723V76.6049H122.811V68.5039Z" fill="white"/>
<path d="M48.5193 84.1777H40.4272V92.2657H48.5193V84.1777Z" fill="white"/>
<path d="M63.3711 84.1777H55.2832V92.2657H63.3711V84.1777Z" fill="white"/>
<path d="M78.2365 84.1777H70.1494V92.2657H78.2365V84.1777Z" fill="white"/>
<path d="M93.097 84.1777H85.001V92.2657H93.097V84.1777Z" fill="white"/>
<path d="M107.942 84.1777H99.8535V92.2657H107.942V84.1777Z" fill="white"/>
<path d="M122.811 84.1777H114.723V92.2657H122.811V84.1777Z" fill="white"/>
<path d="M162.667 789.007H0.575195V201.364L162.667 171.732V789.007Z" fill="#15546E"/>
<path d="M144.971 184.396L18.2754 204.409V116.77L144.971 82.1299V184.396Z" fill="#15546E"/>
<path d="M24.9092 213.255H11.5552V226.609H24.9092V213.255Z" fill="white"/>
<path d="M48.4001 213.255H35.0552V226.609H48.4001V213.255Z" fill="white"/>
<path d="M76.5511 213.255H63.2012V226.609H76.5511V213.255Z" fill="white"/>
<path d="M100.046 213.255H86.6963V226.609H100.046V213.255Z" fill="white"/>
<path d="M128.182 213.255H114.828V226.609H128.182V213.255Z" fill="white"/>
<path d="M151.688 213.255H138.334V226.609H151.688V213.255Z" fill="white"/>
<path d="M24.9092 238.208H11.5552V251.555H24.9092V238.208Z" fill="white"/>
<path d="M48.4001 238.208H35.0552V251.555H48.4001V238.208Z" fill="white"/>
<path d="M76.5511 238.208H63.2012V251.555H76.5511V238.208Z" fill="white"/>
<path d="M100.046 238.208H86.6963V251.555H100.046V238.208Z" fill="white"/>
<path d="M128.182 238.208H114.828V251.555H128.182V238.208Z" fill="white"/>
<path d="M151.688 238.208H138.334V251.555H151.688V238.208Z" fill="white"/>
<path d="M24.9092 263.166H11.5552V276.509H24.9092V263.166Z" fill="white"/>
<path d="M48.4001 263.166H35.0552V276.509H48.4001V263.166Z" fill="white"/>
<path d="M76.5511 263.166H63.2012V276.509H76.5511V263.166Z" fill="white"/>
<path d="M100.046 263.166H86.6963V276.509H100.046V263.166Z" fill="white"/>
<path d="M128.182 263.166H114.828V276.509H128.182V263.166Z" fill="white"/>
<path d="M151.688 263.166H138.334V276.509H151.688V263.166Z" fill="white"/>
<path d="M24.9092 288.111H11.5552V301.458H24.9092V288.111Z" fill="white"/>
<path d="M48.4001 288.111H35.0552V301.458H48.4001V288.111Z" fill="white"/>
<path d="M76.5511 288.111H63.2012V301.458H76.5511V288.111Z" fill="white"/>
<path d="M100.046 288.111H86.6963V301.458H100.046V288.111Z" fill="white"/>
<path d="M128.182 288.111H114.828V301.458H128.182V288.111Z" fill="white"/>
<path d="M151.688 288.111H138.334V301.458H151.688V288.111Z" fill="white"/>
<path d="M24.9092 313.057H11.5552V326.398H24.9092V313.057Z" fill="white"/>
<path d="M48.4001 313.057H35.0552V326.398H48.4001V313.057Z" fill="white"/>
<path d="M76.5511 313.057H63.2012V326.398H76.5511V313.057Z" fill="white"/>
<path d="M100.046 313.057H86.6963V326.398H100.046V313.057Z" fill="white"/>
<path d="M128.182 313.057H114.828V326.398H128.182V313.057Z" fill="white"/>
<path d="M151.688 313.057H138.334V326.398H151.688V313.057Z" fill="white"/>
<path d="M24.9092 338.005H11.5552V351.36H24.9092V338.005Z" fill="white"/>
<path d="M48.4001 338.005H35.0552V351.36H48.4001V338.005Z" fill="white"/>
<path d="M76.5511 338.005H63.2012V351.36H76.5511V338.005Z" fill="white"/>
<path d="M100.046 338.005H86.6963V351.36H100.046V338.005Z" fill="white"/>
<path d="M128.182 338.005H114.828V351.36H128.182V338.005Z" fill="white"/>
<path d="M151.688 338.005H138.334V351.36H151.688V338.005Z" fill="white"/>
<path d="M24.9092 362.957H11.5552V376.306H24.9092V362.957Z" fill="white"/>
<path d="M48.4001 362.957H35.0552V376.306H48.4001V362.957Z" fill="white"/>
<path d="M76.5511 362.957H63.2012V376.306H76.5511V362.957Z" fill="white"/>
<path d="M100.046 362.957H86.6963V376.306H100.046V362.957Z" fill="white"/>
<path d="M128.182 362.957H114.828V376.306H128.182V362.957Z" fill="white"/>
<path d="M151.688 362.957H138.334V376.306H151.688V362.957Z" fill="white"/>
<path d="M24.9092 387.908H11.5552V401.253H24.9092V387.908Z" fill="white"/>
<path d="M48.4001 387.908H35.0552V401.253H48.4001V387.908Z" fill="white"/>
<path d="M76.5511 387.908H63.2012V401.253H76.5511V387.908Z" fill="white"/>
<path d="M100.046 387.908H86.6963V401.253H100.046V387.908Z" fill="white"/>
<path d="M128.182 387.908H114.828V401.253H128.182V387.908Z" fill="white"/>
<path d="M151.688 387.908H138.334V401.253H151.688V387.908Z" fill="white"/>
<path d="M24.9092 412.848H11.5552V426.201H24.9092V412.848Z" fill="white"/>
<path d="M48.4001 412.848H35.0552V426.201H48.4001V412.848Z" fill="white"/>
<path d="M76.5511 412.848H63.2012V426.201H76.5511V412.848Z" fill="white"/>
<path d="M100.046 412.848H86.6963V426.201H100.046V412.848Z" fill="white"/>
<path d="M128.182 412.848H114.828V426.201H128.182V412.848Z" fill="white"/>
<path d="M151.688 412.848H138.334V426.201H151.688V412.848Z" fill="white"/>
<path d="M24.9092 437.805H11.5552V451.148H24.9092V437.805Z" fill="white"/>
<path d="M48.4001 437.805H35.0552V451.148H48.4001V437.805Z" fill="white"/>
<path d="M76.5511 437.805H63.2012V451.148H76.5511V437.805Z" fill="white"/>
<path d="M100.046 437.805H86.6963V451.148H100.046V437.805Z" fill="white"/>
<path d="M128.182 437.805H114.828V451.148H128.182V437.805Z" fill="white"/>
<path d="M151.688 437.805H138.334V451.148H151.688V437.805Z" fill="white"/>
<path d="M24.9092 462.754H11.5552V476.097H24.9092V462.754Z" fill="white"/>
<path d="M48.4001 462.754H35.0552V476.097H48.4001V462.754Z" fill="white"/>
<path d="M76.5511 462.754H63.2012V476.097H76.5511V462.754Z" fill="white"/>
<path d="M100.046 462.754H86.6963V476.097H100.046V462.754Z" fill="white"/>
<path d="M128.182 462.754H114.828V476.097H128.182V462.754Z" fill="white"/>
<path d="M151.688 462.754H138.334V476.097H151.688V462.754Z" fill="white"/>
<path d="M24.9092 487.707H11.5552V501.048H24.9092V487.707Z" fill="white"/>
<path d="M48.4001 487.707H35.0552V501.048H48.4001V487.707Z" fill="white"/>
<path d="M76.5511 487.707H63.2012V501.048H76.5511V487.707Z" fill="white"/>
<path d="M100.046 487.707H86.6963V501.048H100.046V487.707Z" fill="white"/>
<path d="M128.182 487.707H114.828V501.048H128.182V487.707Z" fill="white"/>
<path d="M151.688 487.707H138.334V501.048H151.688V487.707Z" fill="white"/>
<path d="M24.9092 512.65H11.5552V525.995H24.9092V512.65Z" fill="white"/>
<path d="M48.4001 512.65H35.0552V525.995H48.4001V512.65Z" fill="white"/>
<path d="M76.5511 512.65H63.2012V525.995H76.5511V512.65Z" fill="white"/>
<path d="M100.046 512.65H86.6963V525.995H100.046V512.65Z" fill="white"/>
<path d="M128.182 512.65H114.828V525.995H128.182V512.65Z" fill="white"/>
<path d="M151.688 512.65H138.334V525.995H151.688V512.65Z" fill="white"/>
<path d="M24.9092 537.596H11.5552V550.95H24.9092V537.596Z" fill="white"/>
<path d="M48.4001 537.596H35.0552V550.95H48.4001V537.596Z" fill="white"/>
<path d="M76.5511 537.596H63.2012V550.95H76.5511V537.596Z" fill="white"/>
<path d="M100.046 537.596H86.6963V550.95H100.046V537.596Z" fill="white"/>
<path d="M128.182 537.596H114.828V550.95H128.182V537.596Z" fill="white"/>
<path d="M151.688 537.596H138.334V550.95H151.688V537.596Z" fill="white"/>
<path d="M24.9092 562.549H11.5552V575.896H24.9092V562.549Z" fill="white"/>
<path d="M48.4001 562.549H35.0552V575.896H48.4001V562.549Z" fill="white"/>
<path d="M76.5511 562.549H63.2012V575.896H76.5511V562.549Z" fill="white"/>
<path d="M100.046 562.549H86.6963V575.896H100.046V562.549Z" fill="white"/>
<path d="M128.182 562.549H114.828V575.896H128.182V562.549Z" fill="white"/>
<path d="M151.688 562.549H138.334V575.896H151.688V562.549Z" fill="white"/>
<path d="M24.9092 587.498H11.5552V600.845H24.9092V587.498Z" fill="white"/>
<path d="M48.4001 587.498H35.0552V600.845H48.4001V587.498Z" fill="white"/>
<path d="M76.5511 587.498H63.2012V600.845H76.5511V587.498Z" fill="white"/>
<path d="M100.046 587.498H86.6963V600.845H100.046V587.498Z" fill="white"/>
<path d="M128.182 587.498H114.828V600.845H128.182V587.498Z" fill="white"/>
<path d="M151.688 587.498H138.334V600.845H151.688V587.498Z" fill="white"/>
<path d="M24.9092 612.452H11.5552V625.799H24.9092V612.452Z" fill="white"/>
<path d="M48.4001 612.452H35.0552V625.799H48.4001V612.452Z" fill="white"/>
<path d="M76.5511 612.452H63.2012V625.799H76.5511V612.452Z" fill="white"/>
<path d="M100.046 612.452H86.6963V625.799H100.046V612.452Z" fill="white"/>
<path d="M128.182 612.452H114.828V625.799H128.182V612.452Z" fill="white"/>
<path d="M151.688 612.452H138.334V625.799H151.688V612.452Z" fill="white"/>
<path d="M24.9092 637.398H11.5552V650.745H24.9092V637.398Z" fill="white"/>
<path d="M48.4001 637.398H35.0552V650.745H48.4001V637.398Z" fill="white"/>
<path d="M76.5511 637.398H63.2012V650.745H76.5511V637.398Z" fill="white"/>
<path d="M100.046 637.398H86.6963V650.745H100.046V637.398Z" fill="white"/>
<path d="M128.182 637.398H114.828V650.745H128.182V637.398Z" fill="white"/>
<path d="M151.688 637.398H138.334V650.745H151.688V637.398Z" fill="white"/>
<path d="M24.9092 662.347H11.5552V675.7H24.9092V662.347Z" fill="white"/>
<path d="M48.4001 662.347H35.0552V675.7H48.4001V662.347Z" fill="white"/>
<path d="M76.5511 662.347H63.2012V675.7H76.5511V662.347Z" fill="white"/>
<path d="M100.046 662.347H86.6963V675.7H100.046V662.347Z" fill="white"/>
<path d="M128.182 662.347H114.828V675.7H128.182V662.347Z" fill="white"/>
<path d="M151.688 662.347H138.334V675.7H151.688V662.347Z" fill="white"/>
<path d="M24.9092 687.3H11.5552V700.647H24.9092V687.3Z" fill="white"/>
<path d="M48.4001 687.3H35.0552V700.647H48.4001V687.3Z" fill="white"/>
<path d="M76.5511 687.3H63.2012V700.647H76.5511V687.3Z" fill="white"/>
<path d="M100.046 687.3H86.6963V700.647H100.046V687.3Z" fill="white"/>
<path d="M128.182 687.3H114.828V700.647H128.182V687.3Z" fill="white"/>
<path d="M151.688 687.3H138.334V700.647H151.688V687.3Z" fill="white"/>
<path d="M24.9092 712.249H11.5552V725.588H24.9092V712.249Z" fill="white"/>
<path d="M48.4001 712.249H35.0552V725.588H48.4001V712.249Z" fill="white"/>
<path d="M76.5511 712.249H63.2012V725.588H76.5511V712.249Z" fill="white"/>
<path d="M100.046 712.249H86.6963V725.588H100.046V712.249Z" fill="white"/>
<path d="M128.182 712.249H114.828V725.588H128.182V712.249Z" fill="white"/>
<path d="M151.688 712.249H138.334V725.588H151.688V712.249Z" fill="white"/>
<path d="M24.9092 737.202H11.5552V750.543H24.9092V737.202Z" fill="white"/>
<path d="M48.4001 737.202H35.0552V750.543H48.4001V737.202Z" fill="white"/>
<path d="M76.5511 737.202H63.2012V750.543H76.5511V737.202Z" fill="white"/>
<path d="M100.046 737.202H86.6963V750.543H100.046V737.202Z" fill="white"/>
<path d="M128.182 737.202H114.828V750.543H128.182V737.202Z" fill="white"/>
<path d="M151.688 737.202H138.334V750.543H151.688V737.202Z" fill="white"/>
<path d="M24.9092 762.146H11.5552V775.493H24.9092V762.146Z" fill="white"/>
<path d="M48.4001 762.146H35.0552V775.493H48.4001V762.146Z" fill="white"/>
<path d="M76.5511 762.146H63.2012V775.493H76.5511V762.146Z" fill="white"/>
<path d="M100.046 762.146H86.6963V775.493H100.046V762.146Z" fill="white"/>
<path d="M128.182 762.146H114.828V775.493H128.182V762.146Z" fill="white"/>
<path d="M151.688 762.146H138.334V775.493H151.688V762.146Z" fill="white"/>
<path d="M38.9943 123.488H28.5713V133.907H38.9943V123.488Z" fill="white"/>
<path d="M58.1224 123.488H47.6914V133.907H58.1224V123.488Z" fill="white"/>
<path d="M77.2552 123.488H66.8413V133.907H77.2552V123.488Z" fill="white"/>
<path d="M96.4012 123.488H85.9692V133.907H96.4012V123.488Z" fill="white"/>
<path d="M115.534 123.488H105.111V133.907H115.534V123.488Z" fill="white"/>
<path d="M134.67 123.488H124.248V133.907H134.67V123.488Z" fill="white"/>
<path d="M38.9943 143.064H28.5713V153.491H38.9943V143.064Z" fill="white"/>
<path d="M58.1224 143.064H47.6914V153.491H58.1224V143.064Z" fill="white"/>
<path d="M77.2552 143.064H66.8413V153.491H77.2552V143.064Z" fill="white"/>
<path d="M96.4012 143.064H85.9692V153.491H96.4012V143.064Z" fill="white"/>
<path d="M115.534 143.064H105.111V153.491H115.534V143.064Z" fill="white"/>
<path d="M134.67 143.064H124.248V153.491H134.67V143.064Z" fill="white"/>
<path d="M38.9943 162.652H28.5713V173.077H38.9943V162.652Z" fill="white"/>
<path d="M58.1224 162.652H47.6914V173.077H58.1224V162.652Z" fill="white"/>
<path d="M77.2552 162.652H66.8413V173.077H77.2552V162.652Z" fill="white"/>
<path d="M96.4012 162.652H85.9692V173.077H96.4012V162.652Z" fill="white"/>
<path d="M115.534 162.652H105.111V173.077H115.534V162.652Z" fill="white"/>
<path d="M134.67 162.652H124.248V173.077H134.67V162.652Z" fill="white"/>
</svg>
