<svg width="168" height="692" viewBox="0 0 168 692" fill="none" xmlns="http://www.w3.org/2000/svg">
<path d="M132.293 123.112V67.1461H100.96V0.225098H0V691.177H167.099V123.112H132.293Z" fill="#15546E"/>
<path d="M30.7492 42.7271H12.5742V60.8901H30.7492V42.7271Z" fill="white"/>
<path d="M60.5641 42.7271H42.3892V60.8901H60.5641V42.7271Z" fill="white"/>
<path d="M90.3662 42.7271H72.2002V60.8901H90.3662V42.7271Z" fill="white"/>
<path d="M30.7492 9.5083H12.5742V27.6783H30.7492V9.5083Z" fill="white"/>
<path d="M60.5641 9.5083H42.3892V27.6783H60.5641V9.5083Z" fill="white"/>
<path d="M90.3662 9.5083H72.2002V27.6783H90.3662V9.5083Z" fill="white"/>
<path d="M30.7492 73.813H12.5742V91.977H30.7492V73.813Z" fill="white"/>
<path d="M60.5641 73.813H42.3892V91.977H60.5641V73.813Z" fill="white"/>
<path d="M90.3662 73.813H72.2002V91.977H90.3662V73.813Z" fill="white"/>
<path d="M120.181 73.813H102.011V91.977H120.181V73.813Z" fill="white"/>
<path d="M30.7492 104.479H12.5742V122.641H30.7492V104.479Z" fill="white"/>
<path d="M60.5641 104.479H42.3892V122.641H60.5641V104.479Z" fill="white"/>
<path d="M90.3662 104.479H72.2002V122.641H90.3662V104.479Z" fill="white"/>
<path d="M120.181 104.479H102.011V122.641H120.181V104.479Z" fill="white"/>
<path d="M30.7492 137.122H12.5742V155.289H30.7492V137.122Z" fill="white"/>
<path d="M61.6921 137.122H43.5171V155.289H61.6921V137.122Z" fill="white"/>
<path d="M92.6383 137.122H74.4644V155.289H92.6383V137.122Z" fill="white"/>
<path d="M123.58 137.122H105.406V155.289H123.58V137.122Z" fill="white"/>
<path d="M154.527 137.122H136.353V155.289H154.527V137.122Z" fill="white"/>
<path d="M30.7492 164.945H12.5742V183.115H30.7492V164.945Z" fill="white"/>
<path d="M61.6921 164.945H43.5171V183.115H61.6921V164.945Z" fill="white"/>
<path d="M92.6383 164.945H74.4644V183.115H92.6383V164.945Z" fill="white"/>
<path d="M123.58 164.945H105.406V183.115H123.58V164.945Z" fill="white"/>
<path d="M154.527 164.945H136.353V183.115H154.527V164.945Z" fill="white"/>
<path d="M30.7492 192.766H12.5742V210.936H30.7492V192.766Z" fill="white"/>
<path d="M61.6921 192.766H43.5171V210.936H61.6921V192.766Z" fill="white"/>
<path d="M92.6383 192.766H74.4644V210.936H92.6383V192.766Z" fill="white"/>
<path d="M123.58 192.766H105.406V210.936H123.58V192.766Z" fill="white"/>
<path d="M154.527 192.766H136.353V210.936H154.527V192.766Z" fill="white"/>
<path d="M30.7492 220.583H12.5742V238.758H30.7492V220.583Z" fill="white"/>
<path d="M61.6921 220.583H43.5171V238.758H61.6921V220.583Z" fill="white"/>
<path d="M92.6383 220.583H74.4644V238.758H92.6383V220.583Z" fill="white"/>
<path d="M123.58 220.583H105.406V238.758H123.58V220.583Z" fill="white"/>
<path d="M154.527 220.583H136.353V238.758H154.527V220.583Z" fill="white"/>
<path d="M30.7492 248.411H12.5742V266.579H30.7492V248.411Z" fill="white"/>
<path d="M61.6921 248.411H43.5171V266.579H61.6921V248.411Z" fill="white"/>
<path d="M92.6383 248.411H74.4644V266.579H92.6383V248.411Z" fill="white"/>
<path d="M123.58 248.411H105.406V266.579H123.58V248.411Z" fill="white"/>
<path d="M154.527 248.411H136.353V266.579H154.527V248.411Z" fill="white"/>
<path d="M30.7492 276.234H12.5742V294.404H30.7492V276.234Z" fill="white"/>
<path d="M61.6921 276.234H43.5171V294.404H61.6921V276.234Z" fill="white"/>
<path d="M92.6383 276.234H74.4644V294.404H92.6383V276.234Z" fill="white"/>
<path d="M123.58 276.234H105.406V294.404H123.58V276.234Z" fill="white"/>
<path d="M154.527 276.234H136.353V294.404H154.527V276.234Z" fill="white"/>
<path d="M30.7492 304.056H12.5742V322.226H30.7492V304.056Z" fill="white"/>
<path d="M61.6921 304.056H43.5171V322.226H61.6921V304.056Z" fill="white"/>
<path d="M92.6383 304.056H74.4644V322.226H92.6383V304.056Z" fill="white"/>
<path d="M123.58 304.056H105.406V322.226H123.58V304.056Z" fill="white"/>
<path d="M154.527 304.056H136.353V322.226H154.527V304.056Z" fill="white"/>
<path d="M30.7492 331.881H12.5742V350.047H30.7492V331.881Z" fill="white"/>
<path d="M61.6921 331.881H43.5171V350.047H61.6921V331.881Z" fill="white"/>
<path d="M92.6383 331.881H74.4644V350.047H92.6383V331.881Z" fill="white"/>
<path d="M123.58 331.881H105.406V350.047H123.58V331.881Z" fill="white"/>
<path d="M154.527 331.881H136.353V350.047H154.527V331.881Z" fill="white"/>
<path d="M30.7492 359.694H12.5742V377.875H30.7492V359.694Z" fill="white"/>
<path d="M61.6921 359.694H43.5171V377.875H61.6921V359.694Z" fill="white"/>
<path d="M92.6383 359.694H74.4644V377.875H92.6383V359.694Z" fill="white"/>
<path d="M123.58 359.694H105.406V377.875H123.58V359.694Z" fill="white"/>
<path d="M154.527 359.694H136.353V377.875H154.527V359.694Z" fill="white"/>
<path d="M30.7492 387.528H12.5742V405.69H30.7492V387.528Z" fill="white"/>
<path d="M61.6921 387.528H43.5171V405.69H61.6921V387.528Z" fill="white"/>
<path d="M92.6383 387.528H74.4644V405.69H92.6383V387.528Z" fill="white"/>
<path d="M123.58 387.528H105.406V405.69H123.58V387.528Z" fill="white"/>
<path d="M154.527 387.528H136.353V405.69H154.527V387.528Z" fill="white"/>
<path d="M30.7492 415.343H12.5742V433.511H30.7492V415.343Z" fill="white"/>
<path d="M61.6921 415.343H43.5171V433.511H61.6921V415.343Z" fill="white"/>
<path d="M92.6383 415.343H74.4644V433.511H92.6383V415.343Z" fill="white"/>
<path d="M123.58 415.343H105.406V433.511H123.58V415.343Z" fill="white"/>
<path d="M154.527 415.343H136.353V433.511H154.527V415.343Z" fill="white"/>
<path d="M30.7492 443.457H12.5742V461.623H30.7492V443.457Z" fill="white"/>
<path d="M61.6921 443.457H43.5171V461.623H61.6921V443.457Z" fill="white"/>
<path d="M92.6383 443.457H74.4644V461.623H92.6383V443.457Z" fill="white"/>
<path d="M123.58 443.457H105.406V461.623H123.58V443.457Z" fill="white"/>
<path d="M154.527 443.457H136.353V461.623H154.527V443.457Z" fill="white"/>
<path d="M30.7492 471.566H12.5742V489.734H30.7492V471.566Z" fill="white"/>
<path d="M61.6921 471.566H43.5171V489.734H61.6921V471.566Z" fill="white"/>
<path d="M92.6383 471.566H74.4644V489.734H92.6383V471.566Z" fill="white"/>
<path d="M123.58 471.566H105.406V489.734H123.58V471.566Z" fill="white"/>
<path d="M154.527 471.566H136.353V489.734H154.527V471.566Z" fill="white"/>
<path d="M30.7492 499.677H12.5742V517.849H30.7492V499.677Z" fill="white"/>
<path d="M61.6921 499.677H43.5171V517.849H61.6921V499.677Z" fill="white"/>
<path d="M92.6383 499.677H74.4644V517.849H92.6383V499.677Z" fill="white"/>
<path d="M123.58 499.677H105.406V517.849H123.58V499.677Z" fill="white"/>
<path d="M154.527 499.677H136.353V517.849H154.527V499.677Z" fill="white"/>
<path d="M30.7492 527.792H12.5742V545.958H30.7492V527.792Z" fill="white"/>
<path d="M61.6921 527.792H43.5171V545.958H61.6921V527.792Z" fill="white"/>
<path d="M92.6383 527.792H74.4644V545.958H92.6383V527.792Z" fill="white"/>
<path d="M123.58 527.792H105.406V545.958H123.58V527.792Z" fill="white"/>
<path d="M154.527 527.792H136.353V545.958H154.527V527.792Z" fill="white"/>
<path d="M30.7492 555.904H12.5742V574.072H30.7492V555.904Z" fill="white"/>
<path d="M61.6921 555.904H43.5171V574.072H61.6921V555.904Z" fill="white"/>
<path d="M92.6383 555.904H74.4644V574.072H92.6383V555.904Z" fill="white"/>
<path d="M123.58 555.904H105.406V574.072H123.58V555.904Z" fill="white"/>
<path d="M154.527 555.904H136.353V574.072H154.527V555.904Z" fill="white"/>
<path d="M30.7492 584.015H12.5742V602.179H30.7492V584.015Z" fill="white"/>
<path d="M61.6921 584.015H43.5171V602.179H61.6921V584.015Z" fill="white"/>
<path d="M92.6383 584.015H74.4644V602.179H92.6383V584.015Z" fill="white"/>
<path d="M123.58 584.015H105.406V602.179H123.58V584.015Z" fill="white"/>
<path d="M154.527 584.015H136.353V602.179H154.527V584.015Z" fill="white"/>
</svg>
