<svg width="195" height="1051" viewBox="0 0 195 1051" fill="none" xmlns="http://www.w3.org/2000/svg">
<path d="M194.555 500.903H0V1051.01H194.555V500.903Z" fill="#15546E"/>
<path d="M174.71 416.94H19.8501V507.075H174.71V416.94Z" fill="#15546E"/>
<path d="M160.856 225.837H33.6963V420.95H160.856V225.837Z" fill="#15546E"/>
<path d="M101.69 0H92.8711V248.976H101.69V0Z" fill="#15546E"/>
<path d="M53.877 235.703H41.0439V248.541H53.877V235.703Z" fill="white"/>
<path d="M73.8069 235.703H60.9629V248.541H73.8069V235.703Z" fill="white"/>
<path d="M93.736 235.703H80.9019V248.541H93.736V235.703Z" fill="white"/>
<path d="M113.664 235.703H100.826V248.541H113.664V235.703Z" fill="white"/>
<path d="M133.588 235.703H120.76V248.541H133.588V235.703Z" fill="white"/>
<path d="M153.518 235.703H140.684V404.33H153.518V235.703Z" fill="white"/>
<path d="M53.877 258.031H41.0439V270.869H53.877V258.031Z" fill="white"/>
<path d="M73.8069 258.031H60.9629V270.869H73.8069V258.031Z" fill="white"/>
<path d="M93.736 258.031H80.9019V270.869H93.736V258.031Z" fill="white"/>
<path d="M113.664 258.031H100.826V270.869H113.664V258.031Z" fill="white"/>
<path d="M133.588 258.031H120.76V270.869H133.588V258.031Z" fill="white"/>
<path d="M53.877 280.361H41.0439V293.189H53.877V280.361Z" fill="white"/>
<path d="M73.8069 280.361H60.9629V293.189H73.8069V280.361Z" fill="white"/>
<path d="M93.736 280.361H80.9019V293.189H93.736V280.361Z" fill="white"/>
<path d="M113.664 280.361H100.826V293.189H113.664V280.361Z" fill="white"/>
<path d="M133.588 280.361H120.76V293.189H133.588V280.361Z" fill="white"/>
<path d="M53.877 302.679H41.0439V315.517H53.877V302.679Z" fill="white"/>
<path d="M73.8069 302.679H60.9629V315.517H73.8069V302.679Z" fill="white"/>
<path d="M93.736 302.679H80.9019V315.517H93.736V302.679Z" fill="white"/>
<path d="M113.664 302.679H100.826V315.517H113.664V302.679Z" fill="white"/>
<path d="M133.588 302.679H120.76V315.517H133.588V302.679Z" fill="white"/>
<path d="M53.877 324.998H41.0439V337.836H53.877V324.998Z" fill="white"/>
<path d="M73.8069 324.998H60.9629V337.836H73.8069V324.998Z" fill="white"/>
<path d="M93.736 324.998H80.9019V337.836H93.736V324.998Z" fill="white"/>
<path d="M113.664 324.998H100.826V337.836H113.664V324.998Z" fill="white"/>
<path d="M133.588 324.998H120.76V337.836H133.588V324.998Z" fill="white"/>
<path d="M53.877 347.338H41.0439V360.166H53.877V347.338Z" fill="white"/>
<path d="M73.8069 347.338H60.9629V360.166H73.8069V347.338Z" fill="white"/>
<path d="M93.736 347.338H80.9019V360.166H93.736V347.338Z" fill="white"/>
<path d="M113.664 347.338H100.826V360.166H113.664V347.338Z" fill="white"/>
<path d="M133.588 347.338H120.76V360.166H133.588V347.338Z" fill="white"/>
<path d="M53.877 369.656H41.0439V382.485H53.877V369.656Z" fill="white"/>
<path d="M73.8069 369.656H60.9629V382.485H73.8069V369.656Z" fill="white"/>
<path d="M93.736 369.656H80.9019V382.485H93.736V369.656Z" fill="white"/>
<path d="M113.664 369.656H100.826V382.485H113.664V369.656Z" fill="white"/>
<path d="M133.588 369.656H120.76V382.485H133.588V369.656Z" fill="white"/>
<path d="M53.877 391.975H41.0439V404.813H53.877V391.975Z" fill="white"/>
<path d="M73.8069 391.975H60.9629V404.813H73.8069V391.975Z" fill="white"/>
<path d="M93.736 391.975H80.9019V404.813H93.736V391.975Z" fill="white"/>
<path d="M113.664 391.975H100.826V404.813H113.664V391.975Z" fill="white"/>
<path d="M133.588 391.975H120.76V404.813H133.588V391.975Z" fill="white"/>
<path d="M42.4509 425.236H26.2349V441.452H42.4509V425.236Z" fill="white"/>
<path d="M67.624 425.236H51.4131V441.452H67.624V425.236Z" fill="white"/>
<path d="M92.7969 425.236H76.5859V441.452H92.7969V425.236Z" fill="white"/>
<path d="M117.97 425.236H101.759V441.452H117.97V425.236Z" fill="white"/>
<path d="M143.144 425.236H126.942V441.452H143.144V425.236Z" fill="white"/>
<path d="M168.321 425.236H152.105V496.291H168.321V425.236Z" fill="white"/>
<path d="M42.4509 452.414H26.2349V468.63H42.4509V452.414Z" fill="white"/>
<path d="M67.624 452.414H51.4131V468.63H67.624V452.414Z" fill="white"/>
<path d="M92.7969 452.414H76.5859V468.63H92.7969V452.414Z" fill="white"/>
<path d="M117.97 452.414H101.759V468.63H117.97V452.414Z" fill="white"/>
<path d="M143.144 452.414H126.942V468.63H143.144V452.414Z" fill="white"/>
<path d="M42.4509 479.592H26.2349V495.808H42.4509V479.592Z" fill="white"/>
<path d="M67.624 479.592H51.4131V495.808H67.624V479.592Z" fill="white"/>
<path d="M92.7969 479.592H76.5859V495.808H92.7969V479.592Z" fill="white"/>
<path d="M117.97 479.592H101.759V495.808H117.97V479.592Z" fill="white"/>
<path d="M143.144 479.592H126.942V495.808H143.144V479.592Z" fill="white"/>
<path d="M147.508 515.697H12.0981V524.081H147.508V515.697Z" fill="white"/>
<path d="M147.508 537.039H12.0981V545.423H147.508V537.039Z" fill="white"/>
<path d="M147.508 558.38H12.0981V566.754H147.508V558.38Z" fill="white"/>
<path d="M147.508 579.711H12.0981V588.095H147.508V579.711Z" fill="white"/>
<path d="M147.508 601.053H12.0981V609.437H147.508V601.053Z" fill="white"/>
<path d="M147.508 622.394H12.0981V630.778H147.508V622.394Z" fill="white"/>
<path d="M147.508 643.735H12.0981V652.11H147.508V643.735Z" fill="white"/>
<path d="M147.508 665.067H12.0981V673.451H147.508V665.067Z" fill="white"/>
<path d="M147.508 686.408H12.0981V694.792H147.508V686.408Z" fill="white"/>
<path d="M147.508 707.749H12.0981V716.134H147.508V707.749Z" fill="white"/>
<path d="M147.508 729.09H12.0981V737.465H147.508V729.09Z" fill="white"/>
<path d="M147.508 750.422H12.0981V758.806H147.508V750.422Z" fill="white"/>
<path d="M147.508 771.763H12.0981V780.148H147.508V771.763Z" fill="white"/>
<path d="M147.508 793.105H12.0981V801.479H147.508V793.105Z" fill="white"/>
<path d="M147.508 814.446H12.0981V822.83H147.508V814.446Z" fill="white"/>
<path d="M147.508 835.788H12.0981V844.162H147.508V835.788Z" fill="white"/>
<path d="M147.508 857.119H12.0981V865.503H147.508V857.119Z" fill="white"/>
<path d="M147.508 878.46H12.0981V886.844H147.508V878.46Z" fill="white"/>
<path d="M147.508 899.802H12.0981V908.186H147.508V899.802Z" fill="white"/>
<path d="M147.508 921.143H12.0981V929.518H147.508V921.143Z" fill="white"/>
<path d="M147.508 942.474H12.0981V950.859H147.508V942.474Z" fill="white"/>
<path d="M147.508 963.815H12.0981V972.199H147.508V963.815Z" fill="white"/>
<path d="M147.508 985.157H12.0981V993.541H147.508V985.157Z" fill="white"/>
<path d="M147.508 1006.49H12.0981V1014.87H147.508V1006.49Z" fill="white"/>
<path d="M147.508 1027.83H12.0981V1036.21H147.508V1027.83Z" fill="white"/>
<path d="M183.456 515.697H163.072V1035H183.456V515.697Z" fill="white"/>
</svg>
