<svg width="126" height="602" viewBox="0 0 126 602" fill="none" xmlns="http://www.w3.org/2000/svg">
<path d="M111.815 351.82V238.759L102.493 232.881V125.705L93.1781 119.093V0.160889L32.6061 24.3919V131.575L23.2841 139.894V232.881L13.9701 241.445V301.645L-0.00585938 323.181V601.177H125.79V365.764L111.815 351.82Z" fill="#15546E"/>
<path d="M50.2233 40.2468H42.0713V112.464H50.2233V40.2468Z" fill="white"/>
<path d="M66.5314 40.2468H58.3784V112.464H66.5314V40.2468Z" fill="white"/>
<path d="M82.8375 40.2468H74.6846V112.464H82.8375V40.2468Z" fill="white"/>
<path d="M38.1362 149.738H29.9912V221.955H38.1362V149.738Z" fill="white"/>
<path d="M57.3583 149.738H49.2134V221.955H57.3583V149.738Z" fill="white"/>
<path d="M76.5792 149.738H68.4263V221.955H76.5792V149.738Z" fill="white"/>
<path d="M95.8011 149.738H87.6401V221.955H95.8011V149.738Z" fill="white"/>
<path d="M38.1362 240.592H29.9912V312.808H38.1362V240.592Z" fill="white"/>
<path d="M57.3583 240.592H49.2134V312.808H57.3583V240.592Z" fill="white"/>
<path d="M76.5792 240.592H68.4263V312.808H76.5792V240.592Z" fill="white"/>
<path d="M95.8011 240.592H87.6401V312.808H95.8011V240.592Z" fill="white"/>
<path d="M17.754 337.844H9.60791V410.061H17.754V337.844Z" fill="white"/>
<path d="M35.2292 337.844H27.0762V410.061H35.2292V337.844Z" fill="white"/>
<path d="M52.6968 337.844H44.5518V410.061H52.6968V337.844Z" fill="white"/>
<path d="M70.1721 337.844H62.019V410.061H70.1721V337.844Z" fill="white"/>
<path d="M87.6401 337.844H79.4951V410.061H87.6401V337.844Z" fill="white"/>
<path d="M105.115 337.844H96.9619V410.061H105.115V337.844Z" fill="white"/>
<path d="M17.754 419.376H9.60791V491.592H17.754V419.376Z" fill="white"/>
<path d="M35.2292 419.376H27.0762V491.592H35.2292V419.376Z" fill="white"/>
<path d="M52.6968 419.376H44.5518V491.592H52.6968V419.376Z" fill="white"/>
<path d="M70.1721 419.376H62.019V491.592H70.1721V419.376Z" fill="white"/>
<path d="M87.6401 419.376H79.4951V491.592H87.6401V419.376Z" fill="white"/>
<path d="M105.115 419.376H96.9619V491.592H105.115V419.376Z" fill="white"/>
<path d="M17.754 500.915H9.60791V573.131H17.754V500.915Z" fill="white"/>
<path d="M35.2292 500.915H27.0762V573.131H35.2292V500.915Z" fill="white"/>
<path d="M52.6968 500.915H44.5518V573.131H52.6968V500.915Z" fill="white"/>
<path d="M70.1721 500.915H62.019V573.131H70.1721V500.915Z" fill="white"/>
<path d="M87.6401 500.915H79.4951V573.131H87.6401V500.915Z" fill="white"/>
<path d="M105.115 500.915H96.9619V573.131H105.115V500.915Z" fill="white"/>
</svg>
