<svg width="260" height="430" viewBox="0 0 260 430" fill="none" xmlns="http://www.w3.org/2000/svg">
<path d="M259.027 66.1218H0.519043V429.178H259.027V66.1218Z" fill="#15546E"/>
<path d="M241.963 73.88H17.5859V42.8531C17.5859 27.9351 241.963 27.9351 241.963 42.8531V73.88Z" fill="#15546E"/>
<path d="M221.278 39.7519H38.2681V17.1859C38.2681 2.26786 221.278 -6.19612 221.278 8.71888V39.7519Z" fill="#15546E"/>
<path d="M142.576 82.4099H11.47V88.6179H142.576V82.4099Z" fill="white"/>
<path d="M142.576 97.155H11.47V103.357H142.576V97.155Z" fill="white"/>
<path d="M142.576 111.893H11.47V118.101H142.576V111.893Z" fill="white"/>
<path d="M142.576 126.635H11.47V132.84H142.576V126.635Z" fill="white"/>
<path d="M142.576 141.372H11.47V147.583H142.576V141.372Z" fill="white"/>
<path d="M142.576 156.111H11.47V162.316H142.576V156.111Z" fill="white"/>
<path d="M142.576 170.849H11.47V177.06H142.576V170.849Z" fill="white"/>
<path d="M142.576 185.594H11.47V191.793H142.576V185.594Z" fill="white"/>
<path d="M142.576 200.326H11.47V206.537H142.576V200.326Z" fill="white"/>
<path d="M142.576 215.071H11.47V221.276H142.576V215.071Z" fill="white"/>
<path d="M142.576 229.809H11.47V236.017H142.576V229.809Z" fill="white"/>
<path d="M142.576 244.547H11.47V250.754H142.576V244.547Z" fill="white"/>
<path d="M142.576 259.286H11.47V265.494H142.576V259.286Z" fill="white"/>
<path d="M142.576 274.026H11.47V280.232H142.576V274.026Z" fill="white"/>
<path d="M142.576 288.765H11.47V294.976H142.576V288.765Z" fill="white"/>
<path d="M142.576 303.51H11.47V309.708H142.576V303.51Z" fill="white"/>
<path d="M142.576 318.242H11.47V324.453H142.576V318.242Z" fill="white"/>
<path d="M142.576 332.98H11.47V339.188H142.576V332.98Z" fill="white"/>
<path d="M142.576 347.719H11.47V353.927H142.576V347.719Z" fill="white"/>
<path d="M142.576 362.463H11.47V368.665H142.576V362.463Z" fill="white"/>
<path d="M142.576 377.202H11.47V383.41H142.576V377.202Z" fill="white"/>
<path d="M142.576 391.945H11.47V398.147H142.576V391.945Z" fill="white"/>
<path d="M142.576 406.684H11.47V412.892H142.576V406.684Z" fill="white"/>
<path d="M170.527 82.4099H157.701V141.148H170.527V82.4099Z" fill="white"/>
<path d="M195.48 82.4099H182.651V141.148H195.48V82.4099Z" fill="white"/>
<path d="M220.415 82.4099H207.586V141.148H220.415V82.4099Z" fill="white"/>
<path d="M245.368 82.4099H232.533V141.148H245.368V82.4099Z" fill="white"/>
<path d="M170.527 150.35H157.701V209.082H170.527V150.35Z" fill="white"/>
<path d="M195.48 150.35H182.651V209.082H195.48V150.35Z" fill="white"/>
<path d="M220.415 150.35H207.586V209.082H220.415V150.35Z" fill="white"/>
<path d="M245.368 150.35H232.533V209.082H245.368V150.35Z" fill="white"/>
<path d="M170.527 218.278H157.701V277.019H170.527V218.278Z" fill="white"/>
<path d="M195.48 218.278H182.651V277.019H195.48V218.278Z" fill="white"/>
<path d="M220.415 218.278H207.586V277.019H220.415V218.278Z" fill="white"/>
<path d="M245.368 218.278H232.533V277.019H245.368V218.278Z" fill="white"/>
<path d="M170.527 286.209H157.701V344.947H170.527V286.209Z" fill="white"/>
<path d="M195.48 286.209H182.651V344.947H195.48V286.209Z" fill="white"/>
<path d="M220.415 286.209H207.586V344.947H220.415V286.209Z" fill="white"/>
<path d="M245.368 286.209H232.533V344.947H245.368V286.209Z" fill="white"/>
<path d="M170.527 354.154H157.701V412.892H170.527V354.154Z" fill="white"/>
<path d="M195.48 354.154H182.651V412.892H195.48V354.154Z" fill="white"/>
<path d="M220.415 354.154H207.586V412.892H220.415V354.154Z" fill="white"/>
<path d="M245.368 354.154H232.533V412.892H245.368V354.154Z" fill="white"/>
</svg>
