<svg width="257" height="409" viewBox="0 0 257 409" fill="none" xmlns="http://www.w3.org/2000/svg">
<path d="M256.041 66.1321H0.0444336V409.008H256.041V66.1321Z" fill="#15546E"/>
<path d="M228.632 30.9551H27.4482V69.7491H228.632V30.9551Z" fill="#15546E"/>
<path d="M202.265 0.447998H53.8213V31.481H202.265V0.447998Z" fill="#15546E"/>
<path d="M31.0754 85.2629H22.7944V114.743H31.0754V85.2629Z" fill="white"/>
<path d="M47.1116 85.2629H38.8306V114.743H47.1116V85.2629Z" fill="white"/>
<path d="M31.0754 119.659H22.7944V149.139H31.0754V119.659Z" fill="white"/>
<path d="M47.1116 119.659H38.8306V149.139H47.1116V119.659Z" fill="white"/>
<path d="M31.0754 154.045H22.7944V183.522H31.0754V154.045Z" fill="white"/>
<path d="M47.1116 154.045H38.8306V183.522H47.1116V154.045Z" fill="white"/>
<path d="M31.0754 188.446H22.7944V217.917H31.0754V188.446Z" fill="white"/>
<path d="M47.1116 188.446H38.8306V217.917H47.1116V188.446Z" fill="white"/>
<path d="M31.0754 222.827H22.7944V252.3H31.0754V222.827Z" fill="white"/>
<path d="M47.1116 222.827H38.8306V252.3H47.1116V222.827Z" fill="white"/>
<path d="M31.0754 257.223H22.7944V286.702H31.0754V257.223Z" fill="white"/>
<path d="M47.1116 257.223H38.8306V286.702H47.1116V257.223Z" fill="white"/>
<path d="M31.0754 291.609H22.7944V321.089H31.0754V291.609Z" fill="white"/>
<path d="M47.1116 291.609H38.8306V321.089H47.1116V291.609Z" fill="white"/>
<path d="M31.0754 326.004H22.7944V355.487H31.0754V326.004Z" fill="white"/>
<path d="M47.1116 326.004H38.8306V355.487H47.1116V326.004Z" fill="white"/>
<path d="M31.0754 360.394H22.7944V389.864H31.0754V360.394Z" fill="white"/>
<path d="M47.1116 360.394H38.8306V389.864H47.1116V360.394Z" fill="white"/>
<path d="M77.6184 85.2629H69.3374V114.743H77.6184V85.2629Z" fill="white"/>
<path d="M93.6575 85.2629H85.3765V114.743H93.6575V85.2629Z" fill="white"/>
<path d="M77.6184 119.659H69.3374V149.139H77.6184V119.659Z" fill="white"/>
<path d="M93.6575 119.659H85.3765V149.139H93.6575V119.659Z" fill="white"/>
<path d="M77.6184 154.045H69.3374V183.522H77.6184V154.045Z" fill="white"/>
<path d="M93.6575 154.045H85.3765V183.522H93.6575V154.045Z" fill="white"/>
<path d="M77.6184 188.446H69.3374V217.917H77.6184V188.446Z" fill="white"/>
<path d="M93.6575 188.446H85.3765V217.917H93.6575V188.446Z" fill="white"/>
<path d="M77.6184 222.827H69.3374V252.3H77.6184V222.827Z" fill="white"/>
<path d="M93.6575 222.827H85.3765V252.3H93.6575V222.827Z" fill="white"/>
<path d="M77.6184 257.223H69.3374V286.702H77.6184V257.223Z" fill="white"/>
<path d="M93.6575 257.223H85.3765V286.702H93.6575V257.223Z" fill="white"/>
<path d="M77.6184 291.609H69.3374V321.089H77.6184V291.609Z" fill="white"/>
<path d="M93.6575 291.609H85.3765V321.089H93.6575V291.609Z" fill="white"/>
<path d="M77.6184 326.004H69.3374V355.487H77.6184V326.004Z" fill="white"/>
<path d="M93.6575 326.004H85.3765V355.487H93.6575V326.004Z" fill="white"/>
<path d="M77.6184 360.394H69.3374V389.864H77.6184V360.394Z" fill="white"/>
<path d="M93.6575 360.394H85.3765V389.864H93.6575V360.394Z" fill="white"/>
<path d="M124.165 85.2629H115.884V114.743H124.165V85.2629Z" fill="white"/>
<path d="M140.201 85.2629H131.92V114.743H140.201V85.2629Z" fill="white"/>
<path d="M124.165 119.659H115.884V149.139H124.165V119.659Z" fill="white"/>
<path d="M140.201 119.659H131.92V149.139H140.201V119.659Z" fill="white"/>
<path d="M124.165 154.045H115.884V183.522H124.165V154.045Z" fill="white"/>
<path d="M140.201 154.045H131.92V183.522H140.201V154.045Z" fill="white"/>
<path d="M124.165 188.446H115.884V217.917H124.165V188.446Z" fill="white"/>
<path d="M140.201 188.446H131.92V217.917H140.201V188.446Z" fill="white"/>
<path d="M124.165 222.827H115.884V252.3H124.165V222.827Z" fill="white"/>
<path d="M140.201 222.827H131.92V252.3H140.201V222.827Z" fill="white"/>
<path d="M124.165 257.223H115.884V286.702H124.165V257.223Z" fill="white"/>
<path d="M140.201 257.223H131.92V286.702H140.201V257.223Z" fill="white"/>
<path d="M124.165 291.609H115.884V321.089H124.165V291.609Z" fill="white"/>
<path d="M140.201 291.609H131.92V321.089H140.201V291.609Z" fill="white"/>
<path d="M124.165 326.004H115.884V355.487H124.165V326.004Z" fill="white"/>
<path d="M140.201 326.004H131.92V355.487H140.201V326.004Z" fill="white"/>
<path d="M124.165 360.394H115.884V389.864H124.165V360.394Z" fill="white"/>
<path d="M140.201 360.394H131.92V389.864H140.201V360.394Z" fill="white"/>
<path d="M170.711 85.2629H162.427V114.743H170.711V85.2629Z" fill="white"/>
<path d="M186.739 85.2629H178.467V114.743H186.739V85.2629Z" fill="white"/>
<path d="M170.711 119.659H162.427V149.139H170.711V119.659Z" fill="white"/>
<path d="M186.739 119.659H178.467V149.139H186.739V119.659Z" fill="white"/>
<path d="M170.711 154.045H162.427V183.522H170.711V154.045Z" fill="white"/>
<path d="M186.739 154.045H178.467V183.522H186.739V154.045Z" fill="white"/>
<path d="M170.711 188.446H162.427V217.917H170.711V188.446Z" fill="white"/>
<path d="M186.739 188.446H178.467V217.917H186.739V188.446Z" fill="white"/>
<path d="M170.711 222.827H162.427V252.3H170.711V222.827Z" fill="white"/>
<path d="M186.739 222.827H178.467V252.3H186.739V222.827Z" fill="white"/>
<path d="M170.711 257.223H162.427V286.702H170.711V257.223Z" fill="white"/>
<path d="M186.739 257.223H178.467V286.702H186.739V257.223Z" fill="white"/>
<path d="M170.711 291.609H162.427V321.089H170.711V291.609Z" fill="white"/>
<path d="M186.739 291.609H178.467V321.089H186.739V291.609Z" fill="white"/>
<path d="M170.711 326.004H162.427V355.487H170.711V326.004Z" fill="white"/>
<path d="M186.739 326.004H178.467V355.487H186.739V326.004Z" fill="white"/>
<path d="M170.711 360.394H162.427V389.864H170.711V360.394Z" fill="white"/>
<path d="M186.739 360.394H178.467V389.864H186.739V360.394Z" fill="white"/>
<path d="M217.247 85.2629H208.975V114.743H217.247V85.2629Z" fill="white"/>
<path d="M233.284 85.2629H225.015V114.743H233.284V85.2629Z" fill="white"/>
<path d="M217.247 119.659H208.975V149.139H217.247V119.659Z" fill="white"/>
<path d="M233.284 119.659H225.015V149.139H233.284V119.659Z" fill="white"/>
<path d="M217.247 154.045H208.975V183.522H217.247V154.045Z" fill="white"/>
<path d="M233.284 154.045H225.015V183.522H233.284V154.045Z" fill="white"/>
<path d="M217.247 188.446H208.975V217.917H217.247V188.446Z" fill="white"/>
<path d="M233.284 188.446H225.015V217.917H233.284V188.446Z" fill="white"/>
<path d="M217.247 222.827H208.975V252.3H217.247V222.827Z" fill="white"/>
<path d="M233.284 222.827H225.015V252.3H233.284V222.827Z" fill="white"/>
<path d="M217.247 257.223H208.975V286.702H217.247V257.223Z" fill="white"/>
<path d="M233.284 257.223H225.015V286.702H233.284V257.223Z" fill="white"/>
<path d="M217.247 291.609H208.975V321.089H217.247V291.609Z" fill="white"/>
<path d="M233.284 291.609H225.015V321.089H233.284V291.609Z" fill="white"/>
<path d="M217.247 326.004H208.975V355.487H217.247V326.004Z" fill="white"/>
<path d="M233.284 326.004H225.015V355.487H233.284V326.004Z" fill="white"/>
<path d="M217.247 360.394H208.975V389.864H217.247V360.394Z" fill="white"/>
<path d="M233.284 360.394H225.015V389.864H233.284V360.394Z" fill="white"/>
<path d="M48.5286 39.877H36.8936V60.821H48.5286V39.877Z" fill="white"/>
<path d="M69.8605 39.877H58.2266V60.821H69.8605V39.877Z" fill="white"/>
<path d="M91.1957 39.877H79.5557V60.821H91.1957V39.877Z" fill="white"/>
<path d="M112.526 39.877H100.888V60.821H112.526V39.877Z" fill="white"/>
<path d="M133.857 39.877H122.229V60.821H133.857V39.877Z" fill="white"/>
<path d="M155.19 39.877H143.556V60.821H155.19V39.877Z" fill="white"/>
<path d="M176.526 39.877H164.888V60.821H176.526V39.877Z" fill="white"/>
<path d="M197.86 39.877H186.223V60.821H197.86V39.877Z" fill="white"/>
<path d="M219.193 39.877H207.559V60.821H219.193V39.877Z" fill="white"/>
<path d="M197.471 5.48804H58.6094V6.65002H197.471V5.48804Z" fill="white"/>
<path d="M197.471 12.082H58.6094V13.249H197.471V12.082Z" fill="white"/>
<path d="M197.471 18.679H58.6094V19.843H197.471V18.679Z" fill="white"/>
<path d="M197.471 25.2729H58.6094V26.434H197.471V25.2729Z" fill="white"/>
</svg>
