<svg width="116" height="570" viewBox="0 0 116 570" fill="none" xmlns="http://www.w3.org/2000/svg">
<path d="M101.221 96.299V56.401C101.221 52.032 96.3862 48.7001 89.0342 46.3811V14.614C89.0342 -3.98397 26.3591 -3.98397 26.3591 14.614V46.3811C19.0101 48.7001 14.1752 52.031 14.1752 56.401V96.299C5.67317 98.008 0.243164 100.383 0.243164 103.406V570.007H115.152V103.406C115.153 100.383 109.717 98.008 101.221 96.299Z" fill="#15546E"/>
<path d="M12.6769 110.265H5.71289V145.958H12.6769V110.265Z" fill="white"/>
<path d="M26.3878 110.265H19.4268V145.958H26.3878V110.265Z" fill="white"/>
<path d="M40.0968 110.265H33.1357V145.958H40.0968V110.265Z" fill="white"/>
<path d="M53.8077 110.265H46.8408V145.958H53.8077V110.265Z" fill="white"/>
<path d="M67.5197 110.265H60.5547V145.958H67.5197V110.265Z" fill="white"/>
<path d="M81.2311 110.265H74.2671V145.958H81.2311V110.265Z" fill="white"/>
<path d="M94.943 110.265H87.979V145.958H94.943V110.265Z" fill="white"/>
<path d="M108.649 110.265H101.685V145.958H108.649V110.265Z" fill="white"/>
<path d="M26.3883 53.688H19.4272V89.373H26.3883V53.688Z" fill="white"/>
<path d="M40.0973 53.688H33.1362V89.373H40.0973V53.688Z" fill="white"/>
<path d="M53.8082 53.688H46.8413V89.373H53.8082V53.688Z" fill="white"/>
<path d="M67.5201 53.688H60.5552V89.373H67.5201V53.688Z" fill="white"/>
<path d="M81.2316 53.688H74.2676V89.373H81.2316V53.688Z" fill="white"/>
<path d="M94.9435 53.688H87.9795V89.373H94.9435V53.688Z" fill="white"/>
<path d="M40.0973 9.28711H33.1362V44.9802H40.0973V9.28711Z" fill="white"/>
<path d="M53.8082 9.28711H46.8413V44.9802H53.8082V9.28711Z" fill="white"/>
<path d="M67.5201 9.28711H60.5552V44.9802H67.5201V9.28711Z" fill="white"/>
<path d="M81.2316 9.28711H74.2676V44.9802H81.2316V9.28711Z" fill="white"/>
<path d="M12.6769 152.486H5.71289V188.181H12.6769V152.486Z" fill="white"/>
<path d="M26.3878 152.486H19.4268V188.181H26.3878V152.486Z" fill="white"/>
<path d="M40.0968 152.486H33.1357V188.181H40.0968V152.486Z" fill="white"/>
<path d="M53.8077 152.486H46.8408V188.181H53.8077V152.486Z" fill="white"/>
<path d="M67.5197 152.486H60.5547V188.181H67.5197V152.486Z" fill="white"/>
<path d="M81.2311 152.486H74.2671V188.181H81.2311V152.486Z" fill="white"/>
<path d="M94.943 152.486H87.979V188.181H94.943V152.486Z" fill="white"/>
<path d="M108.649 152.486H101.685V188.181H108.649V152.486Z" fill="white"/>
<path d="M12.6769 194.713H5.71289V230.401H12.6769V194.713Z" fill="white"/>
<path d="M26.3878 194.713H19.4268V230.401H26.3878V194.713Z" fill="white"/>
<path d="M40.0968 194.713H33.1357V230.401H40.0968V194.713Z" fill="white"/>
<path d="M53.8077 194.713H46.8408V230.401H53.8077V194.713Z" fill="white"/>
<path d="M67.5197 194.713H60.5547V230.401H67.5197V194.713Z" fill="white"/>
<path d="M81.2311 194.713H74.2671V230.401H81.2311V194.713Z" fill="white"/>
<path d="M94.943 194.713H87.979V230.401H94.943V194.713Z" fill="white"/>
<path d="M108.649 194.713H101.685V230.401H108.649V194.713Z" fill="white"/>
<path d="M12.6769 236.928H5.71289V272.616H12.6769V236.928Z" fill="white"/>
<path d="M26.3878 236.928H19.4268V272.616H26.3878V236.928Z" fill="white"/>
<path d="M40.0968 236.928H33.1357V272.616H40.0968V236.928Z" fill="white"/>
<path d="M53.8077 236.928H46.8408V272.616H53.8077V236.928Z" fill="white"/>
<path d="M67.5197 236.928H60.5547V272.616H67.5197V236.928Z" fill="white"/>
<path d="M81.2311 236.928H74.2671V272.616H81.2311V236.928Z" fill="white"/>
<path d="M94.943 236.928H87.979V272.616H94.943V236.928Z" fill="white"/>
<path d="M108.649 236.928H101.685V272.616H108.649V236.928Z" fill="white"/>
<path d="M12.6769 279.149H5.71289V314.841H12.6769V279.149Z" fill="white"/>
<path d="M26.3878 279.149H19.4268V314.841H26.3878V279.149Z" fill="white"/>
<path d="M40.0968 279.149H33.1357V314.841H40.0968V279.149Z" fill="white"/>
<path d="M53.8077 279.149H46.8408V314.841H53.8077V279.149Z" fill="white"/>
<path d="M67.5197 279.149H60.5547V314.841H67.5197V279.149Z" fill="white"/>
<path d="M81.2311 279.149H74.2671V314.841H81.2311V279.149Z" fill="white"/>
<path d="M94.943 279.149H87.979V314.841H94.943V279.149Z" fill="white"/>
<path d="M108.649 279.149H101.685V314.841H108.649V279.149Z" fill="white"/>
<path d="M12.6769 321.363H5.71289V357.061H12.6769V321.363Z" fill="white"/>
<path d="M26.3878 321.363H19.4268V357.061H26.3878V321.363Z" fill="white"/>
<path d="M40.0968 321.363H33.1357V357.061H40.0968V321.363Z" fill="white"/>
<path d="M53.8077 321.363H46.8408V357.061H53.8077V321.363Z" fill="white"/>
<path d="M67.5197 321.363H60.5547V357.061H67.5197V321.363Z" fill="white"/>
<path d="M81.2311 321.363H74.2671V357.061H81.2311V321.363Z" fill="white"/>
<path d="M94.943 321.363H87.979V357.061H94.943V321.363Z" fill="white"/>
<path d="M108.649 321.363H101.685V357.061H108.649V321.363Z" fill="white"/>
<path d="M12.6769 363.59H5.71289V399.278H12.6769V363.59Z" fill="white"/>
<path d="M26.3878 363.59H19.4268V399.278H26.3878V363.59Z" fill="white"/>
<path d="M40.0968 363.59H33.1357V399.278H40.0968V363.59Z" fill="white"/>
<path d="M53.8077 363.59H46.8408V399.278H53.8077V363.59Z" fill="white"/>
<path d="M67.5197 363.59H60.5547V399.278H67.5197V363.59Z" fill="white"/>
<path d="M81.2311 363.59H74.2671V399.278H81.2311V363.59Z" fill="white"/>
<path d="M94.943 363.59H87.979V399.278H94.943V363.59Z" fill="white"/>
<path d="M108.649 363.59H101.685V399.278H108.649V363.59Z" fill="white"/>
<path d="M12.6769 405.812H5.71289V441.498H12.6769V405.812Z" fill="white"/>
<path d="M26.3878 405.812H19.4268V441.498H26.3878V405.812Z" fill="white"/>
<path d="M40.0968 405.812H33.1357V441.498H40.0968V405.812Z" fill="white"/>
<path d="M53.8077 405.812H46.8408V441.498H53.8077V405.812Z" fill="white"/>
<path d="M67.5197 405.812H60.5547V441.498H67.5197V405.812Z" fill="white"/>
<path d="M81.2311 405.812H74.2671V441.498H81.2311V405.812Z" fill="white"/>
<path d="M94.943 405.812H87.979V441.498H94.943V405.812Z" fill="white"/>
<path d="M108.649 405.812H101.685V441.498H108.649V405.812Z" fill="white"/>
<path d="M12.6769 448.032H5.71289V483.724H12.6769V448.032Z" fill="white"/>
<path d="M26.3878 448.032H19.4268V483.724H26.3878V448.032Z" fill="white"/>
<path d="M40.0968 448.032H33.1357V483.724H40.0968V448.032Z" fill="white"/>
<path d="M53.8077 448.032H46.8408V483.724H53.8077V448.032Z" fill="white"/>
<path d="M67.5197 448.032H60.5547V483.724H67.5197V448.032Z" fill="white"/>
<path d="M81.2311 448.032H74.2671V483.724H81.2311V448.032Z" fill="white"/>
<path d="M94.943 448.032H87.979V483.724H94.943V448.032Z" fill="white"/>
<path d="M108.649 448.032H101.685V483.724H108.649V448.032Z" fill="white"/>
<path d="M12.6769 490.249H5.71289V525.945H12.6769V490.249Z" fill="white"/>
<path d="M26.3878 490.249H19.4268V525.945H26.3878V490.249Z" fill="white"/>
<path d="M40.0968 490.249H33.1357V525.945H40.0968V490.249Z" fill="white"/>
<path d="M53.8077 490.249H46.8408V525.945H53.8077V490.249Z" fill="white"/>
<path d="M67.5197 490.249H60.5547V525.945H67.5197V490.249Z" fill="white"/>
<path d="M81.2311 490.249H74.2671V525.945H81.2311V490.249Z" fill="white"/>
<path d="M94.943 490.249H87.979V525.945H94.943V490.249Z" fill="white"/>
<path d="M108.649 490.249H101.685V525.945H108.649V490.249Z" fill="white"/>
</svg>
