<svg width="2422" height="1051" viewBox="0 0 2422 1051" fill="none" xmlns="http://www.w3.org/2000/svg">
<path d="M955.293 470.112V414.146H923.96V347.225H823V1038.18H990.099V470.112H955.293Z" fill="#555F63"/>
<path d="M853.749 389.727H835.574V407.89H853.749V389.727Z" fill="white"/>
<path d="M883.564 389.727H865.389V407.89H883.564V389.727Z" fill="white"/>
<path d="M913.366 389.727H895.2V407.89H913.366V389.727Z" fill="white"/>
<path d="M853.749 356.508H835.574V374.678H853.749V356.508Z" fill="white"/>
<path d="M883.564 356.508H865.389V374.678H883.564V356.508Z" fill="white"/>
<path d="M913.366 356.508H895.2V374.678H913.366V356.508Z" fill="white"/>
<path d="M853.749 420.813H835.574V438.977H853.749V420.813Z" fill="white"/>
<path d="M883.564 420.813H865.389V438.977H883.564V420.813Z" fill="white"/>
<path d="M913.366 420.813H895.2V438.977H913.366V420.813Z" fill="white"/>
<path d="M943.181 420.813H925.011V438.977H943.181V420.813Z" fill="white"/>
<path d="M853.749 451.479H835.574V469.641H853.749V451.479Z" fill="white"/>
<path d="M883.564 451.479H865.389V469.641H883.564V451.479Z" fill="white"/>
<path d="M913.366 451.479H895.2V469.641H913.366V451.479Z" fill="white"/>
<path d="M943.181 451.479H925.011V469.641H943.181V451.479Z" fill="white"/>
<path d="M853.749 484.122H835.574V502.289H853.749V484.122Z" fill="white"/>
<path d="M884.692 484.122H866.517V502.289H884.692V484.122Z" fill="white"/>
<path d="M915.638 484.122H897.464V502.289H915.638V484.122Z" fill="white"/>
<path d="M946.58 484.122H928.406V502.289H946.58V484.122Z" fill="white"/>
<path d="M977.527 484.122H959.353V502.289H977.527V484.122Z" fill="white"/>
<path d="M853.749 511.945H835.574V530.115H853.749V511.945Z" fill="white"/>
<path d="M884.692 511.945H866.517V530.115H884.692V511.945Z" fill="white"/>
<path d="M915.638 511.945H897.464V530.115H915.638V511.945Z" fill="white"/>
<path d="M946.58 511.945H928.406V530.115H946.58V511.945Z" fill="white"/>
<path d="M977.527 511.945H959.353V530.115H977.527V511.945Z" fill="white"/>
<path d="M853.749 539.766H835.574V557.936H853.749V539.766Z" fill="white"/>
<path d="M884.692 539.766H866.517V557.936H884.692V539.766Z" fill="white"/>
<path d="M915.638 539.766H897.464V557.936H915.638V539.766Z" fill="white"/>
<path d="M946.58 539.766H928.406V557.936H946.58V539.766Z" fill="white"/>
<path d="M977.527 539.766H959.353V557.936H977.527V539.766Z" fill="white"/>
<path d="M853.749 567.583H835.574V585.758H853.749V567.583Z" fill="white"/>
<path d="M884.692 567.583H866.517V585.758H884.692V567.583Z" fill="white"/>
<path d="M915.638 567.583H897.464V585.758H915.638V567.583Z" fill="white"/>
<path d="M946.58 567.583H928.406V585.758H946.58V567.583Z" fill="white"/>
<path d="M977.527 567.583H959.353V585.758H977.527V567.583Z" fill="white"/>
<path d="M853.749 595.411H835.574V613.579H853.749V595.411Z" fill="white"/>
<path d="M884.692 595.411H866.517V613.579H884.692V595.411Z" fill="white"/>
<path d="M915.638 595.411H897.464V613.579H915.638V595.411Z" fill="white"/>
<path d="M946.58 595.411H928.406V613.579H946.58V595.411Z" fill="white"/>
<path d="M977.527 595.411H959.353V613.579H977.527V595.411Z" fill="white"/>
<path d="M853.749 623.234H835.574V641.404H853.749V623.234Z" fill="white"/>
<path d="M884.692 623.234H866.517V641.404H884.692V623.234Z" fill="white"/>
<path d="M915.638 623.234H897.464V641.404H915.638V623.234Z" fill="white"/>
<path d="M946.58 623.234H928.406V641.404H946.58V623.234Z" fill="white"/>
<path d="M977.527 623.234H959.353V641.404H977.527V623.234Z" fill="white"/>
<path d="M853.749 651.056H835.574V669.226H853.749V651.056Z" fill="white"/>
<path d="M884.692 651.056H866.517V669.226H884.692V651.056Z" fill="white"/>
<path d="M915.638 651.056H897.464V669.226H915.638V651.056Z" fill="white"/>
<path d="M946.58 651.056H928.406V669.226H946.58V651.056Z" fill="white"/>
<path d="M977.527 651.056H959.353V669.226H977.527V651.056Z" fill="white"/>
<path d="M853.749 678.881H835.574V697.047H853.749V678.881Z" fill="white"/>
<path d="M884.692 678.881H866.517V697.047H884.692V678.881Z" fill="white"/>
<path d="M915.638 678.881H897.464V697.047H915.638V678.881Z" fill="white"/>
<path d="M946.58 678.881H928.406V697.047H946.58V678.881Z" fill="white"/>
<path d="M977.527 678.881H959.353V697.047H977.527V678.881Z" fill="white"/>
<path d="M853.749 706.694H835.574V724.875H853.749V706.694Z" fill="white"/>
<path d="M884.692 706.694H866.517V724.875H884.692V706.694Z" fill="white"/>
<path d="M915.638 706.694H897.464V724.875H915.638V706.694Z" fill="white"/>
<path d="M946.58 706.694H928.406V724.875H946.58V706.694Z" fill="white"/>
<path d="M977.527 706.694H959.353V724.875H977.527V706.694Z" fill="white"/>
<path d="M853.749 734.528H835.574V752.69H853.749V734.528Z" fill="white"/>
<path d="M884.692 734.528H866.517V752.69H884.692V734.528Z" fill="white"/>
<path d="M915.638 734.528H897.464V752.69H915.638V734.528Z" fill="white"/>
<path d="M946.58 734.528H928.406V752.69H946.58V734.528Z" fill="white"/>
<path d="M977.527 734.528H959.353V752.69H977.527V734.528Z" fill="white"/>
<path d="M853.749 762.343H835.574V780.511H853.749V762.343Z" fill="white"/>
<path d="M884.692 762.343H866.517V780.511H884.692V762.343Z" fill="white"/>
<path d="M915.638 762.343H897.464V780.511H915.638V762.343Z" fill="white"/>
<path d="M946.58 762.343H928.406V780.511H946.58V762.343Z" fill="white"/>
<path d="M977.527 762.343H959.353V780.511H977.527V762.343Z" fill="white"/>
<path d="M853.749 790.457H835.574V808.623H853.749V790.457Z" fill="white"/>
<path d="M884.692 790.457H866.517V808.623H884.692V790.457Z" fill="white"/>
<path d="M915.638 790.457H897.464V808.623H915.638V790.457Z" fill="white"/>
<path d="M946.58 790.457H928.406V808.623H946.58V790.457Z" fill="white"/>
<path d="M977.527 790.457H959.353V808.623H977.527V790.457Z" fill="white"/>
<path d="M853.749 818.566H835.574V836.734H853.749V818.566Z" fill="white"/>
<path d="M884.692 818.566H866.517V836.734H884.692V818.566Z" fill="white"/>
<path d="M915.638 818.566H897.464V836.734H915.638V818.566Z" fill="white"/>
<path d="M946.58 818.566H928.406V836.734H946.58V818.566Z" fill="white"/>
<path d="M977.527 818.566H959.353V836.734H977.527V818.566Z" fill="white"/>
<path d="M853.749 846.677H835.574V864.849H853.749V846.677Z" fill="white"/>
<path d="M884.692 846.677H866.517V864.849H884.692V846.677Z" fill="white"/>
<path d="M915.638 846.677H897.464V864.849H915.638V846.677Z" fill="white"/>
<path d="M946.58 846.677H928.406V864.849H946.58V846.677Z" fill="white"/>
<path d="M977.527 846.677H959.353V864.849H977.527V846.677Z" fill="white"/>
<path d="M853.749 874.792H835.574V892.958H853.749V874.792Z" fill="white"/>
<path d="M884.692 874.792H866.517V892.958H884.692V874.792Z" fill="white"/>
<path d="M915.638 874.792H897.464V892.958H915.638V874.792Z" fill="white"/>
<path d="M946.58 874.792H928.406V892.958H946.58V874.792Z" fill="white"/>
<path d="M977.527 874.792H959.353V892.958H977.527V874.792Z" fill="white"/>
<path d="M853.749 902.904H835.574V921.072H853.749V902.904Z" fill="white"/>
<path d="M884.692 902.904H866.517V921.072H884.692V902.904Z" fill="white"/>
<path d="M915.638 902.904H897.464V921.072H915.638V902.904Z" fill="white"/>
<path d="M946.58 902.904H928.406V921.072H946.58V902.904Z" fill="white"/>
<path d="M977.527 902.904H959.353V921.072H977.527V902.904Z" fill="white"/>
<path d="M853.749 931.015H835.574V949.179H853.749V931.015Z" fill="white"/>
<path d="M884.692 931.015H866.517V949.179H884.692V931.015Z" fill="white"/>
<path d="M915.638 931.015H897.464V949.179H915.638V931.015Z" fill="white"/>
<path d="M946.58 931.015H928.406V949.179H946.58V931.015Z" fill="white"/>
<path d="M977.527 931.015H959.353V949.179H977.527V931.015Z" fill="white"/>
<path d="M1743.15 355.885L1648.95 379.811V262.959L1743.15 300.16V355.885Z" fill="#555F63"/>
<path d="M1662.94 299.183H1654.85V307.27H1662.94V299.183Z" fill="white"/>
<path d="M1677.8 299.183H1669.71V307.27H1677.8V299.183Z" fill="white"/>
<path d="M1692.66 299.183H1684.57V307.27H1692.66V299.183Z" fill="white"/>
<path d="M1707.52 299.183H1699.43V307.27H1707.52V299.183Z" fill="white"/>
<path d="M1722.37 299.183H1714.28V307.27H1722.37V299.183Z" fill="white"/>
<path d="M1737.24 299.183H1729.15V307.27H1737.24V299.183Z" fill="white"/>
<path d="M1662.94 314.842H1654.85V322.934H1662.94V314.842Z" fill="white"/>
<path d="M1677.8 314.842H1669.71V322.934H1677.8V314.842Z" fill="white"/>
<path d="M1692.66 314.842H1684.57V322.934H1692.66V314.842Z" fill="white"/>
<path d="M1707.52 314.842H1699.43V322.934H1707.52V314.842Z" fill="white"/>
<path d="M1722.37 314.842H1714.28V322.934H1722.37V314.842Z" fill="white"/>
<path d="M1737.24 314.842H1729.15V322.934H1737.24V314.842Z" fill="white"/>
<path d="M1662.94 330.504H1654.85V338.605H1662.94V330.504Z" fill="white"/>
<path d="M1677.8 330.504H1669.71V338.605H1677.8V330.504Z" fill="white"/>
<path d="M1692.66 330.504H1684.57V338.605H1692.66V330.504Z" fill="white"/>
<path d="M1707.52 330.504H1699.43V338.605H1707.52V330.504Z" fill="white"/>
<path d="M1722.37 330.504H1714.28V338.605H1722.37V330.504Z" fill="white"/>
<path d="M1737.24 330.504H1729.15V338.605H1737.24V330.504Z" fill="white"/>
<path d="M1662.94 346.178H1654.85V354.266H1662.94V346.178Z" fill="white"/>
<path d="M1677.8 346.178H1669.71V354.266H1677.8V346.178Z" fill="white"/>
<path d="M1692.66 346.178H1684.57V354.266H1692.66V346.178Z" fill="white"/>
<path d="M1707.52 346.178H1699.43V354.266H1707.52V346.178Z" fill="white"/>
<path d="M1722.37 346.178H1714.28V354.266H1722.37V346.178Z" fill="white"/>
<path d="M1737.24 346.178H1729.15V354.266H1737.24V346.178Z" fill="white"/>
<path d="M1777.09 1051.01H1615V463.364L1777.09 433.732V1051.01Z" fill="#555F63"/>
<path d="M1759.4 446.396L1632.7 466.409V378.77L1759.4 344.13V446.396Z" fill="#555F63"/>
<path d="M1639.33 475.255H1625.98V488.609H1639.33V475.255Z" fill="white"/>
<path d="M1662.82 475.255H1649.48V488.609H1662.82V475.255Z" fill="white"/>
<path d="M1690.98 475.255H1677.63V488.609H1690.98V475.255Z" fill="white"/>
<path d="M1714.47 475.255H1701.12V488.609H1714.47V475.255Z" fill="white"/>
<path d="M1742.61 475.255H1729.25V488.609H1742.61V475.255Z" fill="white"/>
<path d="M1766.11 475.255H1752.76V488.609H1766.11V475.255Z" fill="white"/>
<path d="M1639.33 500.208H1625.98V513.555H1639.33V500.208Z" fill="white"/>
<path d="M1662.82 500.208H1649.48V513.555H1662.82V500.208Z" fill="white"/>
<path d="M1690.98 500.208H1677.63V513.555H1690.98V500.208Z" fill="white"/>
<path d="M1714.47 500.208H1701.12V513.555H1714.47V500.208Z" fill="white"/>
<path d="M1742.61 500.208H1729.25V513.555H1742.61V500.208Z" fill="white"/>
<path d="M1766.11 500.208H1752.76V513.555H1766.11V500.208Z" fill="white"/>
<path d="M1639.33 525.166H1625.98V538.509H1639.33V525.166Z" fill="white"/>
<path d="M1662.82 525.166H1649.48V538.509H1662.82V525.166Z" fill="white"/>
<path d="M1690.98 525.166H1677.63V538.509H1690.98V525.166Z" fill="white"/>
<path d="M1714.47 525.166H1701.12V538.509H1714.47V525.166Z" fill="white"/>
<path d="M1742.61 525.166H1729.25V538.509H1742.61V525.166Z" fill="white"/>
<path d="M1766.11 525.166H1752.76V538.509H1766.11V525.166Z" fill="white"/>
<path d="M1639.33 550.111H1625.98V563.458H1639.33V550.111Z" fill="white"/>
<path d="M1662.82 550.111H1649.48V563.458H1662.82V550.111Z" fill="white"/>
<path d="M1690.98 550.111H1677.63V563.458H1690.98V550.111Z" fill="white"/>
<path d="M1714.47 550.111H1701.12V563.458H1714.47V550.111Z" fill="white"/>
<path d="M1742.61 550.111H1729.25V563.458H1742.61V550.111Z" fill="white"/>
<path d="M1766.11 550.111H1752.76V563.458H1766.11V550.111Z" fill="white"/>
<path d="M1639.33 575.057H1625.98V588.398H1639.33V575.057Z" fill="white"/>
<path d="M1662.82 575.057H1649.48V588.398H1662.82V575.057Z" fill="white"/>
<path d="M1690.98 575.057H1677.63V588.398H1690.98V575.057Z" fill="white"/>
<path d="M1714.47 575.057H1701.12V588.398H1714.47V575.057Z" fill="white"/>
<path d="M1742.61 575.057H1729.25V588.398H1742.61V575.057Z" fill="white"/>
<path d="M1766.11 575.057H1752.76V588.398H1766.11V575.057Z" fill="white"/>
<path d="M1639.33 600.005H1625.98V613.36H1639.33V600.005Z" fill="white"/>
<path d="M1662.82 600.005H1649.48V613.36H1662.82V600.005Z" fill="white"/>
<path d="M1690.98 600.005H1677.63V613.36H1690.98V600.005Z" fill="white"/>
<path d="M1714.47 600.005H1701.12V613.36H1714.47V600.005Z" fill="white"/>
<path d="M1742.61 600.005H1729.25V613.36H1742.61V600.005Z" fill="white"/>
<path d="M1766.11 600.005H1752.76V613.36H1766.11V600.005Z" fill="white"/>
<path d="M1639.33 624.957H1625.98V638.306H1639.33V624.957Z" fill="white"/>
<path d="M1662.82 624.957H1649.48V638.306H1662.82V624.957Z" fill="white"/>
<path d="M1690.98 624.957H1677.63V638.306H1690.98V624.957Z" fill="white"/>
<path d="M1714.47 624.957H1701.12V638.306H1714.47V624.957Z" fill="white"/>
<path d="M1742.61 624.957H1729.25V638.306H1742.61V624.957Z" fill="white"/>
<path d="M1766.11 624.957H1752.76V638.306H1766.11V624.957Z" fill="white"/>
<path d="M1639.33 649.908H1625.98V663.253H1639.33V649.908Z" fill="white"/>
<path d="M1662.82 649.908H1649.48V663.253H1662.82V649.908Z" fill="white"/>
<path d="M1690.98 649.908H1677.63V663.253H1690.98V649.908Z" fill="white"/>
<path d="M1714.47 649.908H1701.12V663.253H1714.47V649.908Z" fill="white"/>
<path d="M1742.61 649.908H1729.25V663.253H1742.61V649.908Z" fill="white"/>
<path d="M1766.11 649.908H1752.76V663.253H1766.11V649.908Z" fill="white"/>
<path d="M1639.33 674.848H1625.98V688.201H1639.33V674.848Z" fill="white"/>
<path d="M1662.82 674.848H1649.48V688.201H1662.82V674.848Z" fill="white"/>
<path d="M1690.98 674.848H1677.63V688.201H1690.98V674.848Z" fill="white"/>
<path d="M1714.47 674.848H1701.12V688.201H1714.47V674.848Z" fill="white"/>
<path d="M1742.61 674.848H1729.25V688.201H1742.61V674.848Z" fill="white"/>
<path d="M1766.11 674.848H1752.76V688.201H1766.11V674.848Z" fill="white"/>
<path d="M1639.33 699.805H1625.98V713.148H1639.33V699.805Z" fill="white"/>
<path d="M1662.82 699.805H1649.48V713.148H1662.82V699.805Z" fill="white"/>
<path d="M1690.98 699.805H1677.63V713.148H1690.98V699.805Z" fill="white"/>
<path d="M1714.47 699.805H1701.12V713.148H1714.47V699.805Z" fill="white"/>
<path d="M1742.61 699.805H1729.25V713.148H1742.61V699.805Z" fill="white"/>
<path d="M1766.11 699.805H1752.76V713.148H1766.11V699.805Z" fill="white"/>
<path d="M1639.33 724.754H1625.98V738.097H1639.33V724.754Z" fill="white"/>
<path d="M1662.82 724.754H1649.48V738.097H1662.82V724.754Z" fill="white"/>
<path d="M1690.98 724.754H1677.63V738.097H1690.98V724.754Z" fill="white"/>
<path d="M1714.47 724.754H1701.12V738.097H1714.47V724.754Z" fill="white"/>
<path d="M1742.61 724.754H1729.25V738.097H1742.61V724.754Z" fill="white"/>
<path d="M1766.11 724.754H1752.76V738.097H1766.11V724.754Z" fill="white"/>
<path d="M1639.33 749.707H1625.98V763.048H1639.33V749.707Z" fill="white"/>
<path d="M1662.82 749.707H1649.48V763.048H1662.82V749.707Z" fill="white"/>
<path d="M1690.98 749.707H1677.63V763.048H1690.98V749.707Z" fill="white"/>
<path d="M1714.47 749.707H1701.12V763.048H1714.47V749.707Z" fill="white"/>
<path d="M1742.61 749.707H1729.25V763.048H1742.61V749.707Z" fill="white"/>
<path d="M1766.11 749.707H1752.76V763.048H1766.11V749.707Z" fill="white"/>
<path d="M1639.33 774.65H1625.98V787.995H1639.33V774.65Z" fill="white"/>
<path d="M1662.82 774.65H1649.48V787.995H1662.82V774.65Z" fill="white"/>
<path d="M1690.98 774.65H1677.63V787.995H1690.98V774.65Z" fill="white"/>
<path d="M1714.47 774.65H1701.12V787.995H1714.47V774.65Z" fill="white"/>
<path d="M1742.61 774.65H1729.25V787.995H1742.61V774.65Z" fill="white"/>
<path d="M1766.11 774.65H1752.76V787.995H1766.11V774.65Z" fill="white"/>
<path d="M1639.33 799.596H1625.98V812.95H1639.33V799.596Z" fill="white"/>
<path d="M1662.82 799.596H1649.48V812.95H1662.82V799.596Z" fill="white"/>
<path d="M1690.98 799.596H1677.63V812.95H1690.98V799.596Z" fill="white"/>
<path d="M1714.47 799.596H1701.12V812.95H1714.47V799.596Z" fill="white"/>
<path d="M1742.61 799.596H1729.25V812.95H1742.61V799.596Z" fill="white"/>
<path d="M1766.11 799.596H1752.76V812.95H1766.11V799.596Z" fill="white"/>
<path d="M1639.33 824.549H1625.98V837.896H1639.33V824.549Z" fill="white"/>
<path d="M1662.82 824.549H1649.48V837.896H1662.82V824.549Z" fill="white"/>
<path d="M1690.98 824.549H1677.63V837.896H1690.98V824.549Z" fill="white"/>
<path d="M1714.47 824.549H1701.12V837.896H1714.47V824.549Z" fill="white"/>
<path d="M1742.61 824.549H1729.25V837.896H1742.61V824.549Z" fill="white"/>
<path d="M1766.11 824.549H1752.76V837.896H1766.11V824.549Z" fill="white"/>
<path d="M1639.33 849.498H1625.98V862.845H1639.33V849.498Z" fill="white"/>
<path d="M1662.82 849.498H1649.48V862.845H1662.82V849.498Z" fill="white"/>
<path d="M1690.98 849.498H1677.63V862.845H1690.98V849.498Z" fill="white"/>
<path d="M1714.47 849.498H1701.12V862.845H1714.47V849.498Z" fill="white"/>
<path d="M1742.61 849.498H1729.25V862.845H1742.61V849.498Z" fill="white"/>
<path d="M1766.11 849.498H1752.76V862.845H1766.11V849.498Z" fill="white"/>
<path d="M1639.33 874.452H1625.98V887.799H1639.33V874.452Z" fill="white"/>
<path d="M1662.82 874.452H1649.48V887.799H1662.82V874.452Z" fill="white"/>
<path d="M1690.98 874.452H1677.63V887.799H1690.98V874.452Z" fill="white"/>
<path d="M1714.47 874.452H1701.12V887.799H1714.47V874.452Z" fill="white"/>
<path d="M1742.61 874.452H1729.25V887.799H1742.61V874.452Z" fill="white"/>
<path d="M1766.11 874.452H1752.76V887.799H1766.11V874.452Z" fill="white"/>
<path d="M1639.33 899.398H1625.98V912.745H1639.33V899.398Z" fill="white"/>
<path d="M1662.82 899.398H1649.48V912.745H1662.82V899.398Z" fill="white"/>
<path d="M1690.98 899.398H1677.63V912.745H1690.98V899.398Z" fill="white"/>
<path d="M1714.47 899.398H1701.12V912.745H1714.47V899.398Z" fill="white"/>
<path d="M1742.61 899.398H1729.25V912.745H1742.61V899.398Z" fill="white"/>
<path d="M1766.11 899.398H1752.76V912.745H1766.11V899.398Z" fill="white"/>
<path d="M1639.33 924.347H1625.98V937.7H1639.33V924.347Z" fill="white"/>
<path d="M1662.82 924.347H1649.48V937.7H1662.82V924.347Z" fill="white"/>
<path d="M1690.98 924.347H1677.63V937.7H1690.98V924.347Z" fill="white"/>
<path d="M1714.47 924.347H1701.12V937.7H1714.47V924.347Z" fill="white"/>
<path d="M1742.61 924.347H1729.25V937.7H1742.61V924.347Z" fill="white"/>
<path d="M1766.11 924.347H1752.76V937.7H1766.11V924.347Z" fill="white"/>
<path d="M1639.33 949.3H1625.98V962.647H1639.33V949.3Z" fill="white"/>
<path d="M1662.82 949.3H1649.48V962.647H1662.82V949.3Z" fill="white"/>
<path d="M1690.98 949.3H1677.63V962.647H1690.98V949.3Z" fill="white"/>
<path d="M1714.47 949.3H1701.12V962.647H1714.47V949.3Z" fill="white"/>
<path d="M1742.61 949.3H1729.25V962.647H1742.61V949.3Z" fill="white"/>
<path d="M1766.11 949.3H1752.76V962.647H1766.11V949.3Z" fill="white"/>
<path d="M1639.33 974.249H1625.98V987.588H1639.33V974.249Z" fill="white"/>
<path d="M1662.82 974.249H1649.48V987.588H1662.82V974.249Z" fill="white"/>
<path d="M1690.98 974.249H1677.63V987.588H1690.98V974.249Z" fill="white"/>
<path d="M1714.47 974.249H1701.12V987.588H1714.47V974.249Z" fill="white"/>
<path d="M1742.61 974.249H1729.25V987.588H1742.61V974.249Z" fill="white"/>
<path d="M1766.11 974.249H1752.76V987.588H1766.11V974.249Z" fill="white"/>
<path d="M1639.33 999.202H1625.98V1012.54H1639.33V999.202Z" fill="white"/>
<path d="M1662.82 999.202H1649.48V1012.54H1662.82V999.202Z" fill="white"/>
<path d="M1690.98 999.202H1677.63V1012.54H1690.98V999.202Z" fill="white"/>
<path d="M1714.47 999.202H1701.12V1012.54H1714.47V999.202Z" fill="white"/>
<path d="M1742.61 999.202H1729.25V1012.54H1742.61V999.202Z" fill="white"/>
<path d="M1766.11 999.202H1752.76V1012.54H1766.11V999.202Z" fill="white"/>
<path d="M1639.33 1024.15H1625.98V1037.49H1639.33V1024.15Z" fill="white"/>
<path d="M1662.82 1024.15H1649.48V1037.49H1662.82V1024.15Z" fill="white"/>
<path d="M1690.98 1024.15H1677.63V1037.49H1690.98V1024.15Z" fill="white"/>
<path d="M1714.47 1024.15H1701.12V1037.49H1714.47V1024.15Z" fill="white"/>
<path d="M1742.61 1024.15H1729.25V1037.49H1742.61V1024.15Z" fill="white"/>
<path d="M1766.11 1024.15H1752.76V1037.49H1766.11V1024.15Z" fill="white"/>
<path d="M1653.42 385.488H1643V395.907H1653.42V385.488Z" fill="white"/>
<path d="M1672.55 385.488H1662.12V395.907H1672.55V385.488Z" fill="white"/>
<path d="M1691.68 385.488H1681.27V395.907H1691.68V385.488Z" fill="white"/>
<path d="M1710.83 385.488H1700.39V395.907H1710.83V385.488Z" fill="white"/>
<path d="M1729.96 385.488H1719.54V395.907H1729.96V385.488Z" fill="white"/>
<path d="M1749.09 385.488H1738.67V395.907H1749.09V385.488Z" fill="white"/>
<path d="M1653.42 405.064H1643V415.491H1653.42V405.064Z" fill="white"/>
<path d="M1672.55 405.064H1662.12V415.491H1672.55V405.064Z" fill="white"/>
<path d="M1691.68 405.064H1681.27V415.491H1691.68V405.064Z" fill="white"/>
<path d="M1710.83 405.064H1700.39V415.491H1710.83V405.064Z" fill="white"/>
<path d="M1729.96 405.064H1719.54V415.491H1729.96V405.064Z" fill="white"/>
<path d="M1749.09 405.064H1738.67V415.491H1749.09V405.064Z" fill="white"/>
<path d="M1653.42 424.652H1643V435.077H1653.42V424.652Z" fill="white"/>
<path d="M1672.55 424.652H1662.12V435.077H1672.55V424.652Z" fill="white"/>
<path d="M1691.68 424.652H1681.27V435.077H1691.68V424.652Z" fill="white"/>
<path d="M1710.83 424.652H1700.39V435.077H1710.83V424.652Z" fill="white"/>
<path d="M1729.96 424.652H1719.54V435.077H1729.96V424.652Z" fill="white"/>
<path d="M1749.09 424.652H1738.67V435.077H1749.09V424.652Z" fill="white"/>
<path d="M1917.98 577.299V537.401C1917.98 533.032 1913.14 529.7 1905.79 527.381V495.614C1905.79 477.016 1843.12 477.016 1843.12 495.614V527.381C1835.77 529.7 1830.93 533.031 1830.93 537.401V577.299C1822.43 579.008 1817 581.383 1817 584.406V1051.01H1931.91V584.406C1931.91 581.383 1926.47 579.008 1917.98 577.299Z" fill="#555F63"/>
<path d="M1829.43 591.265H1822.47V626.958H1829.43V591.265Z" fill="white"/>
<path d="M1843.14 591.265H1836.18V626.958H1843.14V591.265Z" fill="white"/>
<path d="M1856.85 591.265H1849.89V626.958H1856.85V591.265Z" fill="white"/>
<path d="M1870.56 591.265H1863.6V626.958H1870.56V591.265Z" fill="white"/>
<path d="M1884.28 591.265H1877.31V626.958H1884.28V591.265Z" fill="white"/>
<path d="M1897.99 591.265H1891.02V626.958H1897.99V591.265Z" fill="white"/>
<path d="M1911.7 591.265H1904.74V626.958H1911.7V591.265Z" fill="white"/>
<path d="M1925.41 591.265H1918.44V626.958H1925.41V591.265Z" fill="white"/>
<path d="M1843.15 534.688H1836.18V570.373H1843.15V534.688Z" fill="white"/>
<path d="M1856.85 534.688H1849.89V570.373H1856.85V534.688Z" fill="white"/>
<path d="M1870.57 534.688H1863.6V570.373H1870.57V534.688Z" fill="white"/>
<path d="M1884.28 534.688H1877.31V570.373H1884.28V534.688Z" fill="white"/>
<path d="M1897.99 534.688H1891.02V570.373H1897.99V534.688Z" fill="white"/>
<path d="M1911.7 534.688H1904.74V570.373H1911.7V534.688Z" fill="white"/>
<path d="M1856.85 490.287H1849.89V525.98H1856.85V490.287Z" fill="white"/>
<path d="M1870.57 490.287H1863.6V525.98H1870.57V490.287Z" fill="white"/>
<path d="M1884.28 490.287H1877.31V525.98H1884.28V490.287Z" fill="white"/>
<path d="M1897.99 490.287H1891.02V525.98H1897.99V490.287Z" fill="white"/>
<path d="M1829.43 633.486H1822.47V669.181H1829.43V633.486Z" fill="white"/>
<path d="M1843.14 633.486H1836.18V669.181H1843.14V633.486Z" fill="white"/>
<path d="M1856.85 633.486H1849.89V669.181H1856.85V633.486Z" fill="white"/>
<path d="M1870.56 633.486H1863.6V669.181H1870.56V633.486Z" fill="white"/>
<path d="M1884.28 633.486H1877.31V669.181H1884.28V633.486Z" fill="white"/>
<path d="M1897.99 633.486H1891.02V669.181H1897.99V633.486Z" fill="white"/>
<path d="M1911.7 633.486H1904.74V669.181H1911.7V633.486Z" fill="white"/>
<path d="M1925.41 633.486H1918.44V669.181H1925.41V633.486Z" fill="white"/>
<path d="M1829.43 675.713H1822.47V711.401H1829.43V675.713Z" fill="white"/>
<path d="M1843.14 675.713H1836.18V711.401H1843.14V675.713Z" fill="white"/>
<path d="M1856.85 675.713H1849.89V711.401H1856.85V675.713Z" fill="white"/>
<path d="M1870.56 675.713H1863.6V711.401H1870.56V675.713Z" fill="white"/>
<path d="M1884.28 675.713H1877.31V711.401H1884.28V675.713Z" fill="white"/>
<path d="M1897.99 675.713H1891.02V711.401H1897.99V675.713Z" fill="white"/>
<path d="M1911.7 675.713H1904.74V711.401H1911.7V675.713Z" fill="white"/>
<path d="M1925.41 675.713H1918.44V711.401H1925.41V675.713Z" fill="white"/>
<path d="M1829.43 717.928H1822.47V753.616H1829.43V717.928Z" fill="white"/>
<path d="M1843.14 717.928H1836.18V753.616H1843.14V717.928Z" fill="white"/>
<path d="M1856.85 717.928H1849.89V753.616H1856.85V717.928Z" fill="white"/>
<path d="M1870.56 717.928H1863.6V753.616H1870.56V717.928Z" fill="white"/>
<path d="M1884.28 717.928H1877.31V753.616H1884.28V717.928Z" fill="white"/>
<path d="M1897.99 717.928H1891.02V753.616H1897.99V717.928Z" fill="white"/>
<path d="M1911.7 717.928H1904.74V753.616H1911.7V717.928Z" fill="white"/>
<path d="M1925.41 717.928H1918.44V753.616H1925.41V717.928Z" fill="white"/>
<path d="M1829.43 760.149H1822.47V795.841H1829.43V760.149Z" fill="white"/>
<path d="M1843.14 760.149H1836.18V795.841H1843.14V760.149Z" fill="white"/>
<path d="M1856.85 760.149H1849.89V795.841H1856.85V760.149Z" fill="white"/>
<path d="M1870.56 760.149H1863.6V795.841H1870.56V760.149Z" fill="white"/>
<path d="M1884.28 760.149H1877.31V795.841H1884.28V760.149Z" fill="white"/>
<path d="M1897.99 760.149H1891.02V795.841H1897.99V760.149Z" fill="white"/>
<path d="M1911.7 760.149H1904.74V795.841H1911.7V760.149Z" fill="white"/>
<path d="M1925.41 760.149H1918.44V795.841H1925.41V760.149Z" fill="white"/>
<path d="M1829.43 802.363H1822.47V838.061H1829.43V802.363Z" fill="white"/>
<path d="M1843.14 802.363H1836.18V838.061H1843.14V802.363Z" fill="white"/>
<path d="M1856.85 802.363H1849.89V838.061H1856.85V802.363Z" fill="white"/>
<path d="M1870.56 802.363H1863.6V838.061H1870.56V802.363Z" fill="white"/>
<path d="M1884.28 802.363H1877.31V838.061H1884.28V802.363Z" fill="white"/>
<path d="M1897.99 802.363H1891.02V838.061H1897.99V802.363Z" fill="white"/>
<path d="M1911.7 802.363H1904.74V838.061H1911.7V802.363Z" fill="white"/>
<path d="M1925.41 802.363H1918.44V838.061H1925.41V802.363Z" fill="white"/>
<path d="M1829.43 844.59H1822.47V880.278H1829.43V844.59Z" fill="white"/>
<path d="M1843.14 844.59H1836.18V880.278H1843.14V844.59Z" fill="white"/>
<path d="M1856.85 844.59H1849.89V880.278H1856.85V844.59Z" fill="white"/>
<path d="M1870.56 844.59H1863.6V880.278H1870.56V844.59Z" fill="white"/>
<path d="M1884.28 844.59H1877.31V880.278H1884.28V844.59Z" fill="white"/>
<path d="M1897.99 844.59H1891.02V880.278H1897.99V844.59Z" fill="white"/>
<path d="M1911.7 844.59H1904.74V880.278H1911.7V844.59Z" fill="white"/>
<path d="M1925.41 844.59H1918.44V880.278H1925.41V844.59Z" fill="white"/>
<path d="M1829.43 886.812H1822.47V922.498H1829.43V886.812Z" fill="white"/>
<path d="M1843.14 886.812H1836.18V922.498H1843.14V886.812Z" fill="white"/>
<path d="M1856.85 886.812H1849.89V922.498H1856.85V886.812Z" fill="white"/>
<path d="M1870.56 886.812H1863.6V922.498H1870.56V886.812Z" fill="white"/>
<path d="M1884.28 886.812H1877.31V922.498H1884.28V886.812Z" fill="white"/>
<path d="M1897.99 886.812H1891.02V922.498H1897.99V886.812Z" fill="white"/>
<path d="M1911.7 886.812H1904.74V922.498H1911.7V886.812Z" fill="white"/>
<path d="M1925.41 886.812H1918.44V922.498H1925.41V886.812Z" fill="white"/>
<path d="M1829.43 929.032H1822.47V964.724H1829.43V929.032Z" fill="white"/>
<path d="M1843.14 929.032H1836.18V964.724H1843.14V929.032Z" fill="white"/>
<path d="M1856.85 929.032H1849.89V964.724H1856.85V929.032Z" fill="white"/>
<path d="M1870.56 929.032H1863.6V964.724H1870.56V929.032Z" fill="white"/>
<path d="M1884.28 929.032H1877.31V964.724H1884.28V929.032Z" fill="white"/>
<path d="M1897.99 929.032H1891.02V964.724H1897.99V929.032Z" fill="white"/>
<path d="M1911.7 929.032H1904.74V964.724H1911.7V929.032Z" fill="white"/>
<path d="M1925.41 929.032H1918.44V964.724H1925.41V929.032Z" fill="white"/>
<path d="M1829.43 971.249H1822.47V1006.95H1829.43V971.249Z" fill="white"/>
<path d="M1843.14 971.249H1836.18V1006.95H1843.14V971.249Z" fill="white"/>
<path d="M1856.85 971.249H1849.89V1006.95H1856.85V971.249Z" fill="white"/>
<path d="M1870.56 971.249H1863.6V1006.95H1870.56V971.249Z" fill="white"/>
<path d="M1884.28 971.249H1877.31V1006.95H1884.28V971.249Z" fill="white"/>
<path d="M1897.99 971.249H1891.02V1006.95H1897.99V971.249Z" fill="white"/>
<path d="M1911.7 971.249H1904.74V1006.95H1911.7V971.249Z" fill="white"/>
<path d="M1925.41 971.249H1918.44V1006.95H1925.41V971.249Z" fill="white"/>
<path d="M604.821 788.82V675.759L595.499 669.881V562.705L586.184 556.093V437.161L525.612 461.392V568.575L516.29 576.894V669.881L506.976 678.445V738.645L493 760.181V1038.18H618.796V802.764L604.821 788.82Z" fill="#555F63"/>
<path d="M543.229 477.247H535.077V549.464H543.229V477.247Z" fill="white"/>
<path d="M559.537 477.247H551.384V549.464H559.537V477.247Z" fill="white"/>
<path d="M575.843 477.247H567.69V549.464H575.843V477.247Z" fill="white"/>
<path d="M531.142 586.738H522.997V658.955H531.142V586.738Z" fill="white"/>
<path d="M550.364 586.738H542.219V658.955H550.364V586.738Z" fill="white"/>
<path d="M569.585 586.738H561.432V658.955H569.585V586.738Z" fill="white"/>
<path d="M588.807 586.738H580.646V658.955H588.807V586.738Z" fill="white"/>
<path d="M531.142 677.592H522.997V749.808H531.142V677.592Z" fill="white"/>
<path d="M550.364 677.592H542.219V749.808H550.364V677.592Z" fill="white"/>
<path d="M569.585 677.592H561.432V749.808H569.585V677.592Z" fill="white"/>
<path d="M588.807 677.592H580.646V749.808H588.807V677.592Z" fill="white"/>
<path d="M510.76 774.844H502.614V847.061H510.76V774.844Z" fill="white"/>
<path d="M528.235 774.844H520.082V847.061H528.235V774.844Z" fill="white"/>
<path d="M545.703 774.844H537.558V847.061H545.703V774.844Z" fill="white"/>
<path d="M563.178 774.844H555.025V847.061H563.178V774.844Z" fill="white"/>
<path d="M580.646 774.844H572.501V847.061H580.646V774.844Z" fill="white"/>
<path d="M598.121 774.844H589.968V847.061H598.121V774.844Z" fill="white"/>
<path d="M510.76 856.376H502.614V928.592H510.76V856.376Z" fill="white"/>
<path d="M528.235 856.376H520.082V928.592H528.235V856.376Z" fill="white"/>
<path d="M545.703 856.376H537.558V928.592H545.703V856.376Z" fill="white"/>
<path d="M563.178 856.376H555.025V928.592H563.178V856.376Z" fill="white"/>
<path d="M580.646 856.376H572.501V928.592H580.646V856.376Z" fill="white"/>
<path d="M598.121 856.376H589.968V928.592H598.121V856.376Z" fill="white"/>
<path d="M510.76 937.915H502.614V1010.13H510.76V937.915Z" fill="white"/>
<path d="M528.235 937.915H520.082V1010.13H528.235V937.915Z" fill="white"/>
<path d="M545.703 937.915H537.558V1010.13H545.703V937.915Z" fill="white"/>
<path d="M563.178 937.915H555.025V1010.13H563.178V937.915Z" fill="white"/>
<path d="M580.646 937.915H572.501V1010.13H580.646V937.915Z" fill="white"/>
<path d="M598.121 937.915H589.968V1010.13H598.121V937.915Z" fill="white"/>
<path d="M1332.56 500.903H1138V1051.01H1332.56V500.903Z" fill="#555F63"/>
<path d="M1312.71 416.94H1157.85V507.075H1312.71V416.94Z" fill="#555F63"/>
<path d="M1298.86 225.837H1171.7V420.95H1298.86V225.837Z" fill="#555F63"/>
<path d="M1239.69 0H1230.87V248.976H1239.69V0Z" fill="#555F63"/>
<path d="M1191.88 235.703H1179.04V248.541H1191.88V235.703Z" fill="white"/>
<path d="M1211.81 235.703H1198.96V248.541H1211.81V235.703Z" fill="white"/>
<path d="M1231.74 235.703H1218.9V248.541H1231.74V235.703Z" fill="white"/>
<path d="M1251.66 235.703H1238.83V248.541H1251.66V235.703Z" fill="white"/>
<path d="M1271.59 235.703H1258.76V248.541H1271.59V235.703Z" fill="white"/>
<path d="M1291.52 235.703H1278.68V404.33H1291.52V235.703Z" fill="white"/>
<path d="M1191.88 258.031H1179.04V270.869H1191.88V258.031Z" fill="white"/>
<path d="M1211.81 258.031H1198.96V270.869H1211.81V258.031Z" fill="white"/>
<path d="M1231.74 258.031H1218.9V270.869H1231.74V258.031Z" fill="white"/>
<path d="M1251.66 258.031H1238.83V270.869H1251.66V258.031Z" fill="white"/>
<path d="M1271.59 258.031H1258.76V270.869H1271.59V258.031Z" fill="white"/>
<path d="M1191.88 280.361H1179.04V293.189H1191.88V280.361Z" fill="white"/>
<path d="M1211.81 280.361H1198.96V293.189H1211.81V280.361Z" fill="white"/>
<path d="M1231.74 280.361H1218.9V293.189H1231.74V280.361Z" fill="white"/>
<path d="M1251.66 280.361H1238.83V293.189H1251.66V280.361Z" fill="white"/>
<path d="M1271.59 280.361H1258.76V293.189H1271.59V280.361Z" fill="white"/>
<path d="M1191.88 302.679H1179.04V315.517H1191.88V302.679Z" fill="white"/>
<path d="M1211.81 302.679H1198.96V315.517H1211.81V302.679Z" fill="white"/>
<path d="M1231.74 302.679H1218.9V315.517H1231.74V302.679Z" fill="white"/>
<path d="M1251.66 302.679H1238.83V315.517H1251.66V302.679Z" fill="white"/>
<path d="M1271.59 302.679H1258.76V315.517H1271.59V302.679Z" fill="white"/>
<path d="M1191.88 324.998H1179.04V337.836H1191.88V324.998Z" fill="white"/>
<path d="M1211.81 324.998H1198.96V337.836H1211.81V324.998Z" fill="white"/>
<path d="M1231.74 324.998H1218.9V337.836H1231.74V324.998Z" fill="white"/>
<path d="M1251.66 324.998H1238.83V337.836H1251.66V324.998Z" fill="white"/>
<path d="M1271.59 324.998H1258.76V337.836H1271.59V324.998Z" fill="white"/>
<path d="M1191.88 347.338H1179.04V360.166H1191.88V347.338Z" fill="white"/>
<path d="M1211.81 347.338H1198.96V360.166H1211.81V347.338Z" fill="white"/>
<path d="M1231.74 347.338H1218.9V360.166H1231.74V347.338Z" fill="white"/>
<path d="M1251.66 347.338H1238.83V360.166H1251.66V347.338Z" fill="white"/>
<path d="M1271.59 347.338H1258.76V360.166H1271.59V347.338Z" fill="white"/>
<path d="M1191.88 369.656H1179.04V382.485H1191.88V369.656Z" fill="white"/>
<path d="M1211.81 369.656H1198.96V382.485H1211.81V369.656Z" fill="white"/>
<path d="M1231.74 369.656H1218.9V382.485H1231.74V369.656Z" fill="white"/>
<path d="M1251.66 369.656H1238.83V382.485H1251.66V369.656Z" fill="white"/>
<path d="M1271.59 369.656H1258.76V382.485H1271.59V369.656Z" fill="white"/>
<path d="M1191.88 391.975H1179.04V404.813H1191.88V391.975Z" fill="white"/>
<path d="M1211.81 391.975H1198.96V404.813H1211.81V391.975Z" fill="white"/>
<path d="M1231.74 391.975H1218.9V404.813H1231.74V391.975Z" fill="white"/>
<path d="M1251.66 391.975H1238.83V404.813H1251.66V391.975Z" fill="white"/>
<path d="M1271.59 391.975H1258.76V404.813H1271.59V391.975Z" fill="white"/>
<path d="M1180.45 425.236H1164.23V441.452H1180.45V425.236Z" fill="white"/>
<path d="M1205.62 425.236H1189.41V441.452H1205.62V425.236Z" fill="white"/>
<path d="M1230.8 425.236H1214.59V441.452H1230.8V425.236Z" fill="white"/>
<path d="M1255.97 425.236H1239.76V441.452H1255.97V425.236Z" fill="white"/>
<path d="M1281.14 425.236H1264.94V441.452H1281.14V425.236Z" fill="white"/>
<path d="M1306.32 425.236H1290.1V496.291H1306.32V425.236Z" fill="white"/>
<path d="M1180.45 452.414H1164.23V468.63H1180.45V452.414Z" fill="white"/>
<path d="M1205.62 452.414H1189.41V468.63H1205.62V452.414Z" fill="white"/>
<path d="M1230.8 452.414H1214.59V468.63H1230.8V452.414Z" fill="white"/>
<path d="M1255.97 452.414H1239.76V468.63H1255.97V452.414Z" fill="white"/>
<path d="M1281.14 452.414H1264.94V468.63H1281.14V452.414Z" fill="white"/>
<path d="M1180.45 479.592H1164.23V495.808H1180.45V479.592Z" fill="white"/>
<path d="M1205.62 479.592H1189.41V495.808H1205.62V479.592Z" fill="white"/>
<path d="M1230.8 479.592H1214.59V495.808H1230.8V479.592Z" fill="white"/>
<path d="M1255.97 479.592H1239.76V495.808H1255.97V479.592Z" fill="white"/>
<path d="M1281.14 479.592H1264.94V495.808H1281.14V479.592Z" fill="white"/>
<path d="M1285.51 515.697H1150.1V524.081H1285.51V515.697Z" fill="white"/>
<path d="M1285.51 537.039H1150.1V545.423H1285.51V537.039Z" fill="white"/>
<path d="M1285.51 558.38H1150.1V566.754H1285.51V558.38Z" fill="white"/>
<path d="M1285.51 579.711H1150.1V588.095H1285.51V579.711Z" fill="white"/>
<path d="M1285.51 601.053H1150.1V609.437H1285.51V601.053Z" fill="white"/>
<path d="M1285.51 622.394H1150.1V630.778H1285.51V622.394Z" fill="white"/>
<path d="M1285.51 643.735H1150.1V652.11H1285.51V643.735Z" fill="white"/>
<path d="M1285.51 665.067H1150.1V673.451H1285.51V665.067Z" fill="white"/>
<path d="M1285.51 686.408H1150.1V694.792H1285.51V686.408Z" fill="white"/>
<path d="M1285.51 707.749H1150.1V716.134H1285.51V707.749Z" fill="white"/>
<path d="M1285.51 729.09H1150.1V737.465H1285.51V729.09Z" fill="white"/>
<path d="M1285.51 750.422H1150.1V758.806H1285.51V750.422Z" fill="white"/>
<path d="M1285.51 771.763H1150.1V780.148H1285.51V771.763Z" fill="white"/>
<path d="M1285.51 793.105H1150.1V801.479H1285.51V793.105Z" fill="white"/>
<path d="M1285.51 814.446H1150.1V822.83H1285.51V814.446Z" fill="white"/>
<path d="M1285.51 835.788H1150.1V844.162H1285.51V835.788Z" fill="white"/>
<path d="M1285.51 857.119H1150.1V865.503H1285.51V857.119Z" fill="white"/>
<path d="M1285.51 878.46H1150.1V886.844H1285.51V878.46Z" fill="white"/>
<path d="M1285.51 899.802H1150.1V908.186H1285.51V899.802Z" fill="white"/>
<path d="M1285.51 921.143H1150.1V929.518H1285.51V921.143Z" fill="white"/>
<path d="M1285.51 942.474H1150.1V950.859H1285.51V942.474Z" fill="white"/>
<path d="M1285.51 963.815H1150.1V972.199H1285.51V963.815Z" fill="white"/>
<path d="M1285.51 985.157H1150.1V993.541H1285.51V985.157Z" fill="white"/>
<path d="M1285.51 1006.49H1150.1V1014.87H1285.51V1006.49Z" fill="white"/>
<path d="M1285.51 1027.83H1150.1V1036.21H1285.51V1027.83Z" fill="white"/>
<path d="M1321.46 515.697H1301.07V1035H1321.46V515.697Z" fill="white"/>
<path d="M258.508 675.122H0V1038.18H258.508V675.122Z" fill="#555F63"/>
<path d="M241.444 682.88H17.0669V651.853C17.0669 636.935 241.444 636.935 241.444 651.853V682.88Z" fill="#555F63"/>
<path d="M220.759 648.752H37.749V626.186C37.749 611.268 220.759 602.804 220.759 617.719V648.752Z" fill="#555F63"/>
<path d="M142.057 691.41H10.9509V697.618H142.057V691.41Z" fill="white"/>
<path d="M142.057 706.155H10.9509V712.357H142.057V706.155Z" fill="white"/>
<path d="M142.057 720.893H10.9509V727.101H142.057V720.893Z" fill="white"/>
<path d="M142.057 735.635H10.9509V741.84H142.057V735.635Z" fill="white"/>
<path d="M142.057 750.372H10.9509V756.583H142.057V750.372Z" fill="white"/>
<path d="M142.057 765.111H10.9509V771.316H142.057V765.111Z" fill="white"/>
<path d="M142.057 779.849H10.9509V786.06H142.057V779.849Z" fill="white"/>
<path d="M142.057 794.594H10.9509V800.793H142.057V794.594Z" fill="white"/>
<path d="M142.057 809.326H10.9509V815.537H142.057V809.326Z" fill="white"/>
<path d="M142.057 824.071H10.9509V830.276H142.057V824.071Z" fill="white"/>
<path d="M142.057 838.809H10.9509V845.017H142.057V838.809Z" fill="white"/>
<path d="M142.057 853.547H10.9509V859.754H142.057V853.547Z" fill="white"/>
<path d="M142.057 868.286H10.9509V874.494H142.057V868.286Z" fill="white"/>
<path d="M142.057 883.026H10.9509V889.232H142.057V883.026Z" fill="white"/>
<path d="M142.057 897.765H10.9509V903.976H142.057V897.765Z" fill="white"/>
<path d="M142.057 912.51H10.9509V918.708H142.057V912.51Z" fill="white"/>
<path d="M142.057 927.242H10.9509V933.453H142.057V927.242Z" fill="white"/>
<path d="M142.057 941.98H10.9509V948.188H142.057V941.98Z" fill="white"/>
<path d="M142.057 956.719H10.9509V962.927H142.057V956.719Z" fill="white"/>
<path d="M142.057 971.463H10.9509V977.665H142.057V971.463Z" fill="white"/>
<path d="M142.057 986.202H10.9509V992.41H142.057V986.202Z" fill="white"/>
<path d="M142.057 1000.94H10.9509V1007.15H142.057V1000.94Z" fill="white"/>
<path d="M142.057 1015.68H10.9509V1021.89H142.057V1015.68Z" fill="white"/>
<path d="M170.008 691.41H157.182V750.148H170.008V691.41Z" fill="white"/>
<path d="M194.961 691.41H182.132V750.148H194.961V691.41Z" fill="white"/>
<path d="M219.896 691.41H207.067V750.148H219.896V691.41Z" fill="white"/>
<path d="M244.849 691.41H232.014V750.148H244.849V691.41Z" fill="white"/>
<path d="M170.008 759.35H157.182V818.082H170.008V759.35Z" fill="white"/>
<path d="M194.961 759.35H182.132V818.082H194.961V759.35Z" fill="white"/>
<path d="M219.896 759.35H207.067V818.082H219.896V759.35Z" fill="white"/>
<path d="M244.849 759.35H232.014V818.082H244.849V759.35Z" fill="white"/>
<path d="M170.008 827.278H157.182V886.019H170.008V827.278Z" fill="white"/>
<path d="M194.961 827.278H182.132V886.019H194.961V827.278Z" fill="white"/>
<path d="M219.896 827.278H207.067V886.019H219.896V827.278Z" fill="white"/>
<path d="M244.849 827.278H232.014V886.019H244.849V827.278Z" fill="white"/>
<path d="M170.008 895.209H157.182V953.947H170.008V895.209Z" fill="white"/>
<path d="M194.961 895.209H182.132V953.947H194.961V895.209Z" fill="white"/>
<path d="M219.896 895.209H207.067V953.947H219.896V895.209Z" fill="white"/>
<path d="M244.849 895.209H232.014V953.947H244.849V895.209Z" fill="white"/>
<path d="M170.008 963.154H157.182V1021.89H170.008V963.154Z" fill="white"/>
<path d="M194.961 963.154H182.132V1021.89H194.961V963.154Z" fill="white"/>
<path d="M219.896 963.154H207.067V1021.89H219.896V963.154Z" fill="white"/>
<path d="M244.849 963.154H232.014V1021.89H244.849V963.154Z" fill="white"/>
<path d="M2422 708.132H2166V1051.01H2422V708.132Z" fill="#555F63"/>
<path d="M2394.59 672.955H2193.4V711.749H2394.59V672.955Z" fill="#555F63"/>
<path d="M2368.22 642.448H2219.78V673.481H2368.22V642.448Z" fill="#555F63"/>
<path d="M2197.03 727.263H2188.75V756.743H2197.03V727.263Z" fill="white"/>
<path d="M2213.07 727.263H2204.79V756.743H2213.07V727.263Z" fill="white"/>
<path d="M2197.03 761.659H2188.75V791.139H2197.03V761.659Z" fill="white"/>
<path d="M2213.07 761.659H2204.79V791.139H2213.07V761.659Z" fill="white"/>
<path d="M2197.03 796.045H2188.75V825.522H2197.03V796.045Z" fill="white"/>
<path d="M2213.07 796.045H2204.79V825.522H2213.07V796.045Z" fill="white"/>
<path d="M2197.03 830.446H2188.75V859.917H2197.03V830.446Z" fill="white"/>
<path d="M2213.07 830.446H2204.79V859.917H2213.07V830.446Z" fill="white"/>
<path d="M2197.03 864.827H2188.75V894.3H2197.03V864.827Z" fill="white"/>
<path d="M2213.07 864.827H2204.79V894.3H2213.07V864.827Z" fill="white"/>
<path d="M2197.03 899.223H2188.75V928.702H2197.03V899.223Z" fill="white"/>
<path d="M2213.07 899.223H2204.79V928.702H2213.07V899.223Z" fill="white"/>
<path d="M2197.03 933.609H2188.75V963.089H2197.03V933.609Z" fill="white"/>
<path d="M2213.07 933.609H2204.79V963.089H2213.07V933.609Z" fill="white"/>
<path d="M2197.03 968.004H2188.75V997.487H2197.03V968.004Z" fill="white"/>
<path d="M2213.07 968.004H2204.79V997.487H2213.07V968.004Z" fill="white"/>
<path d="M2197.03 1002.39H2188.75V1031.86H2197.03V1002.39Z" fill="white"/>
<path d="M2213.07 1002.39H2204.79V1031.86H2213.07V1002.39Z" fill="white"/>
<path d="M2243.57 727.263H2235.29V756.743H2243.57V727.263Z" fill="white"/>
<path d="M2259.61 727.263H2251.33V756.743H2259.61V727.263Z" fill="white"/>
<path d="M2243.57 761.659H2235.29V791.139H2243.57V761.659Z" fill="white"/>
<path d="M2259.61 761.659H2251.33V791.139H2259.61V761.659Z" fill="white"/>
<path d="M2243.57 796.045H2235.29V825.522H2243.57V796.045Z" fill="white"/>
<path d="M2259.61 796.045H2251.33V825.522H2259.61V796.045Z" fill="white"/>
<path d="M2243.57 830.446H2235.29V859.917H2243.57V830.446Z" fill="white"/>
<path d="M2259.61 830.446H2251.33V859.917H2259.61V830.446Z" fill="white"/>
<path d="M2243.57 864.827H2235.29V894.3H2243.57V864.827Z" fill="white"/>
<path d="M2259.61 864.827H2251.33V894.3H2259.61V864.827Z" fill="white"/>
<path d="M2243.57 899.223H2235.29V928.702H2243.57V899.223Z" fill="white"/>
<path d="M2259.61 899.223H2251.33V928.702H2259.61V899.223Z" fill="white"/>
<path d="M2243.57 933.609H2235.29V963.089H2243.57V933.609Z" fill="white"/>
<path d="M2259.61 933.609H2251.33V963.089H2259.61V933.609Z" fill="white"/>
<path d="M2243.57 968.004H2235.29V997.487H2243.57V968.004Z" fill="white"/>
<path d="M2259.61 968.004H2251.33V997.487H2259.61V968.004Z" fill="white"/>
<path d="M2243.57 1002.39H2235.29V1031.86H2243.57V1002.39Z" fill="white"/>
<path d="M2259.61 1002.39H2251.33V1031.86H2259.61V1002.39Z" fill="white"/>
<path d="M2290.12 727.263H2281.84V756.743H2290.12V727.263Z" fill="white"/>
<path d="M2306.16 727.263H2297.88V756.743H2306.16V727.263Z" fill="white"/>
<path d="M2290.12 761.659H2281.84V791.139H2290.12V761.659Z" fill="white"/>
<path d="M2306.16 761.659H2297.88V791.139H2306.16V761.659Z" fill="white"/>
<path d="M2290.12 796.045H2281.84V825.522H2290.12V796.045Z" fill="white"/>
<path d="M2306.16 796.045H2297.88V825.522H2306.16V796.045Z" fill="white"/>
<path d="M2290.12 830.446H2281.84V859.917H2290.12V830.446Z" fill="white"/>
<path d="M2306.16 830.446H2297.88V859.917H2306.16V830.446Z" fill="white"/>
<path d="M2290.12 864.827H2281.84V894.3H2290.12V864.827Z" fill="white"/>
<path d="M2306.16 864.827H2297.88V894.3H2306.16V864.827Z" fill="white"/>
<path d="M2290.12 899.223H2281.84V928.702H2290.12V899.223Z" fill="white"/>
<path d="M2306.16 899.223H2297.88V928.702H2306.16V899.223Z" fill="white"/>
<path d="M2290.12 933.609H2281.84V963.089H2290.12V933.609Z" fill="white"/>
<path d="M2306.16 933.609H2297.88V963.089H2306.16V933.609Z" fill="white"/>
<path d="M2290.12 968.004H2281.84V997.487H2290.12V968.004Z" fill="white"/>
<path d="M2306.16 968.004H2297.88V997.487H2306.16V968.004Z" fill="white"/>
<path d="M2290.12 1002.39H2281.84V1031.86H2290.12V1002.39Z" fill="white"/>
<path d="M2306.16 1002.39H2297.88V1031.86H2306.16V1002.39Z" fill="white"/>
<path d="M2336.67 727.263H2328.38V756.743H2336.67V727.263Z" fill="white"/>
<path d="M2352.69 727.263H2344.42V756.743H2352.69V727.263Z" fill="white"/>
<path d="M2336.67 761.659H2328.38V791.139H2336.67V761.659Z" fill="white"/>
<path d="M2352.69 761.659H2344.42V791.139H2352.69V761.659Z" fill="white"/>
<path d="M2336.67 796.045H2328.38V825.522H2336.67V796.045Z" fill="white"/>
<path d="M2352.69 796.045H2344.42V825.522H2352.69V796.045Z" fill="white"/>
<path d="M2336.67 830.446H2328.38V859.917H2336.67V830.446Z" fill="white"/>
<path d="M2352.69 830.446H2344.42V859.917H2352.69V830.446Z" fill="white"/>
<path d="M2336.67 864.827H2328.38V894.3H2336.67V864.827Z" fill="white"/>
<path d="M2352.69 864.827H2344.42V894.3H2352.69V864.827Z" fill="white"/>
<path d="M2336.67 899.223H2328.38V928.702H2336.67V899.223Z" fill="white"/>
<path d="M2352.69 899.223H2344.42V928.702H2352.69V899.223Z" fill="white"/>
<path d="M2336.67 933.609H2328.38V963.089H2336.67V933.609Z" fill="white"/>
<path d="M2352.69 933.609H2344.42V963.089H2352.69V933.609Z" fill="white"/>
<path d="M2336.67 968.004H2328.38V997.487H2336.67V968.004Z" fill="white"/>
<path d="M2352.69 968.004H2344.42V997.487H2352.69V968.004Z" fill="white"/>
<path d="M2336.67 1002.39H2328.38V1031.86H2336.67V1002.39Z" fill="white"/>
<path d="M2352.69 1002.39H2344.42V1031.86H2352.69V1002.39Z" fill="white"/>
<path d="M2383.2 727.263H2374.93V756.743H2383.2V727.263Z" fill="white"/>
<path d="M2399.24 727.263H2390.97V756.743H2399.24V727.263Z" fill="white"/>
<path d="M2383.2 761.659H2374.93V791.139H2383.2V761.659Z" fill="white"/>
<path d="M2399.24 761.659H2390.97V791.139H2399.24V761.659Z" fill="white"/>
<path d="M2383.2 796.045H2374.93V825.522H2383.2V796.045Z" fill="white"/>
<path d="M2399.24 796.045H2390.97V825.522H2399.24V796.045Z" fill="white"/>
<path d="M2383.2 830.446H2374.93V859.917H2383.2V830.446Z" fill="white"/>
<path d="M2399.24 830.446H2390.97V859.917H2399.24V830.446Z" fill="white"/>
<path d="M2383.2 864.827H2374.93V894.3H2383.2V864.827Z" fill="white"/>
<path d="M2399.24 864.827H2390.97V894.3H2399.24V864.827Z" fill="white"/>
<path d="M2383.2 899.223H2374.93V928.702H2383.2V899.223Z" fill="white"/>
<path d="M2399.24 899.223H2390.97V928.702H2399.24V899.223Z" fill="white"/>
<path d="M2383.2 933.609H2374.93V963.089H2383.2V933.609Z" fill="white"/>
<path d="M2399.24 933.609H2390.97V963.089H2399.24V933.609Z" fill="white"/>
<path d="M2383.2 968.004H2374.93V997.487H2383.2V968.004Z" fill="white"/>
<path d="M2399.24 968.004H2390.97V997.487H2399.24V968.004Z" fill="white"/>
<path d="M2383.2 1002.39H2374.93V1031.86H2383.2V1002.39Z" fill="white"/>
<path d="M2399.24 1002.39H2390.97V1031.86H2399.24V1002.39Z" fill="white"/>
<path d="M2214.48 681.877H2202.85V702.821H2214.48V681.877Z" fill="white"/>
<path d="M2235.82 681.877H2224.18V702.821H2235.82V681.877Z" fill="white"/>
<path d="M2257.15 681.877H2245.51V702.821H2257.15V681.877Z" fill="white"/>
<path d="M2278.48 681.877H2266.84V702.821H2278.48V681.877Z" fill="white"/>
<path d="M2299.81 681.877H2288.18V702.821H2299.81V681.877Z" fill="white"/>
<path d="M2321.15 681.877H2309.51V702.821H2321.15V681.877Z" fill="white"/>
<path d="M2342.48 681.877H2330.84V702.821H2342.48V681.877Z" fill="white"/>
<path d="M2363.82 681.877H2352.18V702.821H2363.82V681.877Z" fill="white"/>
<path d="M2385.15 681.877H2373.51V702.821H2385.15V681.877Z" fill="white"/>
<path d="M2363.43 647.488H2224.56V648.65H2363.43V647.488Z" fill="white"/>
<path d="M2363.43 654.082H2224.56V655.249H2363.43V654.082Z" fill="white"/>
<path d="M2363.43 660.679H2224.56V661.843H2363.43V660.679Z" fill="white"/>
<path d="M2363.43 667.273H2224.56V668.434H2363.43V667.273Z" fill="white"/>
</svg>
