<svg width="1373" height="659" viewBox="0 0 1373 659" fill="none" xmlns="http://www.w3.org/2000/svg">
<g opacity="0.18">
<path d="M436.239 472.693H375.692V588.973H436.239V472.693Z" fill="#B5C3C2"/>
<path d="M426.346 548.445H385.585V597.31H426.346V548.445Z" fill="#B5C3C2"/>
<path d="M417.271 575.493H394.661V602.598H417.271V575.493Z" fill="#B5C3C2"/>
<path d="M413.67 588.67H398.261V607.14H403.82H409.328H413.67V588.67Z" fill="#B5C3C2"/>
<path d="M404.95 596.713H403.279V615.184H403.883H404.48H404.95V596.713Z" fill="#B5C3C2"/>
<path d="M408.652 603.098H406.981V621.569H407.584H408.182H408.652V603.098Z" fill="#B5C3C2"/>
<path d="M437.853 588.033H374.076V589.271H437.853V588.033Z" fill="#B5C3C2"/>
<path d="M427.834 596.713H384.098V597.905H427.834V596.713Z" fill="#B5C3C2"/>
<path d="M418.217 602.184H393.013V603.098H418.217V602.184Z" fill="#B5C3C2"/>
<path opacity="0.29" d="M391.227 590.206H389.333V595.327H391.227V590.206Z" fill="#B5C3C2"/>
<path opacity="0.29" d="M396.472 590.206H394.576V595.327H396.472V590.206Z" fill="#B5C3C2"/>
<path opacity="0.29" d="M401.716 590.206H399.82V595.327H401.716V590.206Z" fill="#B5C3C2"/>
<path opacity="0.29" d="M406.958 590.206H405.063V595.327H406.958V590.206Z" fill="#B5C3C2"/>
<path opacity="0.29" d="M412.201 590.206H410.305V595.327H412.201V590.206Z" fill="#B5C3C2"/>
<path opacity="0.29" d="M417.445 590.206H415.549V595.327H417.445V590.206Z" fill="#B5C3C2"/>
<path opacity="0.29" d="M422.688 590.206H420.792V595.327H422.688V590.206Z" fill="#B5C3C2"/>
<path d="M385.585 578.261H381.006V584.335H385.585V578.261Z" fill="#B5C3C2"/>
<path opacity="0.29" d="M394.652 578.261H390.074V584.335H394.652V578.261Z" fill="#B5C3C2"/>
<path d="M403.721 578.261H399.143V584.335H403.721V578.261Z" fill="#B5C3C2"/>
<path d="M412.788 578.261H408.21V584.335H412.788V578.261Z" fill="#B5C3C2"/>
<path d="M421.857 578.261H417.279V584.335H421.857V578.261Z" fill="#B5C3C2"/>
<path d="M430.925 578.261H426.346V584.335H430.925V578.261Z" fill="#B5C3C2"/>
<path d="M385.585 568.794H381.006V574.868H385.585V568.794Z" fill="#B5C3C2"/>
<path d="M394.652 568.794H390.074V574.868H394.652V568.794Z" fill="#B5C3C2"/>
<path d="M403.721 568.794H399.143V574.868H403.721V568.794Z" fill="#B5C3C2"/>
<path opacity="0.29" d="M412.788 568.794H408.21V574.868H412.788V568.794Z" fill="#B5C3C2"/>
<path d="M421.857 568.794H417.279V574.868H421.857V568.794Z" fill="#B5C3C2"/>
<path d="M430.925 568.794H426.346V574.868H430.925V568.794Z" fill="#B5C3C2"/>
<path d="M385.585 559.324H381.006V565.399H385.585V559.324Z" fill="#B5C3C2"/>
<path d="M394.652 559.324H390.074V565.399H394.652V559.324Z" fill="#B5C3C2"/>
<path d="M403.721 559.324H399.143V565.399H403.721V559.324Z" fill="#B5C3C2"/>
<path d="M412.788 559.324H408.21V565.399H412.788V559.324Z" fill="#B5C3C2"/>
<path opacity="0.29" d="M421.857 559.324H417.279V565.399H421.857V559.324Z" fill="#B5C3C2"/>
<path opacity="0.29" d="M430.925 559.324H426.346V565.399H430.925V559.324Z" fill="#B5C3C2"/>
<path opacity="0.29" d="M385.585 549.855H381.006V555.93H385.585V549.855Z" fill="#B5C3C2"/>
<path d="M394.652 549.855H390.074V555.93H394.652V549.855Z" fill="#B5C3C2"/>
<path d="M403.721 549.855H399.143V555.93H403.721V549.855Z" fill="#B5C3C2"/>
<path d="M412.788 549.855H408.21V555.93H412.788V549.855Z" fill="#B5C3C2"/>
<path d="M421.857 549.855H417.279V555.93H421.857V549.855Z" fill="#B5C3C2"/>
<path d="M430.925 549.855H426.346V555.93H430.925V549.855Z" fill="#B5C3C2"/>
<path d="M385.585 540.386H381.006V546.461H385.585V540.386Z" fill="#B5C3C2"/>
<path opacity="0.29" d="M394.652 540.386H390.074V546.461H394.652V540.386Z" fill="#B5C3C2"/>
<path d="M403.721 540.386H399.143V546.461H403.721V540.386Z" fill="#B5C3C2"/>
<path opacity="0.29" d="M412.788 540.386H408.21V546.461H412.788V540.386Z" fill="#B5C3C2"/>
<path d="M421.857 540.386H417.279V546.461H421.857V540.386Z" fill="#B5C3C2"/>
<path d="M430.925 540.386H426.346V546.461H430.925V540.386Z" fill="#B5C3C2"/>
<path d="M385.585 530.918H381.006V536.992H385.585V530.918Z" fill="#B5C3C2"/>
<path d="M394.652 530.918H390.074V536.992H394.652V530.918Z" fill="#B5C3C2"/>
<path d="M403.721 530.918H399.143V536.992H403.721V530.918Z" fill="#B5C3C2"/>
<path d="M412.788 530.918H408.21V536.992H412.788V530.918Z" fill="#B5C3C2"/>
<path d="M421.857 530.918H417.279V536.992H421.857V530.918Z" fill="#B5C3C2"/>
<path opacity="0.29" d="M430.925 530.918H426.346V536.992H430.925V530.918Z" fill="#B5C3C2"/>
<path d="M385.585 521.448H381.006V527.523H385.585V521.448Z" fill="#B5C3C2"/>
<path opacity="0.29" d="M394.652 521.448H390.074V527.523H394.652V521.448Z" fill="#B5C3C2"/>
<path opacity="0.29" d="M403.721 521.448H399.143V527.523H403.721V521.448Z" fill="#B5C3C2"/>
<path d="M412.788 521.448H408.21V527.523H412.788V521.448Z" fill="#B5C3C2"/>
<path d="M421.857 521.448H417.279V527.523H421.857V521.448Z" fill="#B5C3C2"/>
<path d="M430.925 521.448H426.346V527.523H430.925V521.448Z" fill="#B5C3C2"/>
<path d="M385.585 511.979H381.006V518.054H385.585V511.979Z" fill="#B5C3C2"/>
<path d="M394.652 511.979H390.074V518.054H394.652V511.979Z" fill="#B5C3C2"/>
<path d="M403.721 511.979H399.143V518.054H403.721V511.979Z" fill="#B5C3C2"/>
<path d="M412.788 511.979H408.21V518.054H412.788V511.979Z" fill="#B5C3C2"/>
<path opacity="0.29" d="M421.857 511.979H417.279V518.054H421.857V511.979Z" fill="#B5C3C2"/>
<path d="M430.925 511.979H426.346V518.054H430.925V511.979Z" fill="#B5C3C2"/>
<path d="M385.585 502.51H381.006V508.585H385.585V502.51Z" fill="#B5C3C2"/>
<path opacity="0.29" d="M394.652 502.51H390.074V508.585H394.652V502.51Z" fill="#B5C3C2"/>
<path d="M403.721 502.51H399.143V508.585H403.721V502.51Z" fill="#B5C3C2"/>
<path d="M412.788 502.51H408.21V508.585H412.788V502.51Z" fill="#B5C3C2"/>
<path d="M421.857 502.51H417.279V508.585H421.857V502.51Z" fill="#B5C3C2"/>
<path d="M430.925 502.51H426.346V508.585H430.925V502.51Z" fill="#B5C3C2"/>
<path d="M385.585 493.041H381.006V499.116H385.585V493.041Z" fill="#B5C3C2"/>
<path d="M394.652 493.041H390.074V499.116H394.652V493.041Z" fill="#B5C3C2"/>
<path d="M403.721 493.041H399.143V499.116H403.721V493.041Z" fill="#B5C3C2"/>
<path opacity="0.29" d="M412.788 493.041H408.21V499.116H412.788V493.041Z" fill="#B5C3C2"/>
<path d="M421.857 493.041H417.279V499.116H421.857V493.041Z" fill="#B5C3C2"/>
<path opacity="0.29" d="M430.925 493.041H426.346V499.116H430.925V493.041Z" fill="#B5C3C2"/>
<path opacity="0.29" d="M385.585 483.574H381.006V489.648H385.585V483.574Z" fill="#B5C3C2"/>
<path d="M394.652 483.574H390.074V489.648H394.652V483.574Z" fill="#B5C3C2"/>
<path opacity="0.29" d="M403.721 483.574H399.143V489.648H403.721V483.574Z" fill="#B5C3C2"/>
<path d="M412.788 483.574H408.21V489.648H412.788V483.574Z" fill="#B5C3C2"/>
<path d="M421.857 483.574H417.279V489.648H421.857V483.574Z" fill="#B5C3C2"/>
<path d="M430.925 483.574H426.346V489.648H430.925V483.574Z" fill="#B5C3C2"/>
<path d="M297.177 486.594H199.846V584.55H297.177V486.594Z" fill="#B5C3C2"/>
<path d="M299.944 583.465H197.081V586.233H299.944V583.465Z" fill="#B5C3C2"/>
<path d="M293.906 576.618H203.118V589.779H293.906V576.618Z" fill="#B5C3C2"/>
<path d="M246.02 580.783H210.068V595.162H246.02V580.783Z" fill="#B5C3C2"/>
<path d="M230.873 591.11H210.068V598.678H224.989L230.873 591.11Z" fill="#B5C3C2"/>
<path d="M220.471 588.102H218.453V604.961H220.471V588.102Z" fill="#B5C3C2"/>
<path d="M219.462 606.708C220.463 606.708 221.274 606.317 221.274 605.835C221.274 605.352 220.463 604.961 219.462 604.961C218.461 604.961 217.65 605.352 217.65 605.835C217.65 606.317 218.461 606.708 219.462 606.708Z" fill="#B5C3C2"/>
<path d="M1103.18 479.138H996.636L983.341 623.159L1103.18 611.157V479.138Z" fill="#B5C3C2"/>
<path d="M638.353 561.387V609.537H621.643V622.433H615.674V641.349H582.786V655.253H579.858V641.349H573.415V658.752H570.49V641.349H549.698V609.537H538.958V561.387H529.751V473.685H644.826V561.387H638.353Z" fill="#B5C3C2"/>
<path d="M1336.8 466.314H63.8182V480.922H1336.8V466.314Z" fill="#B5C3C2"/>
<path d="M813.134 469.895H756.765L778.729 524.355H813.134V469.895Z" fill="#95A9A7"/>
<path d="M1354.72 444.74H18.1458V467.774H1354.72V444.74Z" fill="#95A9A7"/>
<path d="M766.938 570.675V594.807H748.839V603.996H739.156V611.713H735.758V624.944H734.88V611.713H731.481V603.996H721.798V594.807H703.837V570.675H700.103V526.859H672.255V476.914H700.103H727.953H770.533V570.675H766.938Z" fill="#95A9A7"/>
<path d="M870.958 542.953H783.351V542.184H787.315V470.711H866.994V542.184H870.958V542.953Z" fill="#95A9A7"/>
<path d="M471.47 465.612H393.796V525.149H471.47V465.612Z" fill="#95A9A7"/>
<path d="M382.097 465.612H248.512V494.645H382.097V465.612Z" fill="#95A9A7"/>
<path d="M349.44 488.214H320.114V559.512H349.44V488.214Z" fill="#95A9A7"/>
<path d="M328.111 539.759H326.589V578.532H328.111V539.759Z" fill="#95A9A7"/>
<path d="M333.063 536.818H331.54V575.592H333.063V536.818Z" fill="#95A9A7"/>
<path d="M340.301 554.367H322.376V563.923H340.301V554.367Z" fill="#95A9A7"/>
<path d="M427.897 465.612H376.862V514.492H427.897V465.612Z" fill="#95A9A7"/>
<path d="M579.862 465.612H484.061V566.219H579.862V465.612Z" fill="#95A9A7"/>
<path d="M570.45 552.919H493.473V569.676H570.45V552.919Z" fill="#95A9A7"/>
<path d="M587.288 562.938H476.635V564.115H587.288V562.938Z" fill="#95A9A7"/>
<path d="M511.844 465.612H466.704V516.42H511.844V465.612Z" fill="#95A9A7"/>
<path d="M195.191 465.612H143.394V518.351H195.191V465.612Z" fill="#95A9A7"/>
<path d="M263.366 465.612H160.152V532.683H263.366V465.612Z" fill="#95A9A7"/>
<path d="M266.032 532.683H154.131V535.256H266.032V532.683Z" fill="#95A9A7"/>
<path d="M210.081 528.641H164.722V542.239H210.081V528.641Z" fill="#95A9A7"/>
<path d="M232.515 533.971H224.898V542.239H232.515V533.971Z" fill="#95A9A7"/>
<path d="M248.512 533.971H240.132V542.239H248.512V533.971Z" fill="#95A9A7"/>
<path d="M169.292 465.612H115.21V486.01H169.292V465.612Z" fill="#95A9A7"/>
<path d="M120.391 465.612H94.7822V494.645H120.391V465.612Z" fill="#95A9A7"/>
<path d="M107.587 465.612H63.8182V475.811H107.587V465.612Z" fill="#95A9A7"/>
<path d="M1109.77 465.612H570.451V488.214H1109.77V465.612Z" fill="#95A9A7"/>
<path d="M1073.19 547.654C1073.19 545.928 1070.28 544.528 1066.7 544.528C1063.18 544.528 1060.32 545.883 1060.23 547.57L1052.63 547.689C1052.25 542.583 1049.82 537.65 1045.52 533.114L1052.49 531.562C1053.41 532.746 1055.78 533.589 1058.56 533.589C1062.14 533.589 1065.04 532.189 1065.04 530.462C1065.04 528.736 1062.14 527.336 1058.56 527.336C1054.98 527.336 1052.08 528.736 1052.08 530.462C1052.08 530.726 1052.14 530.984 1052.27 531.228L1045.22 532.799C1041.33 528.788 1035.98 525.092 1029.3 521.869C1028.77 521.614 1028.23 521.363 1027.69 521.118L1034.07 517.834C1035.12 518.185 1036.39 518.391 1037.76 518.391C1041.34 518.391 1044.24 516.992 1044.24 515.264C1044.24 513.537 1041.34 512.137 1037.76 512.137C1034.18 512.137 1031.28 513.537 1031.28 515.264C1031.28 516.203 1032.14 517.046 1033.5 517.618L1027.17 520.879C1022.68 518.864 1017.78 517.123 1012.58 515.677L1051.65 480.925H1058.67V479.931H1062.1V477.957H883.55V479.931H886.986V480.925H894L933.079 515.677C927.039 517.354 921.419 519.427 916.359 521.869C915.832 522.123 915.313 522.381 914.802 522.642L909.84 520.398C910.784 519.856 911.353 519.154 911.353 518.39C911.353 516.663 908.452 515.262 904.871 515.262C901.291 515.262 898.391 516.662 898.391 518.39C898.391 520.116 901.292 521.516 904.871 521.516C906.607 521.516 908.182 521.187 909.347 520.65L914.309 522.894C907.094 526.636 901.585 530.955 897.973 535.63L891.633 534.504C891.817 534.215 891.916 533.908 891.916 533.589C891.916 531.862 889.015 530.462 885.434 530.462C881.854 530.462 878.954 531.862 878.954 533.589C878.954 535.315 881.855 536.715 885.434 536.715C888.099 536.715 890.388 535.939 891.383 534.83L897.724 535.957C894.599 540.119 892.969 544.555 892.969 549.113C892.969 549.472 892.98 549.832 893 550.19L885.277 550.312C885.003 548.706 882.217 547.444 878.82 547.444C875.241 547.444 872.34 548.844 872.34 550.571C872.34 552.297 875.241 553.697 878.82 553.697C882.339 553.697 885.202 552.344 885.296 550.656L893.022 550.535C893.405 555.641 895.839 560.573 900.134 565.11L894.151 566.442C893.12 565.375 890.876 564.635 888.274 564.635C884.695 564.635 881.794 566.035 881.794 567.761C881.794 569.488 884.695 570.888 888.274 570.888C891.853 570.888 894.755 569.488 894.755 567.761C894.755 567.414 894.635 567.078 894.418 566.765L900.437 565.425C904.326 569.435 909.676 573.131 916.359 576.355C916.887 576.61 917.422 576.86 917.961 577.106L913.233 579.54C912.094 579.06 910.606 578.769 908.975 578.769C905.396 578.769 902.493 580.169 902.493 581.896C902.493 583.622 905.395 585.022 908.975 585.022C912.555 585.022 915.455 583.622 915.455 581.896C915.455 581.081 914.808 580.339 913.748 579.781L918.484 577.343C926.519 580.949 935.837 583.672 945.928 585.409L943.314 588.994C942.747 588.916 942.149 588.872 941.531 588.872C937.952 588.872 935.048 590.272 935.048 591.999C935.048 593.725 937.95 595.125 941.531 595.125C945.111 595.125 948.011 593.725 948.011 591.999C948.011 590.693 946.35 589.574 943.994 589.106L946.608 585.529C954.929 586.92 963.763 587.644 972.829 587.644C973.575 587.644 974.32 587.638 975.063 587.629L975.36 592.03C972.219 592.248 969.803 593.55 969.803 595.125C969.803 596.852 972.704 598.252 976.283 598.252C979.862 598.252 982.764 596.852 982.764 595.125C982.764 593.399 979.862 591.999 976.283 591.999C976.214 591.999 976.145 592 976.078 592.002L975.783 587.62C985.198 587.456 994.327 586.507 1002.85 584.841L1005.57 588.039C1003.31 588.526 1001.73 589.622 1001.73 590.896C1001.73 592.622 1004.63 594.024 1008.21 594.024C1011.79 594.024 1014.69 592.624 1014.69 590.896C1014.69 589.169 1011.79 587.769 1008.21 587.769C1007.52 587.769 1006.86 587.82 1006.24 587.916L1003.52 584.709C1013.04 582.798 1021.78 579.985 1029.3 576.36C1029.83 576.105 1030.34 575.847 1030.86 575.586L1035.82 577.83C1034.87 578.372 1034.31 579.074 1034.31 579.838C1034.31 581.565 1037.21 582.964 1040.79 582.964C1044.36 582.964 1047.27 581.565 1047.27 579.838C1047.27 578.112 1044.36 576.712 1040.79 576.712C1039.05 576.712 1037.48 577.041 1036.31 577.578L1031.35 575.334C1038.56 571.592 1044.07 567.273 1047.68 562.598L1054.02 563.724C1053.84 564.013 1053.74 564.32 1053.74 564.639C1053.74 566.366 1056.64 567.766 1060.22 567.766C1063.8 567.766 1066.7 566.366 1066.7 564.639C1066.7 562.913 1063.8 561.513 1060.22 561.513C1057.56 561.513 1055.27 562.289 1054.27 563.398L1047.93 562.271C1051.06 558.109 1052.69 553.673 1052.69 549.116C1052.69 548.756 1052.68 548.396 1052.66 548.038L1060.25 547.92C1060.52 549.523 1063.31 550.784 1066.7 550.784C1070.28 550.781 1073.19 549.381 1073.19 547.654ZM1045.9 561.91L1024.87 558.174C1027 555.344 1028.16 552.293 1028.16 549.114C1028.16 548.882 1028.15 548.651 1028.14 548.42L1050.5 548.069C1050.52 548.417 1050.53 548.765 1050.53 549.114C1050.53 553.547 1048.94 557.862 1045.9 561.91ZM1027.08 549.114C1027.08 552.23 1025.94 555.22 1023.86 557.994L977.028 549.675C977.112 549.529 977.164 549.376 977.181 549.219L1027.06 548.437C1027.07 548.661 1027.08 548.888 1027.08 549.114ZM918.58 549.114C918.58 545.998 919.716 543.008 921.797 540.234L968.629 548.554C968.545 548.699 968.493 548.852 968.476 549.009L918.597 549.791C918.586 549.565 918.58 549.34 918.58 549.114ZM976.779 550.001L1023.61 558.321C1021.11 561.515 1017.36 564.413 1012.64 566.876L976.243 550.419C976.454 550.291 976.634 550.151 976.779 550.001ZM1012.15 567.129C1007 569.741 1000.76 571.844 993.769 573.259L974.811 550.986C975.153 550.902 975.469 550.797 975.751 550.673L1012.15 567.129ZM993.102 573.391C987.458 574.492 981.344 575.147 974.951 575.267L973.329 551.203C973.609 551.188 973.884 551.16 974.144 551.119L993.102 573.391ZM974.231 575.279C973.765 575.285 973.298 575.288 972.829 575.288C966.636 575.288 960.683 574.783 955.135 573.857L971.724 551.148C972.009 551.184 972.306 551.206 972.61 551.214L974.231 575.279ZM954.456 573.741C947.555 572.539 941.301 570.679 936.018 568.322L970.122 550.761C970.404 550.869 970.712 550.96 971.045 551.032L954.456 573.741ZM935.492 568.085C930.632 565.856 926.626 563.199 923.733 560.241L969.037 550.15C969.196 550.284 969.383 550.41 969.596 550.524L935.492 568.085ZM923.429 559.926C920.593 556.922 918.906 553.616 918.625 550.138L968.5 549.355C968.539 549.522 968.619 549.682 968.734 549.835L923.429 559.926ZM922.047 539.907C924.542 536.713 928.297 533.815 933.018 531.353L968.998 547.62L969.295 547.884C969.134 547.991 968.993 548.105 968.876 548.227L922.047 539.907ZM933.509 531.099C936.98 529.337 940.956 527.806 945.321 526.563L967.91 546.652L933.509 531.099ZM946.571 526.218C948.29 525.758 950.063 525.34 951.89 524.969L970.847 547.242C970.681 547.283 970.521 547.329 970.368 547.38L946.571 526.218ZM952.555 524.837C958.199 523.736 964.313 523.081 970.706 522.961L972.328 547.025C972.046 547.04 971.774 547.068 971.511 547.109L952.555 524.837ZM990.521 524.371L973.932 547.08C973.647 547.044 973.35 547.022 973.046 547.014L971.424 522.949C971.89 522.943 972.358 522.94 972.827 522.94C979.021 522.94 984.974 523.445 990.521 524.371ZM991.202 524.487C993.938 524.963 996.575 525.543 999.088 526.218L975.292 547.38C975.08 547.31 974.852 547.248 974.614 547.196L991.202 524.487ZM1000.34 526.563C1003.68 527.517 1006.8 528.638 1009.64 529.906L978.614 545.88L1000.34 526.563ZM1010.17 530.143C1015.03 532.372 1019.03 535.029 1021.92 537.987L976.62 548.078C976.543 548.011 976.456 547.946 976.363 547.885L977.259 547.088L1010.17 530.143ZM1022.23 538.302C1025.06 541.306 1026.75 544.612 1027.03 548.09L977.157 548.873C977.118 548.706 977.039 548.546 976.923 548.393L1022.23 538.302ZM946.055 525.759L935.363 516.251C937.83 515.595 940.367 515.004 942.963 514.483L951.479 524.487C949.616 524.864 947.807 525.29 946.055 525.759ZM943.63 514.352C951.915 512.732 960.791 511.812 969.945 511.652L970.672 522.443C964.146 522.564 957.906 523.232 952.145 524.356L943.63 514.352ZM970.664 511.64C971.384 511.631 972.106 511.625 972.829 511.625C981.646 511.625 990.238 512.329 998.33 513.681L990.879 523.878C985.219 522.933 979.146 522.419 972.827 522.419C972.346 522.419 971.866 522.422 971.39 522.428L970.664 511.64ZM999.01 513.796C1002.9 514.466 1006.67 515.286 1010.29 516.251L999.602 525.759C997.038 525.073 994.352 524.481 991.56 523.995L999.01 513.796ZM1029.77 574.621L1013.43 567.231C1018.24 564.719 1022.08 561.76 1024.62 558.501L1045.66 562.237C1042.14 566.781 1036.79 570.982 1029.77 574.621ZM1002.69 583.744L994.18 573.74C1001.31 572.295 1007.69 570.15 1012.94 567.484L1029.28 574.873C1028.78 575.125 1028.28 575.375 1027.77 575.622C1020.46 579.149 1011.96 581.885 1002.69 583.744ZM975.712 586.578L974.985 575.787C981.511 575.666 987.751 574.997 993.511 573.872L1002.03 583.876C993.742 585.496 984.866 586.418 975.712 586.578ZM947.326 584.546L954.776 574.348C960.437 575.294 966.51 575.808 972.829 575.808C973.31 575.808 973.788 575.805 974.266 575.799L974.993 586.587C974.273 586.596 973.551 586.602 972.829 586.602C964.012 586.603 955.419 585.899 947.326 584.546ZM919.962 576.589L935.279 568.702C940.67 571.109 947.053 573.007 954.096 574.234L946.646 584.433C936.837 582.741 927.775 580.094 919.962 576.589ZM902.399 564.992L922.753 560.458C925.704 563.478 929.792 566.191 934.755 568.464L919.439 576.351C918.916 576.112 918.399 575.869 917.886 575.622C911.386 572.487 906.181 568.893 902.399 564.992ZM895.181 550.505L917.545 550.154C917.828 553.703 919.552 557.078 922.447 560.143L902.094 564.677C897.92 560.266 895.554 555.47 895.181 550.505ZM899.753 536.318L920.783 540.054C918.66 542.884 917.5 545.935 917.5 549.114C917.5 549.346 917.506 549.577 917.518 549.808L895.158 550.159C895.139 549.811 895.128 549.463 895.128 549.114C895.128 544.681 896.714 540.366 899.753 536.318ZM915.884 523.607L932.231 530.997C927.412 533.509 923.58 536.468 921.034 539.727L900.001 535.991C903.514 531.447 908.87 527.246 915.884 523.607ZM934.11 516.593L944.805 526.104C940.339 527.375 936.271 528.94 932.721 530.743L916.377 523.354C916.873 523.102 917.375 522.852 917.886 522.604C922.798 520.236 928.25 518.224 934.11 516.593ZM1011.33 515.336C1007.6 514.345 1003.73 513.501 999.729 512.813L1002.05 509.64C1002.7 509.747 1003.4 509.805 1004.13 509.805C1007.71 509.805 1010.61 508.405 1010.61 506.679C1010.61 504.952 1007.71 503.552 1004.13 503.552C1000.55 503.552 997.646 504.952 997.646 506.679C997.646 507.932 999.173 509.012 1001.38 509.511L999.051 512.699C990.73 511.308 981.896 510.585 972.83 510.585C972.084 510.585 971.339 510.591 970.596 510.599L970.375 507.32C973.687 507.181 976.286 505.84 976.286 504.206C976.286 502.479 973.385 501.078 969.806 501.078C966.227 501.078 963.324 502.478 963.324 504.206C963.324 505.908 966.146 507.293 969.654 507.331L969.875 510.61C960.46 510.773 951.331 511.722 942.809 513.389L940.086 510.19C942.352 509.703 943.931 508.608 943.931 507.334C943.931 505.607 941.03 504.207 937.449 504.207C933.869 504.207 930.969 505.607 930.969 507.334C930.969 509.06 933.87 510.46 937.449 510.46C938.134 510.46 938.792 510.409 939.413 510.313L942.142 513.519C939.474 514.054 936.868 514.661 934.332 515.336L895.638 480.925H1050.02L1011.33 515.336ZM1025.69 521.639L1010.38 529.527C1007.47 528.231 1004.28 527.081 1000.85 526.105L1011.55 516.594C1016.59 517.997 1021.34 519.685 1025.69 521.639ZM1043.26 533.236L1022.9 537.77C1019.95 534.75 1015.86 532.037 1010.9 529.764L1026.22 521.877C1026.74 522.116 1027.26 522.359 1027.77 522.606C1034.27 525.741 1039.48 529.335 1043.26 533.236ZM1050.48 547.722L1028.11 548.072C1027.83 544.523 1026.11 541.148 1023.21 538.083L1043.56 533.55C1047.74 537.962 1050.1 542.758 1050.48 547.722Z" fill="#95A9A7"/>
<path d="M1165.63 465.612H1082.35V524.487H1165.63V465.612Z" fill="#95A9A7"/>
<path d="M1236.72 465.943H1153.44V501.595H1236.72V465.943Z" fill="#95A9A7"/>
<path d="M877.188 476.914H830.47V506.833H877.188V476.914Z" fill="#95A9A7"/>
<path d="M1182.89 465.612H1123.99V580.475H1182.89V465.612Z" fill="#95A9A7"/>
<path d="M1279.89 465.612H1202.19V532.683H1261.1L1279.89 465.612Z" fill="#95A9A7"/>
<path d="M1313.91 465.612H1245.86V480.923H1313.91V465.612Z" fill="#95A9A7"/>
<path d="M1169.69 573.258H1167.66V604.473H1169.69V573.258Z" fill="#95A9A7"/>
<path d="M1176.55 566.561H1174.52V597.775H1176.55V566.561Z" fill="#95A9A7"/>
<path d="M1163.47 562.252H1161.44V593.466H1163.47V562.252Z" fill="#95A9A7"/>
<path d="M1233.04 527.538H1205.24V538.104H1233.04V527.538Z" fill="#95A9A7"/>
<path d="M1230 535.932H1208.29V541.872H1230V535.932Z" fill="#95A9A7"/>
<path d="M1249.42 530.744H1244.09V535.011H1249.42V530.744Z" fill="#95A9A7"/>
<path d="M1258.92 530.744H1251.31V538.903H1258.92V530.744Z" fill="#95A9A7"/>
<path d="M900.854 444.74H830.235V554.566H900.854V444.74Z" fill="#658280"/>
<path d="M906.13 552.801H824.959V553.914H906.13V552.801Z" fill="#658280"/>
<path d="M903.934 537.377H827.155V538.486H903.934V537.377Z" fill="#658280"/>
<path d="M903.934 522.438H827.155V523.547H903.934V522.438Z" fill="#658280"/>
<path d="M903.934 507.499H827.155V508.608H903.934V507.499Z" fill="#658280"/>
<path d="M903.934 492.558H827.155V493.667H903.934V492.558Z" fill="#658280"/>
<path d="M903.934 477.617H827.155V478.726H903.934V477.617Z" fill="#658280"/>
<path d="M903.934 462.677H827.155V463.786H903.934V462.677Z" fill="#658280"/>
<path d="M908.815 553.914H822.275V556.949H908.815V553.914Z" fill="#658280"/>
<path opacity="0.29" d="M843.928 540.42H836.591V549.193H843.928V540.42Z" fill="#658280"/>
<path d="M860.341 540.42H853.003V549.193H860.341V540.42Z" fill="#658280"/>
<path d="M876.754 540.42H869.416V549.193H876.754V540.42Z" fill="#658280"/>
<path d="M893.165 540.42H885.827V549.193H893.165V540.42Z" fill="#658280"/>
<path d="M843.928 526.075H836.591V534.849H843.928V526.075Z" fill="#658280"/>
<path opacity="0.29" d="M860.341 526.075H853.003V534.849H860.341V526.075Z" fill="#658280"/>
<path d="M876.754 526.075H869.416V534.849H876.754V526.075Z" fill="#658280"/>
<path d="M893.165 526.075H885.827V534.849H893.165V526.075Z" fill="#658280"/>
<path d="M843.928 511.136H836.591V519.909H843.928V511.136Z" fill="#658280"/>
<path d="M860.341 511.136H853.003V519.909H860.341V511.136Z" fill="#658280"/>
<path d="M876.754 511.136H869.416V519.909H876.754V511.136Z" fill="#658280"/>
<path opacity="0.29" d="M893.165 511.136H885.827V519.909H893.165V511.136Z" fill="#658280"/>
<path d="M843.928 496.195H836.591V504.969H843.928V496.195Z" fill="#658280"/>
<path opacity="0.29" d="M860.341 496.195H853.003V504.969H860.341V496.195Z" fill="#658280"/>
<path opacity="0.29" d="M876.754 496.195H869.416V504.969H876.754V496.195Z" fill="#658280"/>
<path d="M893.165 496.195H885.827V504.969H893.165V496.195Z" fill="#658280"/>
<path opacity="0.29" d="M843.928 481.256H836.591V490.029H843.928V481.256Z" fill="#658280"/>
<path d="M860.341 481.256H853.003V490.029H860.341V481.256Z" fill="#658280"/>
<path d="M876.754 481.256H869.416V490.029H876.754V481.256Z" fill="#658280"/>
<path d="M893.165 481.256H885.827V490.029H893.165V481.256Z" fill="#658280"/>
<path d="M843.928 466.315H836.591V475.088H843.928V466.315Z" fill="#658280"/>
<path d="M860.341 466.315H853.003V475.088H860.341V466.315Z" fill="#658280"/>
<path opacity="0.29" d="M876.754 466.315H869.416V475.088H876.754V466.315Z" fill="#658280"/>
<path d="M893.165 466.315H885.827V475.088H893.165V466.315Z" fill="#658280"/>
<path d="M843.928 451.375H836.591V460.149H843.928V451.375Z" fill="#658280"/>
<path opacity="0.29" d="M860.341 451.375H853.003V460.149H860.341V451.375Z" fill="#658280"/>
<path d="M876.754 451.375H869.416V460.149H876.754V451.375Z" fill="#658280"/>
<path opacity="0.29" d="M893.165 451.375H885.827V460.149H893.165V451.375Z" fill="#658280"/>
<path d="M858.71 555.431H834.692V561.135H858.71V555.431Z" fill="#658280"/>
<path d="M860.34 560.323H833.062V561.297H860.34V560.323Z" fill="#658280"/>
<path d="M729.019 444.74H634.948V549.09L729.019 560.191V444.74Z" fill="#658280"/>
<path d="M639.08 444.74H630.814V550.926H639.08V444.74Z" fill="#658280"/>
<path d="M662.598 444.74H654.333V553.919H662.598V444.74Z" fill="#658280"/>
<path d="M686.116 444.74H677.85V557.026H686.116V444.74Z" fill="#658280"/>
<path d="M709.632 444.74H701.367V559.558H709.632V444.74Z" fill="#658280"/>
<path d="M733.151 444.74H724.885V562.252H733.151V444.74Z" fill="#658280"/>
<path opacity="0.29" d="M652.191 533.951H641.22V542.014H652.191V533.951Z" fill="#658280"/>
<path opacity="0.29" d="M675.709 533.951H664.738V542.014H675.709V533.951Z" fill="#658280"/>
<path d="M699.227 533.951H688.256V542.014H699.227V533.951Z" fill="#658280"/>
<path opacity="0.29" d="M722.745 533.951H711.774V542.014H722.745V533.951Z" fill="#658280"/>
<path d="M652.191 519.909H641.22V527.973H652.191V519.909Z" fill="#658280"/>
<path d="M675.709 519.909H664.738V527.973H675.709V519.909Z" fill="#658280"/>
<path opacity="0.29" d="M699.227 519.909H688.256V527.973H699.227V519.909Z" fill="#658280"/>
<path opacity="0.29" d="M722.745 519.909H711.774V527.973H722.745V519.909Z" fill="#658280"/>
<path opacity="0.29" d="M652.191 505.866H641.22V513.929H652.191V505.866Z" fill="#658280"/>
<path opacity="0.29" d="M675.709 505.866H664.738V513.929H675.709V505.866Z" fill="#658280"/>
<path opacity="0.29" d="M699.227 505.866H688.256V513.929H699.227V505.866Z" fill="#658280"/>
<path d="M722.745 505.866H711.774V513.929H722.745V505.866Z" fill="#658280"/>
<path opacity="0.29" d="M652.191 491.825H641.22V499.888H652.191V491.825Z" fill="#658280"/>
<path d="M675.709 491.825H664.738V499.888H675.709V491.825Z" fill="#658280"/>
<path opacity="0.29" d="M699.227 491.825H688.256V499.888H699.227V491.825Z" fill="#658280"/>
<path opacity="0.29" d="M722.745 491.825H711.774V499.888H722.745V491.825Z" fill="#658280"/>
<path opacity="0.29" d="M652.191 477.783H641.22V485.846H652.191V477.783Z" fill="#658280"/>
<path opacity="0.29" d="M675.709 477.783H664.738V485.846H675.709V477.783Z" fill="#658280"/>
<path d="M699.227 477.783H688.256V485.846H699.227V477.783Z" fill="#658280"/>
<path opacity="0.29" d="M722.745 477.783H711.774V485.846H722.745V477.783Z" fill="#658280"/>
<path d="M652.191 463.741H641.22V471.804H652.191V463.741Z" fill="#658280"/>
<path d="M675.709 463.741H664.738V471.804H675.709V463.741Z" fill="#658280"/>
<path opacity="0.29" d="M699.227 463.741H688.256V471.804H699.227V463.741Z" fill="#658280"/>
<path opacity="0.29" d="M722.745 463.741H711.774V471.804H722.745V463.741Z" fill="#658280"/>
<path opacity="0.29" d="M652.191 449.7H641.22V457.763H652.191V449.7Z" fill="#658280"/>
<path d="M675.709 449.7H664.738V457.763H675.709V449.7Z" fill="#658280"/>
<path opacity="0.29" d="M699.227 449.7H688.256V457.763H699.227V449.7Z" fill="#658280"/>
<path d="M722.745 449.7H711.774V457.763H722.745V449.7Z" fill="#658280"/>
<path d="M366.596 544.09V543.006H364.36V539.919H403.721V444.74H339.128V534.954V539.919V543.006H336.784V544.09H366.596Z" fill="#658280"/>
<path d="M531.962 444.74H476.635V500.857H531.962V444.74Z" fill="#658280"/>
<path d="M280.467 444.74H235.492V513.721H280.467V444.74Z" fill="#658280"/>
<path d="M320.568 444.74H271.558V499.348H320.568V444.74Z" fill="#658280"/>
<path d="M271.558 508.234H251.673V516.489H271.558V508.234Z" fill="#658280"/>
<path d="M327.166 498.229H274.921V500.248H327.166V498.229Z" fill="#658280"/>
<path d="M370.253 444.74H315.305V475.926H370.253V444.74Z" fill="#658280"/>
<path d="M182.41 444.74H137.714V501.294H182.41V444.74Z" fill="#658280"/>
<path d="M157.728 444.74H98.9263V473.111H157.728V444.74Z" fill="#658280"/>
<path d="M70.9582 444.74H34.1777V477.747H70.9582V444.74Z" fill="#658280"/>
<path d="M150.749 444.74H63.8182V455.079H150.749V444.74Z" fill="#658280"/>
<path d="M45.4333 444.74H0.878906V458.421H45.4333V444.74Z" fill="#658280"/>
<path d="M251.673 444.74H182.41V465.613H251.673V444.74Z" fill="#658280"/>
<path d="M493.474 444.74H385.585V453.731H493.474V444.74Z" fill="#658280"/>
<path d="M684.76 444.74H576.87V453.731H684.76V444.74Z" fill="#658280"/>
<path d="M489.273 480.128H448.266L430.925 449.235H489.273V480.128Z" fill="#658280"/>
<path d="M509.369 490.808H508.227V525.08H509.369V490.808Z" fill="#658280"/>
<path d="M515.462 493.26H513.94V513.482H515.462V493.26Z" fill="#658280"/>
<path d="M526.523 499.889H505.776V509.899H526.523V499.889Z" fill="#658280"/>
<path d="M529.751 509.78H502.273V510.676H529.751V509.78Z" fill="#658280"/>
<path d="M588.936 444.74H521.899V473.685H588.936V444.74Z" fill="#658280"/>
<path d="M619.185 449.699H576.116V505.548H619.185V449.699Z" fill="#658280"/>
<path d="M813.132 444.74H744.323V495.05H813.132V444.74Z" fill="#658280"/>
<path d="M801.198 444.74H722.745V463.278H801.198V444.74Z" fill="#658280"/>
<path d="M860.341 444.74H809.324V451.375H860.341V444.74Z" fill="#658280"/>
<path d="M970.847 444.74H887.901V463.278H970.847V444.74Z" fill="#658280"/>
<path d="M920.947 511.81H1024.16V444.739H920.947V511.81Z" fill="#658280"/>
<path d="M918.281 514.384H1030.18V511.81H918.281V514.384Z" fill="#658280"/>
<path d="M974.231 521.366H1019.59V507.768H974.231V521.366Z" fill="#658280"/>
<path d="M951.797 521.367H959.414V513.098H951.797V521.367Z" fill="#658280"/>
<path d="M935.799 521.367H944.178V513.098H935.799V521.367Z" fill="#658280"/>
<path d="M1095.11 542.695H1176.81V444.739H1095.11V542.695Z" fill="#658280"/>
<path d="M1092.79 544.379H1179.13V541.611H1092.79V544.379Z" fill="#658280"/>
<path d="M1097.86 547.924H1174.07V534.763H1097.86V547.924Z" fill="#658280"/>
<path d="M1138.06 553.308H1168.23V538.929H1138.06V553.308Z" fill="#658280"/>
<path d="M1150.77 549.256H1168.23V556.824H1155.71L1150.77 549.256Z" fill="#658280"/>
<path d="M1159.5 563.106H1161.19V546.247H1159.5V563.106Z" fill="#658280"/>
<path d="M1158.83 563.981C1158.83 563.499 1159.51 563.107 1160.35 563.107C1161.19 563.107 1161.87 563.499 1161.87 563.981C1161.87 564.464 1161.19 564.855 1160.35 564.855C1159.51 564.855 1158.83 564.464 1158.83 563.981Z" fill="#658280"/>
<path d="M1202.19 444.74H1165.63V485.179H1202.19V444.74Z" fill="#658280"/>
<path d="M1103.18 444.74H1061.48V504.895H1103.18V444.74Z" fill="#658280"/>
<path d="M1082.35 444.74H1023.61V476.914L1073.19 466.315L1082.35 444.74Z" fill="#658280"/>
<path d="M1279.89 444.74H1190.19V462.214H1279.89V444.74Z" fill="#658280"/>
<path d="M1298.86 444.74H1246.75V514.493H1298.86V444.74Z" fill="#658280"/>
<path d="M1373 444.74H1286.67V457.764H1373V444.74Z" fill="#658280"/>
<path d="M1301.25 513.481H1244.09V515.768H1301.25V513.481Z" fill="#658280"/>
<path d="M1291.87 511.554H1290.73V525.61H1291.87V511.554Z" fill="#658280"/>
<path d="M1284.26 512.555H1283.12V523.831H1284.26V512.555Z" fill="#658280"/>
<path d="M1318.16 488.214H1294.92V456.256H1328.06L1318.16 488.214Z" fill="#658280"/>
</g>
<path d="M436.239 144.854H375.692V385.858H436.239V144.854Z" fill="#B5C3C2"/>
<path d="M426.346 127.576H385.585V228.853H426.346V127.576Z" fill="#B5C3C2"/>
<path d="M417.271 116.615H394.661V172.792H417.271V116.615Z" fill="#B5C3C2"/>
<path d="M413.67 145.483H398.261V107.199H403.82H409.328H413.67V145.483Z" fill="#B5C3C2"/>
<path d="M404.95 128.811H403.279V90.5273H403.883H404.48H404.95V128.811Z" fill="#B5C3C2"/>
<path d="M408.652 115.577H406.981V77.293H407.584H408.182H408.652V115.577Z" fill="#B5C3C2"/>
<path d="M437.853 144.236H374.076V146.802H437.853V144.236Z" fill="#B5C3C2"/>
<path d="M427.834 126.341H384.098V128.812H427.834V126.341Z" fill="#B5C3C2"/>
<path d="M418.217 115.577H393.013V117.473H418.217V115.577Z" fill="#B5C3C2"/>
<path opacity="0.29" d="M391.227 131.685H389.333V142.298H391.227V131.685Z" fill="#B5C3C2"/>
<path opacity="0.29" d="M396.472 131.685H394.576V142.298H396.472V131.685Z" fill="#B5C3C2"/>
<path opacity="0.29" d="M401.716 131.685H399.82V142.298H401.716V131.685Z" fill="#B5C3C2"/>
<path opacity="0.29" d="M406.958 131.685H405.063V142.298H406.958V131.685Z" fill="#B5C3C2"/>
<path opacity="0.29" d="M412.201 131.685H410.305V142.298H412.201V131.685Z" fill="#B5C3C2"/>
<path opacity="0.29" d="M417.445 131.685H415.549V142.298H417.445V131.685Z" fill="#B5C3C2"/>
<path opacity="0.29" d="M422.688 131.685H420.792V142.298H422.688V131.685Z" fill="#B5C3C2"/>
<path d="M385.585 154.463H381.006V167.054H385.585V154.463Z" fill="#B5C3C2"/>
<path opacity="0.29" d="M394.652 154.463H390.074V167.054H394.652V154.463Z" fill="#B5C3C2"/>
<path d="M403.721 154.463H399.143V167.054H403.721V154.463Z" fill="#B5C3C2"/>
<path d="M412.788 154.463H408.21V167.054H412.788V154.463Z" fill="#B5C3C2"/>
<path d="M421.857 154.463H417.279V167.054H421.857V154.463Z" fill="#B5C3C2"/>
<path d="M430.925 154.463H426.346V167.054H430.925V154.463Z" fill="#B5C3C2"/>
<path d="M385.585 174.087H381.006V186.678H385.585V174.087Z" fill="#B5C3C2"/>
<path d="M394.652 174.087H390.074V186.678H394.652V174.087Z" fill="#B5C3C2"/>
<path d="M403.721 174.087H399.143V186.678H403.721V174.087Z" fill="#B5C3C2"/>
<path opacity="0.29" d="M412.788 174.087H408.21V186.678H412.788V174.087Z" fill="#B5C3C2"/>
<path d="M421.857 174.087H417.279V186.678H421.857V174.087Z" fill="#B5C3C2"/>
<path d="M430.925 174.087H426.346V186.678H430.925V174.087Z" fill="#B5C3C2"/>
<path d="M385.585 193.714H381.006V206.305H385.585V193.714Z" fill="#B5C3C2"/>
<path d="M394.652 193.714H390.074V206.305H394.652V193.714Z" fill="#B5C3C2"/>
<path d="M403.721 193.714H399.143V206.305H403.721V193.714Z" fill="#B5C3C2"/>
<path d="M412.788 193.714H408.21V206.305H412.788V193.714Z" fill="#B5C3C2"/>
<path opacity="0.29" d="M421.857 193.714H417.279V206.305H421.857V193.714Z" fill="#B5C3C2"/>
<path opacity="0.29" d="M430.925 193.714H426.346V206.305H430.925V193.714Z" fill="#B5C3C2"/>
<path opacity="0.29" d="M385.585 213.338H381.006V225.929H385.585V213.338Z" fill="#B5C3C2"/>
<path d="M394.652 213.338H390.074V225.929H394.652V213.338Z" fill="#B5C3C2"/>
<path d="M403.721 213.338H399.143V225.929H403.721V213.338Z" fill="#B5C3C2"/>
<path d="M412.788 213.338H408.21V225.929H412.788V213.338Z" fill="#B5C3C2"/>
<path d="M421.857 213.338H417.279V225.929H421.857V213.338Z" fill="#B5C3C2"/>
<path d="M430.925 213.338H426.346V225.929H430.925V213.338Z" fill="#B5C3C2"/>
<path d="M385.585 232.964H381.006V245.555H385.585V232.964Z" fill="#B5C3C2"/>
<path opacity="0.29" d="M394.652 232.964H390.074V245.555H394.652V232.964Z" fill="#B5C3C2"/>
<path d="M403.721 232.964H399.143V245.555H403.721V232.964Z" fill="#B5C3C2"/>
<path opacity="0.29" d="M412.788 232.964H408.21V245.555H412.788V232.964Z" fill="#B5C3C2"/>
<path d="M421.857 232.964H417.279V245.555H421.857V232.964Z" fill="#B5C3C2"/>
<path d="M430.925 232.964H426.346V245.555H430.925V232.964Z" fill="#B5C3C2"/>
<path d="M385.585 252.59H381.006V265.181H385.585V252.59Z" fill="#B5C3C2"/>
<path d="M394.652 252.59H390.074V265.181H394.652V252.59Z" fill="#B5C3C2"/>
<path d="M403.721 252.59H399.143V265.181H403.721V252.59Z" fill="#B5C3C2"/>
<path d="M412.788 252.59H408.21V265.181H412.788V252.59Z" fill="#B5C3C2"/>
<path d="M421.857 252.59H417.279V265.181H421.857V252.59Z" fill="#B5C3C2"/>
<path opacity="0.29" d="M430.925 252.59H426.346V265.181H430.925V252.59Z" fill="#B5C3C2"/>
<path d="M385.585 272.214H381.006V284.805H385.585V272.214Z" fill="#B5C3C2"/>
<path opacity="0.29" d="M394.652 272.214H390.074V284.805H394.652V272.214Z" fill="#B5C3C2"/>
<path opacity="0.29" d="M403.721 272.214H399.143V284.805H403.721V272.214Z" fill="#B5C3C2"/>
<path d="M412.788 272.214H408.21V284.805H412.788V272.214Z" fill="#B5C3C2"/>
<path d="M421.857 272.214H417.279V284.805H421.857V272.214Z" fill="#B5C3C2"/>
<path d="M430.925 272.214H426.346V284.805H430.925V272.214Z" fill="#B5C3C2"/>
<path d="M385.585 291.84H381.006V304.431H385.585V291.84Z" fill="#B5C3C2"/>
<path d="M394.652 291.84H390.074V304.431H394.652V291.84Z" fill="#B5C3C2"/>
<path d="M403.721 291.84H399.143V304.431H403.721V291.84Z" fill="#B5C3C2"/>
<path d="M412.788 291.84H408.21V304.431H412.788V291.84Z" fill="#B5C3C2"/>
<path opacity="0.29" d="M421.857 291.84H417.279V304.431H421.857V291.84Z" fill="#B5C3C2"/>
<path d="M430.925 291.84H426.346V304.431H430.925V291.84Z" fill="#B5C3C2"/>
<path d="M385.585 311.465H381.006V324.056H385.585V311.465Z" fill="#B5C3C2"/>
<path opacity="0.29" d="M394.652 311.465H390.074V324.056H394.652V311.465Z" fill="#B5C3C2"/>
<path d="M403.721 311.465H399.143V324.056H403.721V311.465Z" fill="#B5C3C2"/>
<path d="M412.788 311.465H408.21V324.056H412.788V311.465Z" fill="#B5C3C2"/>
<path d="M421.857 311.465H417.279V324.056H421.857V311.465Z" fill="#B5C3C2"/>
<path d="M430.925 311.465H426.346V324.056H430.925V311.465Z" fill="#B5C3C2"/>
<path d="M385.585 331.091H381.006V343.682H385.585V331.091Z" fill="#B5C3C2"/>
<path d="M394.652 331.091H390.074V343.682H394.652V331.091Z" fill="#B5C3C2"/>
<path d="M403.721 331.091H399.143V343.682H403.721V331.091Z" fill="#B5C3C2"/>
<path opacity="0.29" d="M412.788 331.091H408.21V343.682H412.788V331.091Z" fill="#B5C3C2"/>
<path d="M421.857 331.091H417.279V343.682H421.857V331.091Z" fill="#B5C3C2"/>
<path opacity="0.29" d="M430.925 331.091H426.346V343.682H430.925V331.091Z" fill="#B5C3C2"/>
<path opacity="0.29" d="M385.585 350.715H381.006V363.306H385.585V350.715Z" fill="#B5C3C2"/>
<path d="M394.652 350.715H390.074V363.306H394.652V350.715Z" fill="#B5C3C2"/>
<path opacity="0.29" d="M403.721 350.715H399.143V363.306H403.721V350.715Z" fill="#B5C3C2"/>
<path d="M412.788 350.715H408.21V363.306H412.788V350.715Z" fill="#B5C3C2"/>
<path d="M421.857 350.715H417.279V363.306H421.857V350.715Z" fill="#B5C3C2"/>
<path d="M430.925 350.715H426.346V363.306H430.925V350.715Z" fill="#B5C3C2"/>
<path d="M297.177 154.021H199.846V357.046H297.177V154.021Z" fill="#B5C3C2"/>
<path d="M299.944 150.529H197.081V156.268H299.944V150.529Z" fill="#B5C3C2"/>
<path d="M293.906 143.186H203.118V170.461H293.906V143.186Z" fill="#B5C3C2"/>
<path d="M246.02 132.025H210.068V161.826H246.02V132.025Z" fill="#B5C3C2"/>
<path d="M230.873 140.423H210.068V124.736H224.989L230.873 140.423Z" fill="#B5C3C2"/>
<path d="M220.471 111.715H218.453V146.658H220.471V111.715Z" fill="#B5C3C2"/>
<path d="M221.273 109.903C221.273 110.903 220.462 111.714 219.461 111.714C218.461 111.714 217.649 110.903 217.649 109.903C217.649 108.904 218.459 108.091 219.461 108.091C220.462 108.093 221.273 108.904 221.273 109.903Z" fill="#B5C3C2"/>
<path d="M1103.18 372.501H996.636L983.341 73.9995L1103.18 98.8755V372.501Z" fill="#B5C3C2"/>
<path d="M638.353 202.03V102.234H621.643V75.5026H615.674V36.2956H582.786V7.48241H579.858V36.2956H573.415V0.227051H570.49V36.2956H549.698V102.234H538.958V202.03H529.751V383.802H644.826V202.03H638.353Z" fill="#B5C3C2"/>
<path d="M1336.8 368.801H63.8182V399.077H1336.8V368.801Z" fill="#B5C3C2"/>
<path d="M813.134 391.658H756.765L778.729 278.78H813.134V391.658Z" fill="#95A9A7"/>
<path d="M1354.72 396.055H18.1458V443.794H1354.72V396.055Z" fill="#95A9A7"/>
<path d="M766.938 182.779V132.76H748.839V113.717H739.156V97.7197H735.758V70.2988H734.88V97.7197H731.481V113.717H721.798V132.76H703.837V182.779H700.103V273.59H672.255V377.111H700.103H727.953H770.533V182.779H766.938Z" fill="#95A9A7"/>
<path d="M870.958 240.236H783.351V241.829H787.315V389.966H866.994V241.829H870.958V240.236Z" fill="#95A9A7"/>
<path d="M471.47 277.135H393.796V400.535H471.47V277.135Z" fill="#95A9A7"/>
<path d="M382.097 340.357H248.512V400.533H382.097V340.357Z" fill="#95A9A7"/>
<path d="M349.44 205.913H320.114V353.688H349.44V205.913Z" fill="#95A9A7"/>
<path d="M328.111 166.494H326.589V246.856H328.111V166.494Z" fill="#95A9A7"/>
<path d="M333.063 172.587H331.54V252.95H333.063V172.587Z" fill="#95A9A7"/>
<path d="M340.301 196.773H322.376V216.577H340.301V196.773Z" fill="#95A9A7"/>
<path d="M427.897 299.225H376.862V400.533H427.897V299.225Z" fill="#95A9A7"/>
<path d="M579.862 192.014H484.061V400.533H579.862V192.014Z" fill="#95A9A7"/>
<path d="M570.45 184.847H493.473V219.577H570.45V184.847Z" fill="#95A9A7"/>
<path d="M587.288 196.377H476.635V198.815H587.288V196.377Z" fill="#95A9A7"/>
<path d="M511.844 295.226H466.704V400.534H511.844V295.226Z" fill="#95A9A7"/>
<path d="M195.191 291.226H143.394V400.533H195.191V291.226Z" fill="#95A9A7"/>
<path d="M263.366 261.52H160.152V400.535H263.366V261.52Z" fill="#95A9A7"/>
<path d="M266.032 256.187H154.131V261.52H266.032V256.187Z" fill="#95A9A7"/>
<path d="M210.081 241.713H164.722V269.897H210.081V241.713Z" fill="#95A9A7"/>
<path d="M232.515 241.713H224.898V258.853H232.515V241.713Z" fill="#95A9A7"/>
<path d="M248.512 241.713H240.132V258.853H248.512V241.713Z" fill="#95A9A7"/>
<path d="M169.292 358.258H115.21V400.535H169.292V358.258Z" fill="#95A9A7"/>
<path d="M120.391 340.357H94.7822V400.533H120.391V340.357Z" fill="#95A9A7"/>
<path d="M107.587 379.396H63.8182V400.535H107.587V379.396Z" fill="#95A9A7"/>
<path d="M1109.77 353.687H570.451V400.533H1109.77V353.687Z" fill="#95A9A7"/>
<path d="M1066.7 224.011C1063.31 224.011 1060.53 226.623 1060.25 229.947L1052.66 229.7C1052.68 228.956 1052.69 228.211 1052.69 227.465C1052.69 218.019 1051.06 208.822 1047.93 200.197L1054.28 197.862C1055.27 200.161 1057.56 201.769 1060.22 201.769C1063.8 201.769 1066.7 198.868 1066.7 195.289C1066.7 191.71 1063.8 188.808 1060.22 188.808C1056.65 188.808 1053.74 191.71 1053.74 195.289C1053.74 195.95 1053.84 196.587 1054.03 197.188L1047.69 199.521C1044.08 189.832 1038.57 180.878 1031.35 173.122L1036.31 168.473C1037.48 169.585 1039.05 170.269 1040.79 170.269C1044.37 170.269 1047.27 167.367 1047.27 163.788C1047.27 160.209 1044.37 157.308 1040.79 157.308C1037.21 157.308 1034.31 160.209 1034.31 163.788C1034.31 165.372 1034.88 166.823 1035.82 167.95L1030.86 172.601C1030.35 172.061 1029.83 171.526 1029.3 170.999C1021.79 163.486 1013.04 157.654 1003.52 153.693L1006.25 147.047C1006.87 147.244 1007.53 147.35 1008.21 147.35C1011.79 147.35 1014.69 144.449 1014.69 140.87C1014.69 137.291 1011.79 134.389 1008.21 134.389C1004.63 134.389 1001.73 137.291 1001.73 140.87C1001.73 143.51 1003.31 145.781 1005.57 146.791L1002.85 153.422C994.331 149.968 985.201 148.004 975.786 147.663L976.081 138.58C976.15 138.581 976.217 138.584 976.286 138.584C979.865 138.584 982.767 135.683 982.767 132.104C982.767 128.525 979.865 125.623 976.286 125.623C972.707 125.623 969.806 128.525 969.806 132.104C969.806 135.369 972.222 138.069 975.363 138.518L975.066 147.641C974.323 147.62 973.578 147.609 972.832 147.609C963.766 147.609 954.932 149.111 946.611 151.993L943.997 144.579C946.355 143.609 948.014 141.291 948.014 138.584C948.014 135.005 945.113 132.104 941.534 132.104C937.955 132.104 935.051 135.005 935.051 138.584C935.051 142.163 937.953 145.065 941.534 145.065C942.153 145.065 942.751 144.976 943.317 144.814L945.931 152.23C935.84 155.83 926.522 161.473 918.487 168.947L913.751 163.893C914.811 162.739 915.459 161.202 915.459 159.511C915.459 155.932 912.557 153.03 908.978 153.03C905.399 153.03 902.496 155.932 902.496 159.511C902.496 163.09 905.398 165.991 908.978 165.991C910.609 165.991 912.097 165.388 913.236 164.394L917.964 169.44C917.425 169.951 916.89 170.47 916.362 170.997C909.679 177.68 904.329 185.339 900.44 193.652L894.416 190.872C894.634 190.223 894.753 189.529 894.753 188.807C894.753 185.228 891.852 182.326 888.273 182.326C884.694 182.326 881.792 185.228 881.792 188.807C881.792 192.386 884.694 195.287 888.273 195.287C890.875 195.287 893.118 193.753 894.149 191.54L900.132 194.303C895.837 203.706 893.403 213.927 893.021 224.511L885.295 224.259C885.199 220.763 882.338 217.959 878.819 217.959C875.24 217.959 872.338 220.86 872.338 224.439C872.338 228.018 875.24 230.92 878.819 230.92C882.217 230.92 885.001 228.304 885.275 224.979L892.998 225.231C892.977 225.974 892.967 226.719 892.967 227.465C892.967 236.912 894.598 246.108 897.722 254.733L891.381 257.068C890.385 254.769 888.098 253.161 885.433 253.161C881.854 253.161 878.952 256.063 878.952 259.642C878.952 263.22 881.854 266.122 885.433 266.122C889.012 266.122 891.915 263.22 891.915 259.642C891.915 258.981 891.816 258.344 891.632 257.743L897.971 255.408C901.583 265.097 907.091 274.05 914.307 281.806L909.345 286.455C908.182 285.345 906.607 284.66 904.87 284.66C901.291 284.66 898.389 287.561 898.389 291.14C898.389 294.719 901.291 297.621 904.87 297.621C908.449 297.621 911.352 294.719 911.352 291.14C911.352 289.556 910.782 288.105 909.838 286.978L914.801 282.329C915.312 282.869 915.83 283.404 916.358 283.932C921.417 288.991 927.038 293.288 933.078 296.765L893.998 368.796H886.984V370.855H883.549V374.945H1062.1V370.855H1058.67V368.796H1051.65L1012.58 296.765C1017.78 293.768 1022.68 290.162 1027.17 285.983L1033.5 292.741C1032.14 293.93 1031.28 295.674 1031.28 297.622C1031.28 301.201 1034.18 304.103 1037.76 304.103C1041.34 304.103 1044.24 301.201 1044.24 297.622C1044.24 294.043 1041.34 291.142 1037.76 291.142C1036.39 291.142 1035.12 291.569 1034.07 292.297L1027.69 285.492C1028.23 284.981 1028.77 284.462 1029.3 283.935C1035.98 277.252 1041.33 269.593 1045.22 261.28L1052.27 264.535C1052.14 265.043 1052.08 265.575 1052.08 266.122C1052.08 269.701 1054.98 272.603 1058.56 272.603C1062.14 272.603 1065.04 269.701 1065.04 266.122C1065.04 262.543 1062.14 259.642 1058.56 259.642C1055.78 259.642 1053.41 261.388 1052.49 263.842L1045.52 260.626C1049.82 251.223 1052.25 241.002 1052.63 230.418L1060.23 230.665C1060.32 234.163 1063.18 236.97 1066.7 236.97C1070.28 236.97 1073.19 234.069 1073.19 230.49C1073.19 226.911 1070.28 224.011 1066.7 224.011ZM1050.53 227.467C1050.53 228.189 1050.52 228.911 1050.5 229.631L1028.14 228.904C1028.15 228.426 1028.16 227.946 1028.16 227.467C1028.16 220.877 1027 214.554 1024.87 208.687L1045.9 200.945C1048.94 209.335 1050.53 218.278 1050.53 227.467ZM1027.06 228.869L977.179 227.248C977.163 226.923 977.111 226.606 977.027 226.304L1023.86 209.061C1025.94 214.81 1027.08 221.007 1027.08 227.467C1027.08 227.936 1027.07 228.403 1027.06 228.869ZM918.598 226.064L968.478 227.685C968.494 228.011 968.547 228.327 968.631 228.63L921.798 245.873C919.718 240.123 918.582 233.926 918.582 227.467C918.58 226.998 918.586 226.53 918.598 226.064ZM976.243 224.76L1012.64 190.656C1017.36 195.758 1021.11 201.765 1023.61 208.386L976.778 225.628C976.634 225.317 976.454 225.027 976.243 224.76ZM975.751 224.234C975.469 223.979 975.153 223.76 974.811 223.586L993.769 177.424C1000.76 180.358 1007 184.715 1012.15 190.129L975.751 224.234ZM974.146 223.312C973.884 223.23 973.611 223.171 973.331 223.138L974.952 173.263C981.346 173.511 987.459 174.869 993.104 177.151L974.146 223.312ZM972.61 223.114C972.306 223.129 972.009 223.176 971.724 223.251L955.135 176.183C960.683 174.263 966.636 173.217 972.829 173.217C973.298 173.217 973.765 173.223 974.231 173.235L972.61 223.114ZM971.045 223.491C970.714 223.639 970.404 223.829 970.122 224.053L936.018 187.657C941.301 182.768 947.555 178.915 954.456 176.424L971.045 223.491ZM969.597 224.544C969.383 224.781 969.196 225.042 969.038 225.32L923.734 204.407C926.627 198.274 930.632 192.766 935.494 188.149L969.597 224.544ZM968.734 225.972C968.619 226.287 968.541 226.62 968.5 226.965L918.625 225.343C918.904 218.136 920.593 211.282 923.429 205.056L968.734 225.972ZM968.878 229.304C968.995 229.554 969.134 229.793 969.296 230.014L968.999 230.562L933.019 264.276C928.298 259.174 924.544 253.167 922.048 246.546L968.878 229.304ZM967.91 232.568L945.321 274.205C940.956 271.627 936.98 268.457 933.509 264.803L967.91 232.568ZM970.366 231.061C970.519 231.166 970.679 231.26 970.846 231.345L951.888 277.508C950.063 276.741 948.288 275.876 946.569 274.921L970.366 231.061ZM971.511 231.621C971.774 231.704 972.046 231.762 972.328 231.795L970.706 281.67C964.313 281.423 958.199 280.065 952.555 277.782L971.511 231.621ZM972.829 281.715C972.359 281.715 971.892 281.709 971.426 281.697L973.047 231.817C973.352 231.802 973.648 231.756 973.933 231.681L990.523 278.749C984.974 280.669 979.021 281.715 972.829 281.715ZM974.612 231.441C974.85 231.333 975.078 231.207 975.291 231.061L999.086 274.921C996.573 276.318 993.938 277.521 991.2 278.509L974.612 231.441ZM978.615 234.169L1009.64 267.278C1006.8 269.903 1003.68 272.229 1000.34 274.206L978.615 234.169ZM977.259 231.668L976.363 230.014C976.456 229.886 976.543 229.752 976.62 229.613L1021.92 250.526C1019.03 256.659 1015.03 262.167 1010.17 266.784L977.259 231.668ZM976.923 228.961C977.039 228.645 977.116 228.312 977.157 227.969L1027.03 229.59C1026.75 236.799 1025.06 243.651 1022.23 249.877L976.923 228.961ZM951.479 278.508L942.963 299.243C940.367 298.162 937.832 296.939 935.363 295.578L946.055 275.871C947.807 276.844 949.616 277.727 951.479 278.508ZM952.145 278.78C957.906 281.111 964.145 282.497 970.672 282.749L969.945 305.113C960.791 304.782 951.915 302.871 943.63 299.514L952.145 278.78ZM971.391 282.776C971.869 282.788 972.348 282.794 972.829 282.794C979.147 282.794 985.22 281.727 990.881 279.767L998.331 300.902C990.238 303.704 981.646 305.164 972.83 305.164C972.106 305.164 971.385 305.154 970.666 305.134L971.391 282.776ZM991.56 279.528C994.35 278.521 997.038 277.294 999.602 275.871L1010.29 295.578C1006.67 297.578 1002.9 299.279 999.01 300.666L991.56 279.528ZM1045.66 200.269L1024.62 208.013C1022.08 201.255 1018.24 195.125 1013.43 189.919L1029.77 174.602C1036.79 182.143 1042.14 190.848 1045.66 200.269ZM1027.77 172.524C1028.28 173.036 1028.78 173.554 1029.28 174.077L1012.94 189.393C1007.69 183.865 1001.31 179.42 994.18 176.426L1002.69 155.691C1011.96 159.544 1020.46 165.217 1027.77 172.524ZM1002.03 155.418L993.511 176.153C987.75 173.822 981.511 172.436 974.985 172.184L975.712 149.819C984.866 150.15 993.742 152.061 1002.03 155.418ZM972.829 149.766C973.551 149.766 974.273 149.777 974.993 149.796L974.266 172.156C973.788 172.144 973.31 172.138 972.829 172.138C966.51 172.138 960.437 173.205 954.776 175.165L947.326 154.03C955.419 151.226 964.012 149.766 972.829 149.766ZM946.647 154.267L954.097 175.404C947.055 177.945 940.672 181.878 935.281 186.867L919.964 170.521C927.775 163.255 936.836 157.769 946.647 154.267ZM917.886 172.524C918.398 172.013 918.916 171.511 919.439 171.015L934.755 187.359C929.794 192.071 925.704 197.693 922.753 203.953L902.399 194.557C906.181 186.472 911.386 179.023 917.886 172.524ZM902.096 195.211L922.449 204.606C919.555 210.96 917.831 217.953 917.546 225.31L895.182 224.583C895.554 214.293 897.92 204.353 902.096 195.211ZM895.128 227.467C895.128 226.744 895.139 226.022 895.158 225.302L917.518 226.029C917.506 226.507 917.5 226.986 917.5 227.467C917.5 234.057 918.66 240.38 920.783 246.246L899.753 253.988C896.714 245.598 895.128 236.654 895.128 227.467ZM900.001 254.664L921.034 246.92C923.58 253.678 927.412 259.808 932.231 265.014L915.884 280.332C908.87 272.79 903.514 264.085 900.001 254.664ZM917.886 282.409C917.375 281.898 916.873 281.379 916.377 280.858L932.721 265.542C936.271 269.28 940.339 272.522 944.805 275.156L934.11 294.871C928.25 291.491 922.798 287.32 917.886 282.409ZM1050.02 368.8H895.638L934.332 297.479C936.868 298.877 939.474 300.133 942.142 301.243L939.413 307.889C938.794 307.692 938.134 307.586 937.449 307.586C933.87 307.586 930.969 310.488 930.969 314.067C930.969 317.646 933.87 320.547 937.449 320.547C941.028 320.547 943.931 317.646 943.931 314.067C943.931 311.426 942.352 309.155 940.086 308.145L942.809 301.515C951.329 304.968 960.46 306.933 969.875 307.273L969.654 314.07C966.144 314.149 963.324 317.018 963.324 320.547C963.324 324.126 966.225 327.028 969.806 327.028C973.386 327.028 976.286 324.126 976.286 320.547C976.286 317.16 973.687 314.381 970.375 314.092L970.596 307.295C971.339 307.316 972.084 307.327 972.83 307.327C981.896 307.327 990.73 305.825 999.051 302.943L1001.38 309.551C999.175 310.585 997.646 312.824 997.646 315.421C997.646 319 1000.55 321.902 1004.13 321.902C1007.71 321.902 1010.61 319 1010.61 315.421C1010.61 311.842 1007.71 308.941 1004.13 308.941C1003.4 308.941 1002.7 309.062 1002.05 309.284L999.729 302.706C1003.73 301.279 1007.6 299.533 1011.33 297.48L1050.02 368.8ZM1011.55 294.869L1000.85 275.155C1004.28 273.133 1007.47 270.752 1010.38 268.064L1025.69 284.411C1021.34 288.462 1016.59 291.96 1011.55 294.869ZM1027.77 282.409C1027.26 282.92 1026.74 283.422 1026.22 283.918L1010.9 267.574C1015.86 262.862 1019.95 257.241 1022.9 250.98L1043.26 260.376C1039.48 268.46 1034.27 275.909 1027.77 282.409ZM1043.56 259.722L1023.21 250.327C1026.1 243.974 1027.83 236.979 1028.11 229.623L1050.48 230.35C1050.1 240.641 1047.74 250.58 1043.56 259.722Z" fill="#95A9A7"/>
<path d="M1165.63 278.51H1082.35V400.535H1165.63V278.51Z" fill="#95A9A7"/>
<path d="M1236.72 325.952H1153.44V399.845H1236.72V325.952Z" fill="#95A9A7"/>
<path d="M877.188 315.101H830.47V377.111H877.188V315.101Z" fill="#95A9A7"/>
<path d="M1182.89 162.465H1123.99V400.533H1182.89V162.465Z" fill="#95A9A7"/>
<path d="M1279.89 400.533H1202.19V261.519H1261.1L1279.89 400.533Z" fill="#95A9A7"/>
<path d="M1313.91 368.8H1245.86V400.535H1313.91V368.8Z" fill="#95A9A7"/>
<path d="M1169.69 112.729H1167.66V177.424H1169.69V112.729Z" fill="#95A9A7"/>
<path d="M1176.55 126.612H1174.52V191.307H1176.55V126.612Z" fill="#95A9A7"/>
<path d="M1163.47 135.543H1161.44V200.238H1163.47V135.543Z" fill="#95A9A7"/>
<path d="M1233.04 250.283H1205.24V272.183H1233.04V250.283Z" fill="#95A9A7"/>
<path d="M1230 242.476H1208.29V254.785H1230V242.476Z" fill="#95A9A7"/>
<path d="M1249.42 256.698H1244.09V265.541H1249.42V256.698Z" fill="#95A9A7"/>
<path d="M1258.92 248.63H1251.31V265.54H1258.92V248.63Z" fill="#95A9A7"/>
<path d="M900.854 216.168H830.235V443.794H900.854V216.168Z" fill="#658280"/>
<path d="M906.13 217.517H824.959V219.823H906.13V217.517Z" fill="#658280"/>
<path d="M903.934 249.49H827.155V251.789H903.934V249.49Z" fill="#658280"/>
<path d="M903.934 280.456H827.155V282.755H903.934V280.456Z" fill="#658280"/>
<path d="M903.934 311.421H827.155V313.72H903.934V311.421Z" fill="#658280"/>
<path d="M903.934 342.387H827.155V344.686H903.934V342.387Z" fill="#658280"/>
<path d="M903.934 373.352H827.155V375.651H903.934V373.352Z" fill="#658280"/>
<path d="M903.934 404.318H827.155V406.617H903.934V404.318Z" fill="#658280"/>
<path d="M908.815 211.228H822.275V217.517H908.815V211.228Z" fill="#658280"/>
<path opacity="0.29" d="M843.928 227.3H836.591V245.484H843.928V227.3Z" fill="#658280"/>
<path d="M860.341 227.3H853.003V245.484H860.341V227.3Z" fill="#658280"/>
<path d="M876.754 227.3H869.416V245.484H876.754V227.3Z" fill="#658280"/>
<path d="M893.165 227.3H885.827V245.484H893.165V227.3Z" fill="#658280"/>
<path d="M843.928 257.031H836.591V275.215H843.928V257.031Z" fill="#658280"/>
<path opacity="0.29" d="M860.341 257.031H853.003V275.215H860.341V257.031Z" fill="#658280"/>
<path d="M876.754 257.031H869.416V275.215H876.754V257.031Z" fill="#658280"/>
<path d="M893.165 257.031H885.827V275.215H893.165V257.031Z" fill="#658280"/>
<path d="M843.928 287.996H836.591V306.18H843.928V287.996Z" fill="#658280"/>
<path d="M860.341 287.996H853.003V306.18H860.341V287.996Z" fill="#658280"/>
<path d="M876.754 287.996H869.416V306.18H876.754V287.996Z" fill="#658280"/>
<path opacity="0.29" d="M893.165 287.996H885.827V306.18H893.165V287.996Z" fill="#658280"/>
<path d="M843.928 318.961H836.591V337.146H843.928V318.961Z" fill="#658280"/>
<path opacity="0.29" d="M860.341 318.961H853.003V337.146H860.341V318.961Z" fill="#658280"/>
<path opacity="0.29" d="M876.754 318.961H869.416V337.146H876.754V318.961Z" fill="#658280"/>
<path d="M893.165 318.961H885.827V337.146H893.165V318.961Z" fill="#658280"/>
<path opacity="0.29" d="M843.928 349.927H836.591V368.111H843.928V349.927Z" fill="#658280"/>
<path d="M860.341 349.927H853.003V368.111H860.341V349.927Z" fill="#658280"/>
<path d="M876.754 349.927H869.416V368.111H876.754V349.927Z" fill="#658280"/>
<path d="M893.165 349.927H885.827V368.111H893.165V349.927Z" fill="#658280"/>
<path d="M843.928 380.892H836.591V399.076H843.928V380.892Z" fill="#658280"/>
<path d="M860.341 380.892H853.003V399.076H860.341V380.892Z" fill="#658280"/>
<path opacity="0.29" d="M876.754 380.892H869.416V399.076H876.754V380.892Z" fill="#658280"/>
<path d="M893.165 380.892H885.827V399.076H893.165V380.892Z" fill="#658280"/>
<path d="M843.928 411.858H836.591V430.042H843.928V411.858Z" fill="#658280"/>
<path opacity="0.29" d="M860.341 411.858H853.003V430.042H860.341V411.858Z" fill="#658280"/>
<path d="M876.754 411.858H869.416V430.042H876.754V411.858Z" fill="#658280"/>
<path opacity="0.29" d="M893.165 411.858H885.827V430.042H893.165V411.858Z" fill="#658280"/>
<path d="M858.71 202.55H834.692V214.372H858.71V202.55Z" fill="#658280"/>
<path d="M860.34 202.213H833.062V204.233H860.34V202.213Z" fill="#658280"/>
<path d="M729.019 443.794H634.948V227.518L729.019 204.508V443.794Z" fill="#658280"/>
<path d="M639.08 223.711H630.814V443.794H639.08V223.711Z" fill="#658280"/>
<path d="M662.598 217.509H654.333V443.794H662.598V217.509Z" fill="#658280"/>
<path d="M686.116 211.068H677.85V443.795H686.116V211.068Z" fill="#658280"/>
<path d="M709.632 205.819H701.367V443.795H709.632V205.819Z" fill="#658280"/>
<path d="M733.151 200.238H724.885V443.794H733.151V200.238Z" fill="#658280"/>
<path opacity="0.29" d="M652.191 242.18H641.22V258.894H652.191V242.18Z" fill="#658280"/>
<path opacity="0.29" d="M675.709 242.18H664.738V258.894H675.709V242.18Z" fill="#658280"/>
<path d="M699.227 242.18H688.256V258.894H699.227V242.18Z" fill="#658280"/>
<path opacity="0.29" d="M722.745 242.18H711.774V258.894H722.745V242.18Z" fill="#658280"/>
<path d="M652.191 271.284H641.22V287.998H652.191V271.284Z" fill="#658280"/>
<path d="M675.709 271.284H664.738V287.998H675.709V271.284Z" fill="#658280"/>
<path opacity="0.29" d="M699.227 271.284H688.256V287.998H699.227V271.284Z" fill="#658280"/>
<path opacity="0.29" d="M722.745 271.284H711.774V287.998H722.745V271.284Z" fill="#658280"/>
<path opacity="0.29" d="M652.191 300.388H641.22V317.102H652.191V300.388Z" fill="#658280"/>
<path opacity="0.29" d="M675.709 300.388H664.738V317.102H675.709V300.388Z" fill="#658280"/>
<path opacity="0.29" d="M699.227 300.388H688.256V317.102H699.227V300.388Z" fill="#658280"/>
<path d="M722.745 300.388H711.774V317.102H722.745V300.388Z" fill="#658280"/>
<path opacity="0.29" d="M652.191 329.492H641.22V346.206H652.191V329.492Z" fill="#658280"/>
<path d="M675.709 329.492H664.738V346.206H675.709V329.492Z" fill="#658280"/>
<path opacity="0.29" d="M699.227 329.492H688.256V346.206H699.227V329.492Z" fill="#658280"/>
<path opacity="0.29" d="M722.745 329.492H711.774V346.206H722.745V329.492Z" fill="#658280"/>
<path opacity="0.29" d="M652.191 358.594H641.22V375.308H652.191V358.594Z" fill="#658280"/>
<path opacity="0.29" d="M675.709 358.594H664.738V375.308H675.709V358.594Z" fill="#658280"/>
<path d="M699.227 358.594H688.256V375.308H699.227V358.594Z" fill="#658280"/>
<path opacity="0.29" d="M722.745 358.594H711.774V375.308H722.745V358.594Z" fill="#658280"/>
<path d="M652.191 387.698H641.22V404.412H652.191V387.698Z" fill="#658280"/>
<path d="M675.709 387.698H664.738V404.412H675.709V387.698Z" fill="#658280"/>
<path opacity="0.29" d="M699.227 387.698H688.256V404.412H699.227V387.698Z" fill="#658280"/>
<path opacity="0.29" d="M722.745 387.698H711.774V404.412H722.745V387.698Z" fill="#658280"/>
<path opacity="0.29" d="M652.191 416.801H641.22V433.515H652.191V416.801Z" fill="#658280"/>
<path d="M675.709 416.801H664.738V433.515H675.709V416.801Z" fill="#658280"/>
<path opacity="0.29" d="M699.227 416.801H688.256V433.515H699.227V416.801Z" fill="#658280"/>
<path d="M722.745 416.801H711.774V433.515H722.745V416.801Z" fill="#658280"/>
<path d="M366.596 237.878V240.124H364.36V246.523H403.721V443.794H339.128V256.815V246.523V240.124H336.784V237.878H366.596Z" fill="#658280"/>
<path d="M531.962 327.485H476.635V443.794H531.962V327.485Z" fill="#658280"/>
<path d="M280.467 300.823H235.492V443.794H280.467V300.823Z" fill="#658280"/>
<path d="M320.568 330.611H271.558V443.794H320.568V330.611Z" fill="#658280"/>
<path d="M271.558 295.084H251.673V312.193H271.558V295.084Z" fill="#658280"/>
<path d="M327.166 328.747H274.921V332.931H327.166V328.747Z" fill="#658280"/>
<path d="M370.253 379.157H315.305V443.794H370.253V379.157Z" fill="#658280"/>
<path d="M182.41 326.581H137.714V443.794H182.41V326.581Z" fill="#658280"/>
<path d="M157.728 384.993H98.9263V443.794H157.728V384.993Z" fill="#658280"/>
<path d="M70.9582 375.383H34.1777V443.794H70.9582V375.383Z" fill="#658280"/>
<path d="M150.749 422.365H63.8182V443.794H150.749V422.365Z" fill="#658280"/>
<path d="M45.4333 415.44H0.878906V443.794H45.4333V415.44Z" fill="#658280"/>
<path d="M251.673 400.533H182.41V443.794H251.673V400.533Z" fill="#658280"/>
<path d="M493.474 425.158H385.585V443.794H493.474V425.158Z" fill="#658280"/>
<path d="M684.76 425.158H576.87V443.794H684.76V425.158Z" fill="#658280"/>
<path d="M489.273 370.446H448.266L430.925 434.477H489.273V370.446Z" fill="#658280"/>
<path d="M509.369 277.28H508.227V348.311H509.369V277.28Z" fill="#658280"/>
<path d="M515.462 301.317H513.94V343.229H515.462V301.317Z" fill="#658280"/>
<path d="M526.523 308.745H505.776V329.492H526.523V308.745Z" fill="#658280"/>
<path d="M529.751 307.132H502.273V308.991H529.751V307.132Z" fill="#658280"/>
<path d="M588.936 383.802H521.899V443.793H588.936V383.802Z" fill="#658280"/>
<path d="M619.185 317.761H576.116V433.516H619.185V317.761Z" fill="#658280"/>
<path d="M813.132 339.522H744.323V443.794H813.132V339.522Z" fill="#658280"/>
<path d="M801.198 405.373H722.745V443.794H801.198V405.373Z" fill="#658280"/>
<path d="M860.341 430.042H809.324V443.794H860.341V430.042Z" fill="#658280"/>
<path d="M970.847 405.373H887.901V443.794H970.847V405.373Z" fill="#658280"/>
<path d="M920.947 443.795H1024.16V304.779H920.947V443.795Z" fill="#658280"/>
<path d="M918.281 304.78H1030.18V299.448H918.281V304.78Z" fill="#658280"/>
<path d="M974.231 313.158H1019.59V284.974H974.231V313.158Z" fill="#658280"/>
<path d="M951.797 302.113H959.414V284.974H951.797V302.113Z" fill="#658280"/>
<path d="M935.799 302.113H944.178V284.974H935.799V302.113Z" fill="#658280"/>
<path d="M1095.11 443.794H1176.81V240.77H1095.11V443.794Z" fill="#658280"/>
<path d="M1092.79 243.017H1179.13V237.278H1092.79V243.017Z" fill="#658280"/>
<path d="M1097.86 257.208H1174.07V229.933H1097.86V257.208Z" fill="#658280"/>
<path d="M1138.06 248.575H1168.23V218.774H1138.06V248.575Z" fill="#658280"/>
<path d="M1150.77 227.173H1168.23V211.484H1155.71L1150.77 227.173Z" fill="#658280"/>
<path d="M1159.5 233.406H1161.19V198.463H1159.5V233.406Z" fill="#658280"/>
<path d="M1158.83 196.653C1158.83 197.652 1159.51 198.463 1160.35 198.463C1161.19 198.463 1161.87 197.652 1161.87 196.653C1161.87 195.652 1161.19 194.841 1160.35 194.841C1159.51 194.841 1158.83 195.652 1158.83 196.653Z" fill="#658280"/>
<path d="M1202.19 359.98H1165.63V443.794H1202.19V359.98Z" fill="#658280"/>
<path d="M1103.18 319.117H1061.48V443.794H1103.18V319.117Z" fill="#658280"/>
<path d="M1082.35 443.794H1023.61V377.111L1073.19 399.077L1082.35 443.794Z" fill="#658280"/>
<path d="M1279.89 407.579H1190.19V443.794H1279.89V407.579Z" fill="#658280"/>
<path d="M1298.86 299.225H1246.75V443.794H1298.86V299.225Z" fill="#658280"/>
<path d="M1373 416.8H1286.67V443.793H1373V416.8Z" fill="#658280"/>
<path d="M1301.25 296.578H1244.09V301.317H1301.25V296.578Z" fill="#658280"/>
<path d="M1291.87 276.179H1290.73V305.313H1291.87V276.179Z" fill="#658280"/>
<path d="M1284.26 279.867H1283.12V303.238H1284.26V279.867Z" fill="#658280"/>
<path d="M1318.16 353.687H1294.92V419.924H1328.06L1318.16 353.687Z" fill="#658280"/>
<g opacity="0.52">
<path d="M243.536 308.061H240.132V311.464H243.536V308.061Z" fill="white"/>
<path d="M250.376 308.061H246.973V311.464H250.376V308.061Z" fill="white"/>
<path d="M243.536 316.058H240.132V319.461H243.536V316.058Z" fill="white"/>
<path d="M250.376 316.058H246.973V319.461H250.376V316.058Z" fill="white"/>
<path d="M243.536 323.79H240.132V327.194H243.536V323.79Z" fill="white"/>
<path d="M257.978 308.061H254.574V311.464H257.978V308.061Z" fill="white"/>
</g>
<path opacity="0.5" d="M491.595 205.818H489.273V218.67H491.595V205.818Z" fill="white"/>
<path opacity="0.5" d="M499.597 205.818H497.275V218.67H499.597V205.818Z" fill="white"/>
<path opacity="0.5" d="M507.599 205.818H505.277V218.67H507.599V205.818Z" fill="white"/>
<path opacity="0.5" d="M515.6 205.818H513.279V218.67H515.6V205.818Z" fill="white"/>
<path opacity="0.5" d="M523.602 205.818H521.281V218.67H523.602V205.818Z" fill="white"/>
<path opacity="0.5" d="M531.604 205.818H529.282V218.67H531.604V205.818Z" fill="white"/>
<path opacity="0.5" d="M539.605 205.818H537.284V218.67H539.605V205.818Z" fill="white"/>
<path opacity="0.5" d="M547.606 205.818H545.284V218.67H547.606V205.818Z" fill="white"/>
<path opacity="0.5" d="M555.607 205.818H553.286V218.67H555.607V205.818Z" fill="white"/>
<path opacity="0.5" d="M563.609 205.818H561.288V218.67H563.609V205.818Z" fill="white"/>
<path opacity="0.5" d="M571.611 205.818H569.29V218.67H571.611V205.818Z" fill="white"/>
<path opacity="0.5" d="M491.595 223.71H489.273V236.562H491.595V223.71Z" fill="white"/>
<path opacity="0.5" d="M499.597 223.71H497.275V236.562H499.597V223.71Z" fill="white"/>
<path opacity="0.5" d="M507.599 223.71H505.277V236.562H507.599V223.71Z" fill="white"/>
<path opacity="0.5" d="M515.6 223.71H513.279V236.562H515.6V223.71Z" fill="white"/>
<path opacity="0.5" d="M523.602 223.71H521.281V236.562H523.602V223.71Z" fill="white"/>
<path opacity="0.5" d="M531.604 223.71H529.282V236.562H531.604V223.71Z" fill="white"/>
<path opacity="0.5" d="M539.605 223.71H537.284V236.562H539.605V223.71Z" fill="white"/>
<path opacity="0.5" d="M547.606 223.71H545.284V236.562H547.606V223.71Z" fill="white"/>
<path opacity="0.5" d="M555.607 223.71H553.286V236.562H555.607V223.71Z" fill="white"/>
<path opacity="0.5" d="M563.609 223.71H561.288V236.562H563.609V223.71Z" fill="white"/>
<path opacity="0.5" d="M571.611 223.71H569.29V236.562H571.611V223.71Z" fill="white"/>
<path opacity="0.5" d="M491.595 241.603H489.273V254.454H491.595V241.603Z" fill="white"/>
<path opacity="0.5" d="M499.597 241.603H497.275V254.454H499.597V241.603Z" fill="white"/>
<path opacity="0.5" d="M507.599 241.603H505.277V254.454H507.599V241.603Z" fill="white"/>
<path opacity="0.5" d="M515.6 241.603H513.279V254.454H515.6V241.603Z" fill="white"/>
<path opacity="0.5" d="M523.602 241.603H521.281V254.454H523.602V241.603Z" fill="white"/>
<path opacity="0.5" d="M531.604 241.603H529.282V254.454H531.604V241.603Z" fill="white"/>
<path opacity="0.5" d="M539.605 241.603H537.284V254.454H539.605V241.603Z" fill="white"/>
<path opacity="0.5" d="M547.606 241.603H545.284V254.454H547.606V241.603Z" fill="white"/>
<path opacity="0.5" d="M555.607 241.603H553.286V254.454H555.607V241.603Z" fill="white"/>
<path opacity="0.5" d="M563.609 241.603H561.288V254.454H563.609V241.603Z" fill="white"/>
<path opacity="0.5" d="M571.611 241.603H569.29V254.454H571.611V241.603Z" fill="white"/>
<path opacity="0.5" d="M515.6 259.494H513.279V272.346H515.6V259.494Z" fill="white"/>
<path opacity="0.5" d="M523.602 259.494H521.281V272.346H523.602V259.494Z" fill="white"/>
<path opacity="0.5" d="M531.604 259.494H529.282V272.346H531.604V259.494Z" fill="white"/>
<path opacity="0.5" d="M539.605 259.494H537.284V272.346H539.605V259.494Z" fill="white"/>
<path opacity="0.5" d="M547.606 259.494H545.284V272.346H547.606V259.494Z" fill="white"/>
<path opacity="0.5" d="M555.607 259.494H553.286V272.346H555.607V259.494Z" fill="white"/>
<path opacity="0.5" d="M563.609 259.494H561.288V272.346H563.609V259.494Z" fill="white"/>
<path opacity="0.5" d="M571.611 259.494H569.29V272.346H571.611V259.494Z" fill="white"/>
<path opacity="0.5" d="M523.602 278.378H521.281V291.23H523.602V278.378Z" fill="white"/>
<path opacity="0.5" d="M531.604 278.378H529.282V291.23H531.604V278.378Z" fill="white"/>
<path opacity="0.5" d="M539.605 278.378H537.284V291.23H539.605V278.378Z" fill="white"/>
<path opacity="0.5" d="M547.606 278.378H545.284V291.23H547.606V278.378Z" fill="white"/>
<path opacity="0.5" d="M555.607 278.378H553.286V291.23H555.607V278.378Z" fill="white"/>
<path opacity="0.5" d="M563.609 278.378H561.288V291.23H563.609V278.378Z" fill="white"/>
<path opacity="0.5" d="M571.611 278.378H569.29V291.23H571.611V278.378Z" fill="white"/>
<path opacity="0.33" d="M649.448 237.716H643.962V251.629H649.448V237.716Z" fill="white"/>
<path opacity="0.33" d="M649.448 264.328H643.962V278.24H649.448V264.328Z" fill="white"/>
<path opacity="0.33" d="M649.448 290.938H643.962V304.85H649.448V290.938Z" fill="white"/>
<path opacity="0.33" d="M649.448 317.549H643.962V331.462H649.448V317.549Z" fill="white"/>
<path opacity="0.33" d="M649.448 342.638H643.962V356.551H649.448V342.638Z" fill="white"/>
<path opacity="0.33" d="M649.448 369.248H643.962V383.161H649.448V369.248Z" fill="white"/>
<path opacity="0.33" d="M672.966 237.716H667.481V251.629H672.966V237.716Z" fill="white"/>
<path opacity="0.33" d="M672.966 264.328H667.481V278.24H672.966V264.328Z" fill="white"/>
<path opacity="0.33" d="M672.966 290.938H667.481V304.85H672.966V290.938Z" fill="white"/>
<path opacity="0.33" d="M672.966 317.549H667.481V331.462H672.966V317.549Z" fill="white"/>
<path opacity="0.33" d="M672.966 342.638H667.481V356.551H672.966V342.638Z" fill="white"/>
<path opacity="0.33" d="M672.966 369.248H667.481V383.161H672.966V369.248Z" fill="white"/>
<path opacity="0.33" d="M696.484 237.716H690.999V251.629H696.484V237.716Z" fill="white"/>
<path opacity="0.33" d="M696.484 264.328H690.999V278.24H696.484V264.328Z" fill="white"/>
<path opacity="0.33" d="M696.484 290.938H690.999V304.85H696.484V290.938Z" fill="white"/>
<path opacity="0.33" d="M696.484 317.549H690.999V331.462H696.484V317.549Z" fill="white"/>
<path opacity="0.33" d="M696.484 342.638H690.999V356.551H696.484V342.638Z" fill="white"/>
<path opacity="0.33" d="M696.484 369.248H690.999V383.161H696.484V369.248Z" fill="white"/>
<path opacity="0.33" d="M720.002 237.716H714.517V251.629H720.002V237.716Z" fill="white"/>
<path opacity="0.33" d="M720.002 264.328H714.517V278.24H720.002V264.328Z" fill="white"/>
<path opacity="0.33" d="M720.002 290.938H714.517V304.85H720.002V290.938Z" fill="white"/>
<path opacity="0.33" d="M720.002 317.549H714.517V331.462H720.002V317.549Z" fill="white"/>
<path opacity="0.33" d="M720.002 342.638H714.517V356.551H720.002V342.638Z" fill="white"/>
<path opacity="0.33" d="M720.002 369.248H714.517V383.161H720.002V369.248Z" fill="white"/>
<path opacity="0.5" d="M560.173 43.7031H555.609V55.8789H560.173V43.7031Z" fill="white"/>
<path opacity="0.5" d="M571.434 43.7031H566.87V55.8789H571.434V43.7031Z" fill="white"/>
<path opacity="0.5" d="M582.694 43.7031H578.13V55.8789H582.694V43.7031Z" fill="white"/>
<path opacity="0.5" d="M593.956 43.7031H589.392V55.8789H593.956V43.7031Z" fill="white"/>
<path opacity="0.5" d="M560.173 63.981H555.609V76.1567H560.173V63.981Z" fill="white"/>
<path opacity="0.5" d="M571.434 63.981H566.87V76.1567H571.434V63.981Z" fill="white"/>
<path opacity="0.5" d="M582.694 63.981H578.13V76.1567H582.694V63.981Z" fill="white"/>
<path opacity="0.5" d="M593.956 63.981H589.392V76.1567H593.956V63.981Z" fill="white"/>
<path opacity="0.5" d="M560.173 84.2593H555.609V96.435H560.173V84.2593Z" fill="white"/>
<path opacity="0.5" d="M571.434 84.2593H566.87V96.435H571.434V84.2593Z" fill="white"/>
<path opacity="0.5" d="M606.731 43.7031H602.167V55.8789H606.731V43.7031Z" fill="white"/>
<path opacity="0.4" d="M254.574 167.052H251.673V178.213H254.574V167.052Z" fill="white"/>
<path opacity="0.4" d="M264.817 167.052H261.915V178.213H264.817V167.052Z" fill="white"/>
<path opacity="0.4" d="M276.796 167.052H273.895V178.213H276.796V167.052Z" fill="white"/>
<path opacity="0.4" d="M287.037 167.052H284.135V178.213H287.037V167.052Z" fill="white"/>
<path opacity="0.4" d="M231.822 167.052H228.921V178.213H231.822V167.052Z" fill="white"/>
<path opacity="0.4" d="M242.063 167.052H239.161V178.213H242.063V167.052Z" fill="white"/>
<path opacity="0.4" d="M254.574 186.434H251.673V197.595H254.574V186.434Z" fill="white"/>
<path opacity="0.4" d="M264.817 186.434H261.915V197.595H264.817V186.434Z" fill="white"/>
<path opacity="0.4" d="M276.796 186.434H273.895V197.595H276.796V186.434Z" fill="white"/>
<path opacity="0.4" d="M287.037 186.434H284.135V197.595H287.037V186.434Z" fill="white"/>
<path opacity="0.4" d="M231.822 186.434H228.921V197.595H231.822V186.434Z" fill="white"/>
<path opacity="0.4" d="M242.063 186.434H239.161V197.595H242.063V186.434Z" fill="white"/>
<path opacity="0.4" d="M254.574 205.814H251.673V216.975H254.574V205.814Z" fill="white"/>
<path opacity="0.4" d="M264.817 205.814H261.915V216.975H264.817V205.814Z" fill="white"/>
<path opacity="0.4" d="M276.796 205.814H273.895V216.975H276.796V205.814Z" fill="white"/>
<path opacity="0.4" d="M287.037 205.814H284.135V216.975H287.037V205.814Z" fill="white"/>
<path opacity="0.4" d="M231.822 205.814H228.921V216.975H231.822V205.814Z" fill="white"/>
<path opacity="0.4" d="M242.063 205.814H239.161V216.975H242.063V205.814Z" fill="white"/>
<path opacity="0.5" d="M797.811 252.59H793.314V269.899H797.811V252.59Z" fill="white"/>
<path opacity="0.5" d="M811.57 252.59H807.074V269.899H811.57V252.59Z" fill="white"/>
<path opacity="0.5" d="M824.523 252.59H820.027V269.899H824.523V252.59Z" fill="white"/>
<path opacity="0.33" d="M1106.59 256.187H1103.18V265.921H1106.59V256.187Z" fill="white"/>
<path opacity="0.33" d="M1117.29 256.187H1113.88V265.921H1117.29V256.187Z" fill="white"/>
<path opacity="0.33" d="M1106.59 256.187H1103.18V265.921H1106.59V256.187Z" fill="white"/>
<path opacity="0.33" d="M1117.29 256.187H1113.88V265.921H1117.29V256.187Z" fill="white"/>
<path opacity="0.33" d="M1127.4 256.187H1123.99V265.921H1127.4V256.187Z" fill="white"/>
<path opacity="0.33" d="M1138.1 256.187H1134.69V265.921H1138.1V256.187Z" fill="white"/>
<path opacity="0.33" d="M1106.59 273.642H1103.18V283.376H1106.59V273.642Z" fill="white"/>
<path opacity="0.33" d="M1117.29 273.642H1113.88V283.376H1117.29V273.642Z" fill="white"/>
<path opacity="0.33" d="M1106.59 273.642H1103.18V283.376H1106.59V273.642Z" fill="white"/>
<path opacity="0.33" d="M1117.29 273.642H1113.88V283.376H1117.29V273.642Z" fill="white"/>
<path opacity="0.33" d="M1127.4 273.642H1123.99V283.376H1127.4V273.642Z" fill="white"/>
<path opacity="0.33" d="M1138.1 273.642H1134.69V283.376H1138.1V273.642Z" fill="white"/>
<path opacity="0.33" d="M1106.59 292.22H1103.18V301.955H1106.59V292.22Z" fill="white"/>
<path opacity="0.33" d="M1117.29 292.22H1113.88V301.955H1117.29V292.22Z" fill="white"/>
<path opacity="0.33" d="M1106.59 292.22H1103.18V301.955H1106.59V292.22Z" fill="white"/>
<path opacity="0.33" d="M1117.29 292.22H1113.88V301.955H1117.29V292.22Z" fill="white"/>
<path opacity="0.33" d="M1127.4 292.22H1123.99V301.955H1127.4V292.22Z" fill="white"/>
<path opacity="0.33" d="M1138.1 292.22H1134.69V301.955H1138.1V292.22Z" fill="white"/>
<path opacity="0.33" d="M1149.8 256.187H1146.38V265.921H1149.8V256.187Z" fill="white"/>
<path opacity="0.33" d="M1149.8 273.642H1146.38V283.376H1149.8V273.642Z" fill="white"/>
<path opacity="0.33" d="M1160.5 256.187H1157.08V265.921H1160.5V256.187Z" fill="white"/>
<path opacity="0.33" d="M840.259 227.3H836.591V242.476H840.259V227.3Z" fill="white"/>
<path opacity="0.33" d="M858.506 227.3H854.837V242.476H858.506V227.3Z" fill="white"/>
<path opacity="0.33" d="M876.752 227.3H873.083V242.476H876.752V227.3Z" fill="white"/>
<path opacity="0.33" d="M894.999 227.3H891.33V242.476H894.999V227.3Z" fill="white"/>
<path opacity="0.33" d="M840.259 258.535H836.591V273.711H840.259V258.535Z" fill="white"/>
<path opacity="0.33" d="M858.506 258.535H854.837V273.711H858.506V258.535Z" fill="white"/>
<path opacity="0.33" d="M876.752 258.535H873.083V273.711H876.752V258.535Z" fill="white"/>
<path opacity="0.33" d="M894.999 258.535H891.33V273.711H894.999V258.535Z" fill="white"/>
<path opacity="0.33" d="M840.259 290.547H836.591V305.723H840.259V290.547Z" fill="white"/>
<path opacity="0.33" d="M858.506 290.547H854.837V305.723H858.506V290.547Z" fill="white"/>
<path opacity="0.33" d="M876.752 290.547H873.083V305.723H876.752V290.547Z" fill="white"/>
<path opacity="0.33" d="M894.999 290.547H891.33V305.723H894.999V290.547Z" fill="white"/>
<path opacity="0.33" d="M840.259 322.56H836.591V337.736H840.259V322.56Z" fill="white"/>
<path opacity="0.33" d="M858.506 322.56H854.837V337.736H858.506V322.56Z" fill="white"/>
<path opacity="0.33" d="M876.752 322.56H873.083V337.736H876.752V322.56Z" fill="white"/>
<path opacity="0.33" d="M894.999 322.56H891.33V337.736H894.999V322.56Z" fill="white"/>
<path opacity="0.33" d="M840.259 351.636H836.591V366.813H840.259V351.636Z" fill="white"/>
<path opacity="0.33" d="M858.506 351.636H854.837V366.813H858.506V351.636Z" fill="white"/>
<path opacity="0.33" d="M876.752 351.636H873.083V366.813H876.752V351.636Z" fill="white"/>
<path opacity="0.33" d="M840.259 384.069H836.591V399.246H840.259V384.069Z" fill="white"/>
<path opacity="0.33" d="M858.506 384.069H854.837V399.246H858.506V384.069Z" fill="white"/>
<path opacity="0.33" d="M876.752 384.069H873.083V399.246H876.752V384.069Z" fill="white"/>
<path opacity="0.33" d="M894.999 351.636H891.33V366.813H894.999V351.636Z" fill="white"/>
<path opacity="0.33" d="M1255.11 307.533H1251.37V316.244H1255.11V307.533Z" fill="white"/>
<path opacity="0.33" d="M1255.11 321.596H1251.37V330.307H1255.11V321.596Z" fill="white"/>
<path opacity="0.33" d="M1264.73 307.533H1260.98V316.244H1264.73V307.533Z" fill="white"/>
</svg>
